<svg id="工事明細書" xmlns="http://www.w3.org/2000/svg" width="842" height="595.22" viewBox="0 0 842 595.22">
  <style>text{font-family: IPA Mincho, IPAMincho, MS-PMincho, MS PMincho, IPA Gothic, IPAGothic;}</style>
  <rect x="16.03" y="15.61" width="810" height="564" style="fill: #fff"/>
  <path d="M482.98,63.421V60.6H470.74v2.82Zm0-3.42v-2.58H470.74V60Zm-15.06-4.68,3.3,1.44h11.52l1.38-1.5,2.16,1.5a.875.875,0,0,1,.3.48c0,.12-.12.24-.3.36-.06.06-.3.18-.6.36,0,2.7.06,4.92.12,6.78,0,.24-.06.42-.18.48a4.07,4.07,0,0,1-1.98.3l-.42-.06a.551.551,0,0,1-.24-.36v-1.08H470.74v.78c-.06.24-.12.36-.24.42a3.9,3.9,0,0,1-1.86.24c-.36,0-.6-.06-.66-.24-.06-.06-.06-.18-.06-.36.06-1.68.12-3.66.12-5.94C468.04,57.661,467.98,56.461,467.92,55.321Zm15.36-7.26v-2.52h-5.46v2.52Zm0-3.18v-2.34h-5.46v2.34Zm1.44,4.5h-.78a1.17,1.17,0,0,1-.48-.06.641.641,0,0,1-.18-.3v-.36h-5.46v2.28h5.4c.48-.54.9-.96,1.2-1.26Zm1.14-4.5h.84l1.5-1.62c.72.6,1.44,1.26,2.1,1.92.06.06.12.12.12.18,0,.12-.12.18-.3.18h-4.26c0,.84,0,1.92.06,3.18a.4.4,0,0,1-.24.42,1.312,1.312,0,0,1-.54.18l2.4,1.92a.22.22,0,0,1,.06.18c0,.12-.06.18-.24.18h-9.54V54h7.32l1.74-1.98,2.82,2.22.06.24q0,.18-.36.18H467.56a22.171,22.171,0,0,0-3.18.18l-.18-1.08a17.153,17.153,0,0,0,3.36.24h7.68V51.6H468.7a19.925,19.925,0,0,0-2.28.12l-.18-.96a14.24,14.24,0,0,0,2.46.18h6.54v-2.28h-6.06a11.415,11.415,0,0,0-2.1.18l-.24-1.02a9.249,9.249,0,0,0,2.4.24h6v-2.52h-8.52c-1.02,0-1.92.06-2.64.12l-.18-1.02a13.237,13.237,0,0,0,2.88.24h8.46v-2.34H469.6a8.767,8.767,0,0,0-2.04.18l-.24-1.08a9.5,9.5,0,0,0,2.28.3h5.64c0-.84-.06-1.68-.12-2.58,1.5.12,2.58.24,3.24.3.36.06.54.24.54.42,0,.06-.12.18-.3.3-.12.06-.36.12-.78.3v1.26h5.22l1.44-1.44,1.92,1.38c.18.18.3.3.3.42s-.06.24-.24.42a5.274,5.274,0,0,0-.6.3Zm-42.78,9.48.3-.18a11.788,11.788,0,0,1,2.4,2.88,3.351,3.351,0,0,1,.6,1.68,2.286,2.286,0,0,1-.42,1.32q-.45.9-1.08.9c-.18,0-.36-.12-.42-.42a2.727,2.727,0,0,1-.06-.84,20.394,20.394,0,0,0-.36-2.76,7.526,7.526,0,0,0-.48-1.62A4.459,4.459,0,0,0,443.08,54.361Zm-3.84-9.42a6.266,6.266,0,0,1,.84.6,2,2,0,0,1,.66,1.38,3.2,3.2,0,0,1-.3,1.2,3.882,3.882,0,0,1-.48.54.733.733,0,0,1-.54.24.563.563,0,0,1-.48-.36,4.55,4.55,0,0,1-.3-.84,13.031,13.031,0,0,0-1.14-2.46,17.331,17.331,0,0,0-1.26-1.68l.18-.24c.84.42,1.56.84,2.1,1.14a13.333,13.333,0,0,0,.78-1.86,30.761,30.761,0,0,0,1.02-3.3c1.38.42,2.4.72,3.12,1.02.3.12.48.24.48.36q0,.27-.36.36a8.335,8.335,0,0,1-.9.12A35.852,35.852,0,0,1,439.24,44.941Zm13.14,6.54v-9.12H449.5v9.12Zm0,10.92V52.081H449.5V62.4Zm2.4-10.32V62.4h3.18V52.081Zm0-9.72v9.12h3.18v-9.12ZM449.5,63v1.44a.482.482,0,0,1-.36.54,8.028,8.028,0,0,1-1.56.12c-.3,0-.54-.06-.6-.18a.7.7,0,0,1-.12-.42c.06-1.92.12-3.72.18-5.46v-10.2c0-2.46-.06-5.4-.12-8.7a32.546,32.546,0,0,1,2.88,1.56h7.86l1.5-1.56,1.98,1.56a.875.875,0,0,1,.3.48c0,.06-.12.18-.3.36a3.108,3.108,0,0,1-.66.42V47.4c0,5.58,0,9.12.06,10.62,0,1.56.06,3.6.12,6.06a.775.775,0,0,1-.12.48,4.169,4.169,0,0,1-1.86.3,1.17,1.17,0,0,1-.48-.06.551.551,0,0,1-.24-.36V63Zm-10.68-11.58c.78-1.14,1.5-2.28,2.16-3.3a49.521,49.521,0,0,0,2.7-5.28c.72.3,1.62.66,2.64,1.14.3.12.42.24.42.36,0,.24-.36.36-1.08.42-2.88,3.48-4.8,5.7-5.76,6.6h.24c1.86-.12,3.24-.24,4.02-.36a14.792,14.792,0,0,0-1.02-2.52l.18-.18a19.306,19.306,0,0,1,2.7,2.58,2.379,2.379,0,0,1,.48,1.32,2.35,2.35,0,0,1-.54,1.56,1.028,1.028,0,0,1-.72.48.563.563,0,0,1-.48-.36,2.944,2.944,0,0,1-.18-.78c-.06-.36-.12-.78-.24-1.32a11.428,11.428,0,0,1-1.74.54v6l.06,2.34c0,1.74,0,3.06.06,3.96-.06.24-.12.42-.24.48a4.651,4.651,0,0,1-1.68.18c-.18,0-.36,0-.42-.06a.507.507,0,0,1-.12-.36c.06-1.86.06-4.02.12-6.42v-2.16l-.9.18a25.291,25.291,0,0,1-3.36,7.86l-.36-.12a28.636,28.636,0,0,0,.78-2.82,33.573,33.573,0,0,0,.78-6.54c.66.18,1.2.3,1.5.36a12.936,12.936,0,0,1,1.56.48v-2.82c-.42.12-.78.18-.96.24l-1.98.48a2.992,2.992,0,0,1-.18.72.548.548,0,0,1-.3.18c-.18,0-.3-.12-.36-.42-.18-.78-.42-1.62-.66-2.64h2.88Zm-22.98,4.8v-6.66H411.7v6.66Zm0-7.32v-6.24H411.7V48.9ZM409,40.441l2.82,1.62h3.84a16.35,16.35,0,0,0,1.38-1.5l1.08.84.9.72c.18.18.3.3.3.42,0,.06-.06.18-.24.36-.06.06-.3.18-.66.42v4.92c0,4.98,0,8.22.06,9.84-.06.3-.18.54-.42.6a4.763,4.763,0,0,1-1.56.18l-.42-.06c-.12-.06-.18-.18-.24-.42v-1.56H411.7v2.04c-.06.36-.18.6-.42.66a9.625,9.625,0,0,1-1.68.12.507.507,0,0,1-.36-.12c-.12-.06-.18-.24-.24-.48.06-3.06.12-6.72.12-11.1v-1.2C409.12,44.521,409.06,42.421,409,40.441Zm20.64,7.86H423.7a53.062,53.062,0,0,1-.36,5.94h6.3Zm-5.94-.6h5.94V42h-5.88v1.38c0,.24,0,1.02-.06,2.4Zm5.94,7.14h-6.36a12.956,12.956,0,0,1-2.4,5.52,15.525,15.525,0,0,1-3.54,3.3,30.219,30.219,0,0,1-2.76,1.56l-.18-.3A23.2,23.2,0,0,0,416.68,63a13.685,13.685,0,0,0,3.84-7.14,33.435,33.435,0,0,0,.54-5.94c.06-1.32.06-2.88.06-4.68,0-1.68-.06-3.48-.18-5.46l3,1.62h5.52l.72-.72.66-.78,1.14.84,1.02.78a.894.894,0,0,1,.36.42c0,.18-.36.48-1.02.84V56.4l.06,1.62v3.9a5.252,5.252,0,0,1-.12,1.2,2.315,2.315,0,0,1-.66,1.02,3.558,3.558,0,0,1-1.74.72c-.42.06-.96.12-1.56.18a4.213,4.213,0,0,0-.36-1.14,2.627,2.627,0,0,0-1.2-1.08,10.894,10.894,0,0,0-2.52-.6V61.8c1.86.12,3.48.18,4.86.24h.12a.507.507,0,0,0,.36-.12c.06-.06.06-.18.06-.42Zm-38.1-5.64v-3.06h-5.16V49.2Zm8.1,9.6v-2.82h-5.52V58.8Zm-5.52-6.06v2.64h5.52v-2.64Zm5.28-3.54v-3.06h-5.28V49.2Zm0,.66h-5.28v2.28h5.28l1.32-1.32,2.04,1.32c.18.18.3.3.3.42,0,.06-.06.18-.24.36-.06.06-.24.12-.54.3v2.16h.36l1.56-1.74,2.04,1.92a.322.322,0,0,1,.18.24c0,.12-.12.18-.3.18h-3.84v1.56c.06,1.2.06,2.22.12,3.12a.467.467,0,0,1-.18.42,4.381,4.381,0,0,1-1.92.24l-.42-.06c-.12-.06-.18-.18-.24-.42V59.4h-5.46v1.56l.06,1.5a3.234,3.234,0,0,1-.18,1.32,2.557,2.557,0,0,1-1.56,1.2c-.42.12-1.2.3-2.22.48a3.269,3.269,0,0,0-.24-1.14,1.279,1.279,0,0,0-.6-.66,7.507,7.507,0,0,0-1.86-.66c-.54-.12-1.14-.24-1.86-.36v-.36q3.69.18,5.4.18h.06c.24,0,.36-.12.36-.3V59.4h-7.26a6.038,6.038,0,0,0-1.62.18l-.12-.96a8.313,8.313,0,0,0,1.8.18h7.2v-2.82h-9.72a12.78,12.78,0,0,0-1.62.12l-.12-.96a5.085,5.085,0,0,0,1.74.24h9.72v-2.64h-7.32a7.516,7.516,0,0,0-1.44.12l-.12-.9a6.54,6.54,0,0,0,1.56.18h7.32v-2.28h-5.16v.54c0,.24-.06.42-.18.48a3.234,3.234,0,0,1-1.32.18h-.9a.363.363,0,0,1-.18-.36c.06-1.74.06-3.06.06-4.02,0-.84,0-1.62-.06-2.4l2.82,1.26h4.92v-2.16H382.3a12.169,12.169,0,0,0-1.68.12l-.12-.96a5.832,5.832,0,0,0,1.86.24h9.12c0-1.2-.06-2.28-.12-3.24,1.68.18,2.76.3,3.3.36.36.06.54.24.54.42a.434.434,0,0,1-.24.36c-.18.06-.42.18-.84.3v1.8h6.9l1.92-2.04a35.393,35.393,0,0,1,2.82,2.22.322.322,0,0,1,.18.24c0,.12-.12.18-.3.18H394.12v2.16h5.04l1.32-1.26,1.98,1.26c.24.18.36.3.36.42s-.12.24-.3.36a2.813,2.813,0,0,1-.6.36c0,1.26,0,2.34.06,3.36,0,.18,0,.3-.06.36a1.312,1.312,0,0,1-.3.18,10.314,10.314,0,0,1-1.56.12c-.18,0-.36,0-.42-.06a.551.551,0,0,1-.24-.36Zm-33.24-6.24v18.36h6.42l2.16-2.64,3.3,2.76a1.014,1.014,0,0,1,.12.3q0,.18-.36.18H355.3c-1.44.06-2.4.12-2.94.18l-.18-1.08a19.586,19.586,0,0,0,3.12.3h8.04V43.561H356.5l-2.4.18-.18-1.02a11.436,11.436,0,0,0,2.58.24h14.64l2.1-2.34,3.12,2.64c.06.06.12.12.12.18,0,.12-.12.18-.3.18Z"/>
  <g id="line1">
    <path d="M803.8,137.581V159.6H38.2v-22.02Z" style="fill: #fff;stroke: #000;stroke-miterlimit: 10;stroke-width: 0.25px;fill-rule: evenodd"/>
    <line x1="493.24" y1="137.581" x2="493.24" y2="159.601" style="fill: none;stroke: #000;stroke-linecap: round;stroke-linejoin: round;stroke-width: 0.06px"/>
    <line x1="69.46" y1="137.581" x2="69.46" y2="159.601" style="fill: none;stroke: #000;stroke-linecap: round;stroke-linejoin: round;stroke-width: 0.06px"/>
    <line x1="582.22" y1="137.581" x2="582.22" y2="159.601" style="fill: none;stroke: #000;stroke-linecap: round;stroke-linejoin: round;stroke-width: 0.06px"/>
    <line x1="381.4" y1="137.581" x2="381.4" y2="159.601" style="fill: none;stroke: #000;stroke-linecap: round;stroke-linejoin: round;stroke-width: 0.06px"/>
    <line x1="804.04" y1="137.581" x2="804.04" y2="159.601" style="fill: none;stroke: #000;stroke-linecap: round;stroke-linejoin: round"/>
    <line x1="38.02" y1="159.601" x2="38.02" y2="137.581" style="fill: none;stroke: #000;stroke-linecap: round;stroke-linejoin: round"/>
    <line x1="433.42" y1="137.581" x2="433.42" y2="159.601" style="fill: none;stroke: #000;stroke-linecap: round;stroke-linejoin: round;stroke-width: 0.06px"/>
    <text id="_line1-1_-中央" data-name="$line1-1$-中央" text-anchor="middle" transform="translate(53.851 152.281)" style="font-size: 10px;">$line1-1$</text>
    <text transform="translate(76.22 152.281)" style="font-size: 10px;">$line1-2$</text>
    <text id="_line1-3_-中央" data-name="$line1-3$-中央" text-anchor="middle" transform="translate(407.721 152.281)" style="font-size: 10px;">$line1-3$</text>
    <text id="_line1-4_-中央" data-name="$line1-4$-中央" text-anchor="middle" transform="translate(462.621 152.281)" style="font-size: 10px;">$line1-4$</text>
    <text id="_line1-5_右寄" data-name="$line1-5$－右寄" text-anchor="end" transform="translate(576.331 152.281)" style="font-size: 10px;">$line1-5$</text>
    <text transform="translate(587.495 152.281)" style="font-size: 10px;">$line1-6$</text>
  </g>
  <g id="total">
    <rect x="38.201" y="159.601" width="765.6" height="22.02" style="fill: #efefef"/>
    <line x1="804.04" y1="181.621" x2="38.02" y2="181.621" style="fill: none;stroke: #000;stroke-linecap: round;stroke-linejoin: round;stroke-width: 0.25px"/>
    <line x1="804.04" y1="159.601" x2="804.04" y2="181.621" style="fill: #efefef;stroke: #000;stroke-linecap: round;stroke-miterlimit: 10"/>
    <line x1="38.02" y1="181.621" x2="38.02" y2="159.601" style="fill: none;stroke: #000;stroke-linecap: round;stroke-miterlimit: 10"/>
    <line x1="433.42" y1="159.601" x2="433.42" y2="181.621" style="fill: none;stroke: #000;stroke-linecap: round;stroke-linejoin: round;stroke-width: 0.06px"/>
    <line x1="493.24" y1="159.601" x2="493.24" y2="181.621" style="fill: none;stroke: #000;stroke-linecap: round;stroke-linejoin: round;stroke-width: 0.06px"/>
    <line x1="582.22" y1="159.601" x2="582.22" y2="181.621" style="fill: none;stroke: #000;stroke-linecap: round;stroke-linejoin: round;stroke-width: 0.06px"/>
    <line x1="381.4" y1="159.601" x2="381.4" y2="181.621" style="fill: none;stroke: #000;stroke-linecap: round;stroke-linejoin: round;stroke-width: 0.06px"/>
    <line x1="804.04" y1="159.601" x2="38.02" y2="159.601" style="fill: none;stroke: #000;stroke-linecap: round;stroke-linejoin: round"/>
    <path d="M335.98,173.161v2.64h1.38v-2.64Zm-1.32-.96a6.9,6.9,0,0,1,1.5.72h1.14l.66-.72.96.72c.06.06.12.12.12.18,0,.12-.12.24-.42.42l.06,2.88a.312.312,0,0,1-.12.24,1.723,1.723,0,0,1-.72.12c-.18,0-.36,0-.42-.06l-.06-.18v-.48h-1.38v.48c0,.12,0,.18-.06.24a1.723,1.723,0,0,1-.72.12c-.18,0-.36,0-.42-.06l-.06-.24v-2.4Zm.06-.6-.12-.36.84.06H337a10.43,10.43,0,0,0,.78-.9l1.2.96.06.12c0,.06-.06.06-.18.06h-3.42Zm-.06-1.56-.06-.42c.18.06.48.06.84.12H337l.78-.84,1.14.9.06.12c0,.06-.06.06-.12.06h-3.42Zm-.42-1.5-.06-.42.9.06h2.4a10.43,10.43,0,0,0,.78-.9l1.26.96a.186.186,0,0,1,.06.12.129.129,0,0,1-.12.12h-4.44Zm.48-1.62-.12-.36a3.69,3.69,0,0,0,.84.06h1.62l.84-.9,1.26.96.06.12c0,.06-.06.06-.12.06h-3.66Zm7.86,3.12h.72l.9-1.08,1.26,1.08a.22.22,0,0,1,.06.18c0,.06-.06.06-.12.06h-2.82v.36c0,2.58,0,4.5.06,5.82a.353.353,0,0,1-.12.3,2.225,2.225,0,0,1-.84.12c-.24,0-.42,0-.48-.06l-.06-.24c.06-1.62.06-3.42.06-5.34v-.96h-1.26l-.78.06-.12-.42.9.12h1.26v-3.06a5.173,5.173,0,0,0-.06-1.02c.66.06,1.26.12,1.68.18.18,0,.3.06.3.18q0,.09-.18.18l-.36.12ZM325.3,172.5v3.3h4.56v-3.3Zm-1.44-1.02c.42.18.72.3.84.36a6.229,6.229,0,0,1,.72.42h4.32l.72-.84,1.08.84q.18.09.18.18t-.18.18a.641.641,0,0,1-.3.18l.06,3.6v.06a.312.312,0,0,1-.12.24,2.923,2.923,0,0,1-.9.12.507.507,0,0,1-.36-.12l-.06-.18v-.48H325.3v.36c0,.12,0,.18-.06.24-.12.12-.42.18-.96.18-.18,0-.3,0-.36-.06l-.06-.18v-.12c.06-.84.06-1.8.06-2.94A18.177,18.177,0,0,0,323.86,171.481Zm1.14-.84-.06-.42a3.691,3.691,0,0,0,.78.06h2.34l.84-.96,1.32,1.02a.186.186,0,0,1,.06.12c0,.06-.06.12-.18.12h-4.38Zm-2.94,1.02-.06-.12a14.229,14.229,0,0,0,1.74-1.5,12.562,12.562,0,0,0,2.28-2.94,5.044,5.044,0,0,0,.6-1.32c.84.18,1.44.36,1.8.42.18.06.24.12.24.24,0,.06-.06.06-.18.12-.06.06-.18.06-.36.06a6.281,6.281,0,0,0,2.46,2.16,13.074,13.074,0,0,0,2.04.84,9.416,9.416,0,0,0,.96.18l-.06.18-.48.3a2.575,2.575,0,0,0-.48.84l-.06.12q-.09.18-.18.18a3.264,3.264,0,0,1-.96-.54,7.964,7.964,0,0,1-2.4-2.28,11.237,11.237,0,0,1-1.02-1.8,11.215,11.215,0,0,1-5.88,4.86Z"/>
    <text id="_total_右寄" data-name="$total$－右寄" text-anchor="end" transform="translate(576.331 174.121)" style="font-size: 10px;">$total$</text>
    <text id="_total-note_" data-name="$total-note$" transform="translate(587.495 174.121)" style="font-size: 10px;">$total-note$</text>
  </g>
  <g id="total-cost">
    <rect x="38.201" y="181.621" width="765.6" height="22.02" style="fill: #ccc"/>
    <polyline points="38.02 181.621 38.02 203.641 804.04 203.641 804.04 181.621" style="fill: none;stroke: #000;stroke-linecap: square;stroke-miterlimit: 10"/>
    <line x1="804.04" y1="181.621" x2="38.02" y2="181.621" style="fill: none;stroke: #000;stroke-linecap: round;stroke-linejoin: round;stroke-width: 0.25px"/>
    <line x1="493.24" y1="181.621" x2="493.24" y2="203.641" style="fill: none;stroke: #000;stroke-linecap: round;stroke-linejoin: round;stroke-width: 0.06px"/>
    <line x1="582.22" y1="181.621" x2="582.22" y2="203.641" style="fill: none;stroke: #000;stroke-linecap: round;stroke-linejoin: round;stroke-width: 0.06px"/>
    <line x1="381.4" y1="181.621" x2="381.4" y2="203.641" style="fill: none;stroke: #000;stroke-linecap: round;stroke-linejoin: round;stroke-width: 0.06px"/>
    <line x1="433.42" y1="181.601" x2="433.42" y2="203.621" style="fill: none;stroke: #000;stroke-linecap: round;stroke-linejoin: round;stroke-width: 0.06px"/>
    <path d="M342.46,196.681l.06-.12a15.318,15.318,0,0,1,1.86.48,4.3,4.3,0,0,1,.66.42.8.8,0,0,1,.18.48l-.12.6c-.12.3-.3.42-.48.42a.306.306,0,0,1-.3-.24,3.117,3.117,0,0,0-.18-.3,5.7,5.7,0,0,0-1.68-1.74m-6.24-1.38v2.34h1.56V195.3Zm7.26.48v-1.62h-2.34v1.62Zm0-1.86v-1.56h-2.34v1.56Zm0-1.8v-1.38h-2.34v1.38Zm-6.84-.72-.6.78.3.12.78.24c.18-.3.36-.66.6-1.14Zm.9,2.04a10.138,10.138,0,0,1-1.56,1.32l.06.06.3.18h1.44l.54-.54.78.78.12.24-.06.12-.18.06v2.58a1.649,1.649,0,0,1-.78.12c-.24,0-.36,0-.36-.06l-.06-.18v-.24h-1.56v.48c0,.12,0,.18-.06.18-.06.12-.24.18-.66.18-.18,0-.36,0-.42-.06-.06,0-.12-.06-.12-.24a8.081,8.081,0,0,0,.06-1.32v-1.8a8.615,8.615,0,0,1-.96.42l-.12-.12a11.925,11.925,0,0,0,2.16-1.86c.18-.18.42-.48.72-.78l-.9-.6a9.18,9.18,0,0,1-1.8,1.5l-.12-.12a16.286,16.286,0,0,0,1.44-2.1,6.092,6.092,0,0,0,.66-1.8c.72.18,1.2.3,1.38.36q.18.09.18.18c0,.12-.18.18-.54.24-.12.24-.24.42-.3.54h.9l.54-.54.18.06a8.746,8.746,0,0,0,.24-1.02h-3.36l.06.24a1.972,1.972,0,0,1-.24,1.02.841.841,0,0,1-.66.48.329.329,0,0,1-.36-.24.968.968,0,0,1-.18-.54l.12-.36a.641.641,0,0,1,.3-.18,1.7,1.7,0,0,0,.54-.6,2.238,2.238,0,0,0,.12-.72l.18-.06a4.482,4.482,0,0,0,.12.66h1.14v-.54a4.85,4.85,0,0,0-.06-.96c.78.06,1.32.12,1.5.12.18.06.24.12.24.18s-.06.12-.18.18c-.06,0-.12.06-.3.12v.9h.96l.54-.54.96.84.12.12-.06.12c.3.18.6.36.96.6h.36q.09-.63.18-1.44v-.18h-1.26l-.78.06-.06-.42a2.781,2.781,0,0,0,.84.12h2.94l.84-.96,1.26,1.02.06.12c0,.06-.06.06-.12.06h-2.22a14.829,14.829,0,0,1-1.26,1.62h1.44l.66-.72.9.66q.18.09.18.18c0,.12-.12.24-.42.36v1.38c0,1.86,0,3.12.06,3.78a.22.22,0,0,1-.06.18,1.649,1.649,0,0,1-.78.12h-.36l-.06-.18v-.24h-2.34v.18c0,.12-.06.18-.18.24a3.85,3.85,0,0,0,.66.3,2.437,2.437,0,0,1,.66.36l.12.12c0,.06-.06.12-.24.18h-.36a7.041,7.041,0,0,1-1.5.9c-.54.24-1.14.48-1.86.72l-.12-.18a7.168,7.168,0,0,0,2.58-2.4h-.6c-.24,0-.36,0-.42-.06v-.18c.06-.9.06-1.8.06-2.7,0-1.98,0-3.12-.06-3.42v-.12h-.12a3.826,3.826,0,0,1-.84.6l-.36.24c.18.12.42.3.72.48.06.06.12.12.12.18s-.06.12-.18.18a1.056,1.056,0,0,0-.36.06,6.909,6.909,0,0,1-.84,1.2,4.584,4.584,0,0,1,.96.48,1.019,1.019,0,0,1,.36.36l.12.36a.956.956,0,0,1-.24.72l-.24.12a.322.322,0,0,1-.24-.18l-.18-.18A6.273,6.273,0,0,0,337.54,193.441Zm-7.38,1.2a10.119,10.119,0,0,1,1.62.66c.18.06.24.12.24.18,0,.12-.18.18-.6.18-.48.54-.9.96-1.2,1.26a8.37,8.37,0,0,1-1.32.96l-.12-.06a10.634,10.634,0,0,0,.9-1.86C329.86,195.421,330.04,195,330.16,194.641Zm-6.3.12.06-.06a4.547,4.547,0,0,1,.96.54,4.746,4.746,0,0,1,.96.84.968.968,0,0,1,.18.54,1.117,1.117,0,0,1-.24.66.945.945,0,0,1-.42.42.458.458,0,0,1-.3.12c-.12,0-.18-.06-.24-.24a4.081,4.081,0,0,1-.24-.78,4.979,4.979,0,0,0-.3-1.2C324.16,195.421,324.04,195.121,323.86,194.761Zm4.08-5.94c-.48.66-.96,1.2-1.38,1.68a12.735,12.735,0,0,1-4.5,2.94l-.06-.06a16.666,16.666,0,0,0,4.32-4.74l.36-.84c.78.18,1.38.36,1.74.48.18.06.24.12.24.18s-.06.12-.12.18h-.36l-.06.06c.36.42.72.72,1.02,1.02a6.8,6.8,0,0,0,2.4,1.38q.81.27,1.98.54v.06a1.929,1.929,0,0,0-.9,1.26c-.06.12-.06.18-.12.18a1.076,1.076,0,0,1-.48-.24,12.244,12.244,0,0,1-1.74-1.14,7.852,7.852,0,0,1-1.62-1.86Q328.39,189.541,327.94,188.821Zm.3,5.22h2.34l.9-1.02,1.32,1.08.12.12c0,.06-.06.06-.18.06h-4.5v3.9h2.64c.36-.42.72-.78,1.02-1.08l1.38,1.14v.12c0,.06-.06.06-.12.06H323.14l-.72.06-.06-.42.78.12h3.78v-3.9h-3.48l-.66.06-.06-.42a2.238,2.238,0,0,0,.72.12h3.48v-1.8h-1.2l-.6.06-.06-.42.66.12h2.4l.84-1.02,1.2,1.08.06.12c0,.06-.06.06-.12.06h-1.86Zm-16.26,1.14v2.64h1.38v-2.64Zm-1.32-.96a6.9,6.9,0,0,1,1.5.72h1.14l.66-.72.96.72c.06.06.12.12.12.18,0,.12-.12.24-.42.42l.06,2.88a.312.312,0,0,1-.12.24,1.723,1.723,0,0,1-.72.12c-.18,0-.36,0-.42-.06l-.06-.18v-.48h-1.38v.48c0,.12,0,.18-.06.24a1.723,1.723,0,0,1-.72.12c-.18,0-.36,0-.42-.06l-.06-.24v-2.4Zm.06-.6-.12-.36.84.06H313a10.43,10.43,0,0,0,.78-.9l1.2.96.06.12c0,.06-.06.06-.18.06h-3.42Zm-.06-1.56-.06-.42c.18.06.48.06.84.12H313l.78-.84,1.14.9.06.12c0,.06-.06.06-.12.06h-3.42Zm-.42-1.5-.06-.42.9.06h2.4a10.43,10.43,0,0,0,.78-.9l1.26.96a.186.186,0,0,1,.06.12.129.129,0,0,1-.12.12h-4.44Zm.48-1.62-.12-.36a3.69,3.69,0,0,0,.84.06h1.62l.84-.9,1.26.96.06.12c0,.06-.06.06-.12.06h-3.66Zm7.86,3.12h.72l.9-1.08,1.26,1.08a.22.22,0,0,1,.06.18c0,.06-.06.06-.12.06h-2.82v.36c0,2.58,0,4.5.06,5.82a.353.353,0,0,1-.12.3,2.225,2.225,0,0,1-.84.12c-.24,0-.42,0-.48-.06l-.06-.24c.06-1.62.06-3.42.06-5.34v-.96h-1.26l-.78.06-.12-.42.9.12h1.26V189a5.173,5.173,0,0,0-.06-1.02c.66.06,1.26.12,1.68.18.18,0,.3.06.3.18q0,.09-.18.18l-.36.12Zm-17.28,2.46v3.3h4.56v-3.3Zm-1.44-1.02c.42.18.72.3.84.36a6.229,6.229,0,0,1,.72.42h4.32l.72-.84,1.08.84q.18.09.18.18t-.18.18a.641.641,0,0,1-.3.18l.06,3.6v.06a.312.312,0,0,1-.12.24,2.923,2.923,0,0,1-.9.12.507.507,0,0,1-.36-.12l-.06-.18v-.48H301.3v.36c0,.12,0,.18-.06.24-.12.12-.42.18-.96.18-.18,0-.3,0-.36-.06l-.06-.18v-.12c.06-.84.06-1.8.06-2.94A18.177,18.177,0,0,0,299.86,193.5Zm1.14-.84-.06-.42a3.691,3.691,0,0,0,.78.06h2.34l.84-.96,1.32,1.02a.186.186,0,0,1,.06.12c0,.06-.06.12-.18.12h-4.38Zm-2.94,1.02-.06-.12a14.229,14.229,0,0,0,1.74-1.5,12.562,12.562,0,0,0,2.28-2.94,5.044,5.044,0,0,0,.6-1.32c.84.18,1.44.36,1.8.42.18.06.24.12.24.24,0,.06-.06.06-.18.12-.06.06-.18.06-.36.06a6.281,6.281,0,0,0,2.46,2.16,13.074,13.074,0,0,0,2.04.84,9.416,9.416,0,0,0,.96.18l-.06.18-.48.3a2.575,2.575,0,0,0-.48.84l-.06.12q-.09.18-.18.18a3.264,3.264,0,0,1-.96-.54,7.964,7.964,0,0,1-2.4-2.28,11.237,11.237,0,0,1-1.02-1.8,11.215,11.215,0,0,1-5.88,4.86Z"/>
    <text id="_total-cost_右寄" data-name="$total-cost$－右寄" text-anchor="end" transform="translate(576.331 196.141)" style="font-size: 10px;">$total-cost$</text>
    <text id="_total-cost-note_" data-name="$total-cost-note$" transform="translate(587.495 196.141)" style="font-size: 10px;">$total-cost-note$</text>
  </g>
  <g id="table-header">
    <path d="M493.18,137.521v-21.96H433.42v0H381.4v0H69.46v0H38.02v21.96H493.18m89.04-21.96v0H803.98v21.96H493.18v-21.96Z" style="fill: #eee;fill-rule: evenodd"/>
    <line x1="582.22" y1="115.561" x2="582.22" y2="137.521" style="fill: none;stroke: #000;stroke-linecap: round;stroke-linejoin: round;stroke-width: 0.06px"/>
    <line x1="493.18" y1="115.561" x2="493.18" y2="137.521" style="fill: none;stroke: #000;stroke-linecap: round;stroke-linejoin: round;stroke-width: 0.06px"/>
    <line x1="381.4" y1="115.561" x2="381.4" y2="137.521" style="fill: none;stroke: #000;stroke-linecap: round;stroke-linejoin: round;stroke-width: 0.06px"/>
    <line x1="69.46" y1="115.561" x2="69.46" y2="137.521" style="fill: none;stroke: #000;stroke-linecap: round;stroke-linejoin: round;stroke-width: 0.06px"/>
    <line x1="433.42" y1="115.561" x2="433.42" y2="137.521" style="fill: none;stroke: #000;stroke-linecap: round;stroke-linejoin: round;stroke-width: 0.06px"/>
    <rect x="38.02" y="115.561" width="765.96" height="21.96" style="fill: none;stroke: #000;stroke-miterlimit: 10"/>
    <path d="M243.04,125.881c.6.12,1.08.24,1.5.36.18.06.24.12.24.18s-.06.12-.12.18a1.351,1.351,0,0,0-.42.06,8.21,8.21,0,0,1-.54,1.5,10.462,10.462,0,0,1-1.98,2.76l-.12-.06a21.1,21.1,0,0,0,1.14-3.06,15.309,15.309,0,0,0,.3-1.92m3.48.06.12-.06a10.859,10.859,0,0,1,1.68,1.92,3.04,3.04,0,0,1,.42.9,2.641,2.641,0,0,1,.12.6l-.12.66a1.187,1.187,0,0,1-.42.6l-.3.12c-.18,0-.24-.06-.3-.24a1.583,1.583,0,0,0-.06-.42,17.1,17.1,0,0,0-.36-1.92A13.657,13.657,0,0,0,246.52,125.941Zm-.36-1.62v6.84a1.606,1.606,0,0,1-.12.66c-.06.18-.24.3-.54.42a2.408,2.408,0,0,1-.9.18l-.18-.06a.464.464,0,0,0-.06-.18.865.865,0,0,0-.42-.66,6.183,6.183,0,0,0-1.2-.42v-.18c.78.06,1.44.12,1.92.12a.22.22,0,0,0,.18-.06c.06,0,.06-.06.06-.12v-6.54h-1.08a11.837,11.837,0,0,1-1.8,2.04l-.12-.06a7.333,7.333,0,0,0,.6-1.2h-1.74v.9a6.115,6.115,0,0,1,.9.48,1.463,1.463,0,0,1,.54.48l.12.36a1.117,1.117,0,0,1-.24.66c-.12.18-.24.3-.42.3q-.09,0-.18-.18l-.12-.24a3.48,3.48,0,0,0-.36-1.32c-.06-.06-.12-.18-.24-.3v2.04c0,1.44,0,2.7.06,3.84,0,.12,0,.18-.06.24a1.649,1.649,0,0,1-.78.12c-.3,0-.42-.06-.48-.12v-.12l.06-3.48.06-1.26a11.468,11.468,0,0,1-.84,1.26,9.164,9.164,0,0,1-1.08,1.08l-.06-.06a15.245,15.245,0,0,0,1.86-4.68h-.96l-.66.06-.06-.42.72.12h1.02v-1.68q-.72.09-1.62.18l-.06-.12c.78-.3,1.56-.6,2.34-.96a6.327,6.327,0,0,0,.78-.48l.42-.36c.54.36.9.66,1.14.84q.18.09.18.18l-.06.12h-.12a1.171,1.171,0,0,1-.42-.06c-.54.18-.96.3-1.38.42v1.92H241l.6-.78.9.84.06.06a11.808,11.808,0,0,0,1.02-3.48c.78.18,1.32.3,1.68.42.18.06.24.12.24.18l-.12.12c-.06.06-.24.06-.48.12a15.426,15.426,0,0,1-.9,1.74h2.88l.48-.54.42-.48,1.2,1.08.06.12c0,.06-.06.06-.12.06Zm-16.02,3.66v3.42h4.32v-3.42Zm.42-4.92h2.64l.72-.66a8.773,8.773,0,0,1,1.14.96l.06.12a.22.22,0,0,1-.06.18c-.06,0-.24.06-.54.12a16.153,16.153,0,0,1-4.14,3.96h4.02l.72-.72c.42.3.78.54,1.14.78a.22.22,0,0,1,.06.18c0,.12-.18.24-.48.42v2.64a7.832,7.832,0,0,1,.06,1.02l-.12.24a2.97,2.97,0,0,1-1.02.12l-.24-.06-.06-.18v-.54h-4.32v.54a.22.22,0,0,1-.06.18,2.225,2.225,0,0,1-.84.12c-.18,0-.3,0-.36-.06l-.06-.18c0-.3,0-.9.06-1.86v-1.8a11.148,11.148,0,0,1-3.18,1.14v-.12a27.355,27.355,0,0,0,3.78-2.28,17.48,17.48,0,0,0,2.58-2.58,14.99,14.99,0,0,0,1.08-1.44h-2.82a10.227,10.227,0,0,1-1.14,1.14,7.089,7.089,0,0,1,.78.36c.54.24.78.54.78.84a1.056,1.056,0,0,1-.36.78.8.8,0,0,1-.42.18.312.312,0,0,1-.24-.12,1.056,1.056,0,0,0-.06-.36,2.849,2.849,0,0,0-.6-1.56,7.451,7.451,0,0,1-1.38,1.02,14.422,14.422,0,0,1-1.68.84l-.06-.12,1.38-1.2a15.978,15.978,0,0,0,1.56-1.86,6.826,6.826,0,0,0,.9-1.44l.12-.48c.42.12.72.18.9.24.54.18.9.24.96.3l.12.12c0,.06-.06.12-.12.18a2.248,2.248,0,0,0-.48.06C230.98,122.581,230.74,122.881,230.56,123.061Zm-8.4,5.4h-2.22v.24l.06.84v.12h2.16Zm-2.22-1.38v1.14h2.22v-1.14Zm2.1-1.56V124.2h-2.1v1.32Zm.6.72c-.3,0-.42,0-.48-.06-.06,0-.12-.06-.12-.18v-.18h-2.1v.96h2.1Zm-3.96-.72V124.2h-2.04v1.32Zm0,1.56h-3.06a2.472,2.472,0,0,0-.72.06l-.06-.42.78.06h3.06v-.96h-2.04v.24a.312.312,0,0,1-.12.24c-.06.06-.3.06-.72.06-.24,0-.36,0-.42-.06l-.06-.12V123.3l1.44.6h1.92V123h-3.9l-.78.06-.06-.42.84.12h3.9l-.12-1.38a7.908,7.908,0,0,1,1.74.18l.12.18-.12.18a2.36,2.36,0,0,0-.36.12v.72h2.7l.9-.96,1.32,1.02.06.12c0,.06-.06.06-.12.06h-4.86v.9h2.04l.6-.6.96.6a.322.322,0,0,1,.18.24l-.12.12a.641.641,0,0,1-.3.18v1.62l-.18.12h-.36l.06.06.84.54c.06.06.12.12.12.18s-.06.12-.12.18l-.24.12v.96h.12l.66-.78.9.84.06.12c0,.06-.06.06-.12.06h-1.62a18.674,18.674,0,0,0,.06,1.92c0,.12,0,.18-.06.24a1.787,1.787,0,0,1-.84.12c-.18,0-.3,0-.36-.06-.06,0-.06-.06-.06-.18v-.6H220v1.2a2.351,2.351,0,0,1-.12.78c-.18.3-.6.48-1.26.6a1.056,1.056,0,0,1-.36.06l-.18-.06v-.18a.984.984,0,0,0-.42-.66,2.417,2.417,0,0,0-.72-.24,3.85,3.85,0,0,0-.84-.24v-.12c1.02.06,1.8.06,2.4.06.12,0,.18-.06.18-.12V129.9h-3.12a2.238,2.238,0,0,0-.72.12l-.06-.48a2.663,2.663,0,0,0,.78.12h3.12v-1.2h-4.14l-.72.06-.06-.42.78.12h4.14ZM208,123.121v7.98h2.46l1.02-1.2,1.44,1.2c.06.06.12.12.12.18s-.06.06-.18.06h-9.84a6.19,6.19,0,0,0-1.14.06l-.06-.42c.3.06.72.06,1.2.12h3.54v-7.98h-3l-.9.06-.12-.42,1.02.06h6.3l.96-1.08,1.44,1.2.06.12c0,.06-.06.06-.12.06Z"/>
    <path d="M407.92,125.761l-.06-.48a4.663,4.663,0,0,0,.96.12h8.16l.78-.9,1.2,1.02.06.06c0,.06-.06.06-.12.06H408.82a3.631,3.631,0,0,0-.9.12m8.04-1.38v-.96h-5.22v.96Zm0-1.2v-.9h-5.22v.9Zm-6.54-1.8,1.5.66h4.92l.66-.72,1.02.72c.06.06.12.12.12.18l-.12.18c-.06.06-.12.06-.3.12v.72l.06,1.56c0,.06-.06.12-.12.18a2.085,2.085,0,0,1-.78.06c-.24,0-.36,0-.42-.06v-.36h-5.22v.24c0,.06,0,.12-.06.12a1.723,1.723,0,0,1-.72.12c-.3,0-.42-.06-.48-.12V123C409.48,122.581,409.48,122.041,409.42,121.381Zm3.24,6.36v-1.08h-1.8v1.08Zm1.26-1.08v1.08h1.92v-1.08Zm-1.26,2.52v-1.14h-1.8v1.14Zm1.26-1.14v1.14h1.92v-1.14Zm0,2.4h2.16a8.55,8.55,0,0,1,.66-.72l-.54.06-.3-.06-.06-.12v-.18h-1.92Zm0,.24v1.08h2.82l.42-.48.42-.42,1.32,1.02.06.12c0,.06-.06.06-.12.06H408.82l-.9.06-.06-.42a4.85,4.85,0,0,0,.96.06h3.84v-1.08h-2.88l-.9.06-.06-.42.96.12h2.88v-1.02h-1.8v.24a.22.22,0,0,1-.06.18,1.723,1.723,0,0,1-.72.12h-.42l-.06-.18v-3.96l1.32.6h4.8l.66-.6a8.585,8.585,0,0,0,.9.66q.18.09.18.18c0,.06-.12.18-.36.3v2.52a.22.22,0,0,1-.06.18l-.12.06c.3.18.72.48,1.14.78v.12c0,.06,0,.06-.06.06ZM400.6,121.8c.36.12.6.18.72.24.48.18.72.3.72.42a.129.129,0,0,1-.12.12c-.06.06-.12.06-.3.06a6.58,6.58,0,0,0-.6.48c-.3.24-.6.54-1.02.84l-.06-.06c.12-.3.24-.66.42-1.14Zm-4.26.12.06-.06a3.042,3.042,0,0,1,1.32.72.75.75,0,0,1,0,1.2.519.519,0,0,1-.36.18l-.18-.06c-.06-.06-.06-.12-.12-.3a4.653,4.653,0,0,0-.3-1.08A2.77,2.77,0,0,0,396.34,121.921Zm3.3,2.88a10.2,10.2,0,0,1,1.38.42.846.846,0,0,1,.48.72.77.77,0,0,1-.24.6.548.548,0,0,1-.3.18l-.12-.06a.841.841,0,0,1-.24-.42,3.22,3.22,0,0,0-.96-1.26v1.56c0,.12-.06.18-.18.24h-.96l-.06-.18a1.505,1.505,0,0,0,.06-.6v-.66a6.688,6.688,0,0,1-1.32,1.2,5.954,5.954,0,0,1-1.38.78l-.06-.12a8.392,8.392,0,0,0,2.22-2.88h-1.14l-.84.06-.06-.36a3.973,3.973,0,0,0,.9.06h1.68v-1.32a11.5,11.5,0,0,1-.06-1.2,11.3,11.3,0,0,1,1.38.18c.18.06.24.12.24.18l-.12.12-.3.12v1.92h1.02l.54-.66.9.78.06.06c0,.06-.06.06-.12.06h-2.4Zm2.88,1.02a7.808,7.808,0,0,0,1.14,2.7l.24-.54a12.762,12.762,0,0,0,.72-3.3h-1.44A5.174,5.174,0,0,1,402.52,125.821Zm-.12.3c-.3.42-.66.84-1.02,1.26l-.12-.12a16.283,16.283,0,0,0,1.2-3.54,15.825,15.825,0,0,0,.3-2.16,3.67,3.67,0,0,1,.84.18,5.336,5.336,0,0,1,1.08.3l.06.06q0,.09-.18.18a1.583,1.583,0,0,0-.42.06c-.12.36-.3.78-.48,1.32l-.36.78h1.74l.84-.96.6.54.66.48c.06.06,0,.12-.06.18H406a17.708,17.708,0,0,1-.48,2.34,7.939,7.939,0,0,1-1.08,2.4,6.09,6.09,0,0,0,1.08.78,6.8,6.8,0,0,0,1.74.78v.06l-.3.12a1.853,1.853,0,0,0-.66.96c-.06.12-.06.18-.12.18a1.044,1.044,0,0,1-.42-.18,8.524,8.524,0,0,1-1.56-1.44l-.36-.48a7.745,7.745,0,0,1-1.26,1.2,5.393,5.393,0,0,1-1.44.72,9.7,9.7,0,0,1-1.2.48l-.06-.12a9.081,9.081,0,0,0,1.26-.84,7.473,7.473,0,0,0,1.56-1.5l.6-.9A8.257,8.257,0,0,1,402.4,126.121Zm-2.52,2.16h-1.26a5.244,5.244,0,0,0-.36.78,2.265,2.265,0,0,1-.3.48l.54.12a5.143,5.143,0,0,1,.78.18A7.71,7.71,0,0,0,399.88,128.281Zm1.26,0a7.179,7.179,0,0,0-.36,1.02l-.48.84.48.24a.585.585,0,0,1,.24.54l-.12.48c-.06.18-.18.3-.3.3-.06,0-.18-.06-.36-.24a1.7,1.7,0,0,0-.54-.6,5.611,5.611,0,0,1-1.14.84,6.577,6.577,0,0,1-2.64.84l-.06-.12a6.8,6.8,0,0,0,2.4-1.38,4.131,4.131,0,0,0,.66-.78,7.881,7.881,0,0,0-1.02-.54c-.06.12-.12.3-.24.54l-.12.12c-.06.06-.24.06-.42.06a1.775,1.775,0,0,1-.6-.12l-.06-.12v-.06l.18-.36c.24-.42.48-.9.78-1.5h-.6l-.84.06-.12-.42a3.76,3.76,0,0,0,.96.12h.72a4.645,4.645,0,0,0,.48-1.14,2.5,2.5,0,0,1,.66.12,4.2,4.2,0,0,1,.78.12l.06.12q0,.09-.18.18c-.06.06-.12.06-.3.06l-.24.42v.12h1.5l.66-.78,1.08.84.06.12c0,.06-.06.06-.12.06Z"/>
    <path d="M467.68,125.041l.12-.06a16.581,16.581,0,0,1,1.56,2.46,4.945,4.945,0,0,1,.36,1.14,5.025,5.025,0,0,1,.12.6,1.785,1.785,0,0,1-.3.9,1.247,1.247,0,0,1-.66.6l-.18.06c-.12,0-.18-.06-.24-.24-.06-.06-.06-.24-.06-.54a16.86,16.86,0,0,0-.24-3,12.789,12.789,0,0,0-.48-1.92m3.3-.78h1.38l.84-1.08,1.32,1.08c.06.06.12.12.12.18s-.06.06-.18.06h-6.72l-.84.06-.06-.42a4.631,4.631,0,0,0,.9.12h1.92v-1.5l-.12-1.14a11.5,11.5,0,0,1,1.8.18q.18.09.18.18t-.18.18l-.36.12Zm-5.28.84.66.12c.18.06.24.12.24.18s-.12.18-.42.3v5.46l.06.96-.06.24a2.377,2.377,0,0,1-.9.12.574.574,0,0,1-.42-.12v-.18c.06-1.38.06-2.52.06-3.3v-2.7a5.3,5.3,0,0,0-.48.66,6.237,6.237,0,0,1-.9.9l-.12-.06c.3-.54.6-1.08.78-1.5.3-.6.54-1.26.84-2.04a21.055,21.055,0,0,0,.6-2.1l.06-.6c.78.18,1.38.3,1.74.36.18.06.24.12.24.18s-.06.12-.18.18c-.06.06-.18.06-.36.12a13.221,13.221,0,0,1-.84,1.8C466,124.561,465.82,124.921,465.7,125.1Zm4.98,6.54h1.74l.9-1.08,1.38,1.2.06.06c0,.06-.06.06-.12.06h-7.32l-.78.12-.06-.48.9.12h2.94l.06-.18c.36-1.2.66-2.46.96-3.78a13.165,13.165,0,0,0,.42-2.82,14.014,14.014,0,0,1,1.68.54c.18.06.3.12.3.18,0,.12-.18.18-.54.24-.42,1.14-.84,2.28-1.38,3.48l-1.08,2.16Zm-14.94-10.2.12-.12a11.41,11.41,0,0,1,1.26.66,1.286,1.286,0,0,1,.72.96,1.117,1.117,0,0,1-.24.66.833.833,0,0,1-.6.3.312.312,0,0,1-.24-.12c-.06-.06-.06-.24-.12-.42a7.151,7.151,0,0,0-.48-1.2A5.254,5.254,0,0,0,455.74,121.441Zm-2.64.18.06-.12c.54.24.96.48,1.32.66.54.3.84.6.84.9a1.247,1.247,0,0,1-.3.72.62.62,0,0,1-.48.24l-.3-.12-.12-.36-.48-1.14A4.622,4.622,0,0,0,453.1,121.621Zm3.3,6.3V126.3h-2.04v1.62Zm1.38-1.62v1.62H460V126.3Zm0-1.8v1.56H460V124.5Zm-1.38,1.56V124.5h-2.04v1.56Zm1.38,2.1v1.5h2.58l1.02-1.02,1.32,1.08.12.12c0,.06-.06.06-.18.06h-4.86v2.28a.312.312,0,0,1-.12.24,1.787,1.787,0,0,1-.84.12c-.18,0-.3,0-.36-.06l-.12-.24.06-.66V129.9h-3.42l-1.2.12-.06-.48a7.489,7.489,0,0,0,1.26.12h3.42v-1.5h-2.04v.48c0,.12,0,.18-.06.24a1.854,1.854,0,0,1-.78.12c-.24,0-.42,0-.48-.06l-.06-.24c.06-1.14.06-2.04.06-2.64,0-.96,0-1.8-.06-2.52a6.9,6.9,0,0,1,1.5.72h3.9l.54-1.08a5.22,5.22,0,0,0,.48-1.14,4.867,4.867,0,0,0,.18-.66,11.158,11.158,0,0,1,1.68.54c.18.06.24.12.24.18s-.06.12-.18.18c-.06.06-.18.06-.42.06a17.453,17.453,0,0,1-2.16,1.92h1.14l.66-.72,1.02.72c.12.12.18.18.18.24s-.12.18-.42.3v.66c0,.66,0,1.68.06,3a.641.641,0,0,1-.18.3,2.707,2.707,0,0,1-.78.06c-.18,0-.3,0-.36-.06l-.06-.24v-.36Z"/>
    <path d="M546.339,130.261l.06-.12a15.318,15.318,0,0,1,1.86.48,4.3,4.3,0,0,1,.66.42.8.8,0,0,1,.18.48l-.12.6c-.12.3-.3.42-.48.42a.306.306,0,0,1-.3-.24,3.117,3.117,0,0,0-.18-.3,5.7,5.7,0,0,0-1.68-1.74m-6.24-1.38v2.34h1.56v-2.34Zm7.26.48v-1.62h-2.34v1.62Zm0-1.86v-1.56h-2.34v1.56Zm0-1.8v-1.38h-2.34v1.38Zm-6.84-.72-.6.78.3.12.78.24c.18-.3.36-.66.6-1.14Zm.9,2.04a10.138,10.138,0,0,1-1.56,1.32l.06.06.3.18h1.44l.54-.54.78.78.12.24-.06.12-.18.06v2.58a1.649,1.649,0,0,1-.78.12c-.24,0-.36,0-.36-.06l-.06-.18v-.24H540.1v.48c0,.12,0,.18-.06.18-.06.12-.24.18-.66.18-.18,0-.36,0-.42-.06-.06,0-.12-.06-.12-.24a8.081,8.081,0,0,0,.06-1.32v-1.8a8.615,8.615,0,0,1-.96.42l-.12-.12a11.925,11.925,0,0,0,2.16-1.86c.18-.18.42-.48.72-.78l-.9-.6a9.18,9.18,0,0,1-1.8,1.5l-.12-.12a16.286,16.286,0,0,0,1.44-2.1,6.092,6.092,0,0,0,.66-1.8c.72.18,1.2.3,1.38.36q.18.09.18.18c0,.12-.18.18-.54.24-.12.24-.24.42-.3.54h.9l.54-.54.18.06a8.746,8.746,0,0,0,.24-1.02H539.2l.06.24a1.972,1.972,0,0,1-.24,1.02.841.841,0,0,1-.66.48.329.329,0,0,1-.36-.24.968.968,0,0,1-.18-.54l.12-.36a.641.641,0,0,1,.3-.18,1.7,1.7,0,0,0,.54-.6,2.238,2.238,0,0,0,.12-.72l.18-.06a4.482,4.482,0,0,0,.12.66h1.14v-.54a4.85,4.85,0,0,0-.06-.96c.78.06,1.32.12,1.5.12.18.06.24.12.24.18s-.06.12-.18.18c-.06,0-.12.06-.3.12v.9h.96l.54-.54.96.84.12.12-.06.12c.3.18.6.36.96.6h.36q.09-.63.18-1.44v-.18H544.3l-.78.06-.06-.42a2.781,2.781,0,0,0,.84.12h2.94l.84-.96,1.26,1.02.06.12c0,.06-.06.06-.12.06h-2.22a14.829,14.829,0,0,1-1.26,1.62h1.44l.66-.72.9.66q.18.09.18.18c0,.12-.12.24-.42.36v1.38c0,1.86,0,3.12.06,3.78a.22.22,0,0,1-.06.18,1.649,1.649,0,0,1-.78.12h-.36l-.06-.18v-.24h-2.34v.18c0,.12-.06.18-.18.24a3.85,3.85,0,0,0,.66.3,2.437,2.437,0,0,1,.66.36l.12.12c0,.06-.06.12-.24.18h-.36a7.041,7.041,0,0,1-1.5.9c-.54.24-1.14.48-1.86.72l-.12-.18a7.168,7.168,0,0,0,2.58-2.4h-.6c-.24,0-.36,0-.42-.06v-.18c.06-.9.06-1.8.06-2.7,0-1.98,0-3.12-.06-3.42v-.12h-.12a3.826,3.826,0,0,1-.84.6l-.36.24c.18.12.42.3.72.48.06.06.12.12.12.18s-.06.12-.18.18a1.056,1.056,0,0,0-.36.06,6.909,6.909,0,0,1-.84,1.2,4.584,4.584,0,0,1,.96.48,1.019,1.019,0,0,1,.36.36l.12.36a.956.956,0,0,1-.24.72l-.24.12a.322.322,0,0,1-.24-.18l-.18-.18A6.273,6.273,0,0,0,541.419,127.021Zm-7.38,1.2a10.119,10.119,0,0,1,1.62.66c.18.06.24.12.24.18,0,.12-.18.18-.6.18-.48.54-.9.96-1.2,1.26a8.37,8.37,0,0,1-1.32.96l-.12-.06a10.634,10.634,0,0,0,.9-1.86C533.739,129,533.919,128.581,534.039,128.221Zm-6.3.12.06-.06a4.547,4.547,0,0,1,.96.54,4.746,4.746,0,0,1,.96.84.968.968,0,0,1,.18.54,1.117,1.117,0,0,1-.24.66.945.945,0,0,1-.42.42.458.458,0,0,1-.3.12c-.12,0-.18-.06-.24-.24a4.081,4.081,0,0,1-.24-.78,4.979,4.979,0,0,0-.3-1.2C528.039,129,527.919,128.7,527.739,128.341Zm4.08-5.94c-.48.66-.96,1.2-1.38,1.68a12.735,12.735,0,0,1-4.5,2.94l-.06-.06a16.666,16.666,0,0,0,4.32-4.74l.36-.84c.78.18,1.38.36,1.74.48.18.06.24.12.24.18s-.06.12-.12.18h-.36l-.06.06c.36.42.72.72,1.02,1.02a6.8,6.8,0,0,0,2.4,1.38q.81.27,1.98.54v.06a1.929,1.929,0,0,0-.9,1.26c-.06.12-.06.18-.12.18a1.076,1.076,0,0,1-.48-.24,12.244,12.244,0,0,1-1.74-1.14,7.852,7.852,0,0,1-1.62-1.86Q532.269,123.121,531.819,122.4Zm.3,5.22h2.34l.9-1.02,1.32,1.08.12.12c0,.06-.06.06-.18.06h-4.5v3.9h2.64c.36-.42.72-.78,1.02-1.08l1.38,1.14v.12c0,.06-.06.06-.12.06h-10.02l-.72.06-.06-.42.78.12h3.78v-3.9h-3.48l-.66.06-.06-.42a2.238,2.238,0,0,0,.72.12h3.48v-1.8h-1.2l-.6.06-.06-.42.66.12H532l.84-1.02,1.2,1.08.06.12c0,.06-.06.06-.12.06h-1.86Z"/>
    <path d="M700.9,123.421h-1.98v1.8h.3c.54-.54,1.08-1.14,1.68-1.8m.18-.3.42-.54a3.46,3.46,0,0,0,.48-.84c.66.3,1.14.48,1.5.66.18.06.24.18.24.24s-.12.12-.3.12h-.36c-.66.78-1.14,1.26-1.44,1.56a6.364,6.364,0,0,1-.9.9h1.56l.96-1.02c.42.36.84.72,1.26,1.02a.186.186,0,0,1,.06.12.129.129,0,0,1-.12.12h-4.02a18.241,18.241,0,0,1-1.5,1.08c-.36.24-.66.42-.96.6v.18l-.06.12a14.752,14.752,0,0,0,2.04-.54,10.371,10.371,0,0,0,1.8-.6l.42-.24a6.229,6.229,0,0,0,.72.42c.3.24.54.36.6.42a.186.186,0,0,1,.06.12c0,.06-.06.12-.18.12a1.93,1.93,0,0,1-.48-.06,20.667,20.667,0,0,1-5.04.6,9.278,9.278,0,0,1-.24.9h3.9l.66-.66,1.02.72q.18.09.18.18t-.18.18a.977.977,0,0,1-.36.18q-.27,1.17-.36,1.62a2.419,2.419,0,0,1-.66,1.2,2.023,2.023,0,0,1-1.2.48h-.48l-.18-.06c-.06,0-.06-.06-.06-.18l-.12-.42a.874.874,0,0,0-.54-.36,14,14,0,0,0-1.5-.42l.06-.18a22.568,22.568,0,0,0,2.82.24.45.45,0,0,0,.3-.06,2.26,2.26,0,0,0,.36-.84,7.894,7.894,0,0,0,.3-1.38h-4.02l-.24.66c-.06.12-.06.18-.12.18l-.24.06a3.983,3.983,0,0,1-.78-.06c-.18-.06-.24-.12-.24-.18l.06-.18c.12-.36.24-.78.42-1.32l-.78.36c-.54.18-1.32.42-2.22.72l-.06-.18a24.616,24.616,0,0,0,3.3-1.8l.24-1.02c.36.12.66.24.84.3l1.2-.9h-4.56l-.78.06-.06-.42a3.541,3.541,0,0,0,.84.12h3.24v-1.8h-2.16l-.72.06-.12-.42a3.541,3.541,0,0,0,.84.12h2.16v-.48l-.06-1.26c.72.06,1.26.12,1.68.18.18.06.24.12.24.18s-.06.12-.18.18a2.36,2.36,0,0,0-.36.12v1.08h.48l.36-.48.36-.36C700.48,122.641,700.78,122.881,701.08,123.121Zm-17.28,8.76a16.432,16.432,0,0,0,.6-2.46,25.171,25.171,0,0,0,.24-4.08,7.65,7.65,0,0,0-.06-1.14l.72.36a4.8,4.8,0,0,1,.66.3h4.74l.72-.84c.42.3.78.6,1.14.9a.186.186,0,0,1,.06.12.129.129,0,0,1-.12.12h-6.66a18.653,18.653,0,0,1-.48,3.84,6.868,6.868,0,0,1-.9,2.16l-.54.78Zm3.72-8.88h1.26v-.24l.06-.3-.06-.84a14.562,14.562,0,0,1,1.5.18c.18,0,.24.06.24.18,0,.06-.12.18-.42.24V123h.54l.72-.84,1.08.9.12.12c0,.06-.06.06-.18.06H690.1v.96c0,.12-.06.18-.18.24a1.854,1.854,0,0,1-.78.12c-.18,0-.3-.06-.3-.12l-.06-.12v-1.08h-1.26v.96a.22.22,0,0,1-.06.18l-.12.12a2.472,2.472,0,0,1-.72.06c-.18,0-.3,0-.36-.06l-.06-.18a8.142,8.142,0,0,0,.06-1.08h-.78l-.84.06-.06-.42a3.631,3.631,0,0,0,.9.12h.78v-.12a7.3,7.3,0,0,0-.06-1.26,6.543,6.543,0,0,1,1.56.18q.18.09.18.18l-.12.18-.3.06Zm-4.26,2.28.54.06c.18.06.24.12.24.18s-.12.18-.36.24v6.36a.353.353,0,0,1-.12.3,1.787,1.787,0,0,1-.84.12.353.353,0,0,1-.3-.12v-.18c.06-.84.06-2.16.06-3.9v-1.98l-.42.54a9.37,9.37,0,0,1-.78.78l-.12-.06a15.321,15.321,0,0,0,1.5-3.42,8.81,8.81,0,0,0,.6-2.76c.84.18,1.38.3,1.68.36.12.06.18.12.18.24l-.12.12c-.06.06-.18.06-.36.06a21.573,21.573,0,0,1-.84,2.1C683.62,124.621,683.44,124.921,683.26,125.281Zm4.86,4.08v-1.38h-1.14v1.38Zm0-1.68v-1.32h-1.14v1.32Zm1.14-1.32v1.32h1.26v-1.32Zm0,1.62v1.38h1.26v-1.38Zm0,1.62v.72l.06.42v.42c.42.06.78.06,1.02.12a.159.159,0,0,0,.18-.18v-1.5Zm-1.14,0h-1.14v2.52a.22.22,0,0,1-.06.18c-.06.12-.36.18-.78.18-.18,0-.3,0-.36-.06l-.06-.18v-.48c.06-2.1.12-3.72.12-4.86v-1.38l1.14.6h3.42l.6-.6.96.66.12.18c0,.06-.12.18-.36.3v4.68a1.332,1.332,0,0,1-.06.54.879.879,0,0,1-.78.54l-.54.06c-.06,0-.12,0-.12-.06l-.06-.18a.976.976,0,0,0-.3-.66,2.789,2.789,0,0,0-.54-.18v.54a.22.22,0,0,1-.06.18c-.06.06-.24.06-.42.06l-.36.06c-.18,0-.24,0-.3-.06l-.06-.18Z"/>
  </g>
</svg>
