<svg id="print_estimate_4" xmlns="http://www.w3.org/2000/svg" width="842" height="595.22" viewBox="0 0 842 595.22">
  <style>text{font-family: IPA Mincho, IPAMincho, MS-PMincho, MS PMincho, IPA Gothic, IPAGothic;}</style>
  <rect x="16" y="15.61" width="810" height="564" style="fill: #fff"/>
  <path d="M483.04,78.91V76.09H470.8v2.82Zm0-3.42V72.91H470.8v2.58Zm-15.06-4.68,3.3,1.44H482.8l1.38-1.5,2.16,1.5a.875.875,0,0,1,.3.48c0,.12-.12.24-.3.36-.06.06-.3.18-.6.36,0,2.7.06,4.92.12,6.78,0,.24-.06.42-.18.48a4.07,4.07,0,0,1-1.98.3l-.42-.06a.551.551,0,0,1-.24-.36V79.51H470.8v.78c-.06.24-.12.36-.24.42a3.9,3.9,0,0,1-1.86.24c-.36,0-.6-.06-.66-.24-.06-.06-.06-.18-.06-.36.06-1.68.12-3.66.12-5.94C468.1,73.15,468.04,71.95,467.98,70.81Zm15.36-7.26V61.03h-5.46v2.52Zm0-3.18V58.03h-5.46v2.34Zm1.44,4.5H484a1.17,1.17,0,0,1-.48-.06.641.641,0,0,1-.18-.3v-.36h-5.46v2.28h5.4c.48-.54.9-.96,1.2-1.26Zm1.14-4.5h.84l1.5-1.62c.72.6,1.44,1.26,2.1,1.92.06.06.12.12.12.18,0,.12-.12.18-.3.18h-4.26c0,.84,0,1.92.06,3.18a.4.4,0,0,1-.24.42,1.312,1.312,0,0,1-.54.18l2.4,1.92a.22.22,0,0,1,.06.18c0,.12-.06.18-.24.18h-9.54v2.4h7.32l1.74-1.98,2.82,2.22.06.24q0,.18-.36.18H467.62a22.171,22.171,0,0,0-3.18.18l-.18-1.08a17.153,17.153,0,0,0,3.36.24h7.68v-2.4h-6.54a19.925,19.925,0,0,0-2.28.12l-.18-.96a14.24,14.24,0,0,0,2.46.18h6.54V64.15h-6.06a11.415,11.415,0,0,0-2.1.18l-.24-1.02a9.249,9.249,0,0,0,2.4.24h6V61.03h-8.52c-1.02,0-1.92.06-2.64.12l-.18-1.02a13.237,13.237,0,0,0,2.88.24h8.46V58.03h-5.64a8.767,8.767,0,0,0-2.04.18l-.24-1.08a9.5,9.5,0,0,0,2.28.3h5.64c0-.84-.06-1.68-.12-2.58,1.5.12,2.58.24,3.24.3.36.06.54.24.54.42,0,.06-.12.18-.3.3-.12.06-.36.12-.78.3v1.26h5.22l1.44-1.44,1.92,1.38c.18.18.3.3.3.42s-.06.24-.24.42a5.274,5.274,0,0,0-.6.3Zm-42.78,9.48.3-.18a11.788,11.788,0,0,1,2.4,2.88,3.351,3.351,0,0,1,.6,1.68,2.286,2.286,0,0,1-.42,1.32q-.45.9-1.08.9c-.18,0-.36-.12-.42-.42a2.727,2.727,0,0,1-.06-.84,20.394,20.394,0,0,0-.36-2.76,7.526,7.526,0,0,0-.48-1.62A4.459,4.459,0,0,0,443.14,69.85Zm-3.84-9.42a6.266,6.266,0,0,1,.84.6,2,2,0,0,1,.66,1.38,3.2,3.2,0,0,1-.3,1.2,3.882,3.882,0,0,1-.48.54.733.733,0,0,1-.54.24.563.563,0,0,1-.48-.36,4.55,4.55,0,0,1-.3-.84,13.031,13.031,0,0,0-1.14-2.46,17.331,17.331,0,0,0-1.26-1.68l.18-.24c.84.42,1.56.84,2.1,1.14a13.333,13.333,0,0,0,.78-1.86,30.761,30.761,0,0,0,1.02-3.3c1.38.42,2.4.72,3.12,1.02.3.12.48.24.48.36q0,.27-.36.36a8.335,8.335,0,0,1-.9.12A35.852,35.852,0,0,1,439.3,60.43Zm13.14,6.54V57.85h-2.88v9.12Zm0,10.92V67.57h-2.88V77.89Zm2.4-10.32V77.89h3.18V67.57Zm0-9.72v9.12h3.18V57.85Zm-5.28,20.64v1.44a.482.482,0,0,1-.36.54,8.028,8.028,0,0,1-1.56.12c-.3,0-.54-.06-.6-.18a.7.7,0,0,1-.12-.42c.06-1.92.12-3.72.18-5.46V64.33c0-2.46-.06-5.4-.12-8.7a32.546,32.546,0,0,1,2.88,1.56h7.86l1.5-1.56,1.98,1.56a.875.875,0,0,1,.3.48c0,.06-.12.18-.3.36a3.108,3.108,0,0,1-.66.42v4.44c0,5.58,0,9.12.06,10.62,0,1.56.06,3.6.12,6.06a.775.775,0,0,1-.12.48,4.169,4.169,0,0,1-1.86.3,1.17,1.17,0,0,1-.48-.06.551.551,0,0,1-.24-.36V78.49ZM438.88,66.91c.78-1.14,1.5-2.28,2.16-3.3a49.521,49.521,0,0,0,2.7-5.28c.72.3,1.62.66,2.64,1.14.3.12.42.24.42.36,0,.24-.36.36-1.08.42-2.88,3.48-4.8,5.7-5.76,6.6h.24c1.86-.12,3.24-.24,4.02-.36a14.792,14.792,0,0,0-1.02-2.52l.18-.18a19.306,19.306,0,0,1,2.7,2.58,2.379,2.379,0,0,1,.48,1.32,2.35,2.35,0,0,1-.54,1.56,1.028,1.028,0,0,1-.72.48.563.563,0,0,1-.48-.36,2.944,2.944,0,0,1-.18-.78c-.06-.36-.12-.78-.24-1.32a11.428,11.428,0,0,1-1.74.54v6l.06,2.34c0,1.74,0,3.06.06,3.96-.06.24-.12.42-.24.48a4.651,4.651,0,0,1-1.68.18c-.18,0-.36,0-.42-.06a.507.507,0,0,1-.12-.36c.06-1.86.06-4.02.12-6.42V71.77l-.9.18a25.291,25.291,0,0,1-3.36,7.86l-.36-.12a28.636,28.636,0,0,0,.78-2.82,33.573,33.573,0,0,0,.78-6.54c.66.18,1.2.3,1.5.36a12.936,12.936,0,0,1,1.56.48V68.35c-.42.12-.78.18-.96.24l-1.98.48a2.992,2.992,0,0,1-.18.72.548.548,0,0,1-.3.18c-.18,0-.3-.12-.36-.42-.18-.78-.42-1.62-.66-2.64h2.88Zm-22.98,4.8V65.05h-4.14v6.66Zm0-7.32V58.15h-4.14v6.24Zm-6.84-8.46,2.82,1.62h3.84a16.35,16.35,0,0,0,1.38-1.5l1.08.84.9.72c.18.18.3.3.3.42,0,.06-.06.18-.24.36-.06.06-.3.18-.66.42v4.92c0,4.98,0,8.22.06,9.84-.06.3-.18.54-.42.6a4.763,4.763,0,0,1-1.56.18l-.42-.06c-.12-.06-.18-.18-.24-.42V72.31h-4.14v2.04c-.06.36-.18.6-.42.66a9.625,9.625,0,0,1-1.68.12.507.507,0,0,1-.36-.12c-.12-.06-.18-.24-.24-.48.06-3.06.12-6.72.12-11.1v-1.2C409.18,60.01,409.12,57.91,409.06,55.93Zm20.64,7.86h-5.94a53.062,53.062,0,0,1-.36,5.94h6.3Zm-5.94-.6h5.94v-5.7h-5.88v1.38c0,.24,0,1.02-.06,2.4Zm5.94,7.14h-6.36a12.956,12.956,0,0,1-2.4,5.52,15.525,15.525,0,0,1-3.54,3.3,30.219,30.219,0,0,1-2.76,1.56l-.18-.3a23.2,23.2,0,0,0,2.28-1.92,13.685,13.685,0,0,0,3.84-7.14,33.435,33.435,0,0,0,.54-5.94c.06-1.32.06-2.88.06-4.68,0-1.68-.06-3.48-.18-5.46l3,1.62h5.52l.72-.72.66-.78,1.14.84,1.02.78a.894.894,0,0,1,.36.42c0,.18-.36.48-1.02.84V71.89l.06,1.62v3.9a5.252,5.252,0,0,1-.12,1.2,2.315,2.315,0,0,1-.66,1.02,3.558,3.558,0,0,1-1.74.72c-.42.06-.96.12-1.56.18a4.213,4.213,0,0,0-.36-1.14,2.627,2.627,0,0,0-1.2-1.08,10.894,10.894,0,0,0-2.52-.6v-.42c1.86.12,3.48.18,4.86.24h.12a.507.507,0,0,0,.36-.12c.06-.06.06-.18.06-.42Zm-45.96,2.04v5.64h3.36V72.37Zm-2.52-2.1,2.76,1.5h2.94l1.26-1.5c.66.54,1.32,1.02,1.92,1.5.18.18.3.3.3.36a.875.875,0,0,1-.3.48c-.06.06-.3.18-.6.42-.06,1.98-.06,3.36-.06,4.02l.06,1.74a.4.4,0,0,1-.3.42,3.83,3.83,0,0,1-1.62.24c-.18,0-.3,0-.36-.06a.353.353,0,0,1-.12-.3v-.48h-3.36v1.5a.775.775,0,0,1-.12.48,4.036,4.036,0,0,1-1.62.18c-.42,0-.6-.06-.66-.18-.06-.06-.06-.12-.06-.3.06-1.98.12-4.08.12-6.3A35.118,35.118,0,0,0,381.22,70.27Zm.18-1.56-.24-.96a18.177,18.177,0,0,0,2.16.24h3.48l1.56-1.8,2.4,1.98c.06.12.12.18.12.24,0,.12-.06.18-.24.18H383.5Zm-.12-3.6-.18-.96a10.352,10.352,0,0,0,2.16.18h3.66l1.56-1.74,2.4,1.98.12.24c0,.06-.12.12-.3.12h-7.44Zm-1.14-3.66-.24-1.02a12.2,12.2,0,0,0,2.7.24h4.86l1.68-1.98,2.64,2.1c.06.12.12.18.12.24,0,.18-.12.24-.36.24h-9A14.488,14.488,0,0,0,380.14,61.45Zm1.14-3.6-.24-1.02a7.327,7.327,0,0,0,2.22.24h3.6l1.62-1.86,2.46,2.04c.06.12.12.18.12.24,0,.18-.06.24-.24.24h-7.5C382.6,57.73,381.94,57.79,381.28,57.85Zm13.8,7.38h6.48v-7.5H395.2l-.06,1.08C395.14,62.35,395.14,64.51,395.08,65.23Zm2.7.6h-2.7c-.06,1.26-.18,2.34-.3,3.36a19.6,19.6,0,0,1-1.5,5.94,17.132,17.132,0,0,1-2.76,4.38c-.36.36-.84.78-1.44,1.32l-.3-.24a15.541,15.541,0,0,0,1.56-2.58,27.894,27.894,0,0,0,1.86-8.04c.18-1.98.24-4.5.24-7.5V57.43q-.09-.81-.18-1.98c1.08.54,2.16,1.08,3.18,1.68h5.94l1.38-1.62,2.16,1.62c.18.18.3.3.3.42,0,.18-.12.3-.3.48a3.108,3.108,0,0,1-.66.42v2.46c0,2.04.06,4.2.12,6.42,0,.3-.12.48-.3.54a4.474,4.474,0,0,1-1.74.24,1.2,1.2,0,0,1-.54-.12c-.12-.06-.18-.18-.24-.42V65.83h-3.18a14.69,14.69,0,0,0,2.04,5.88,11.991,11.991,0,0,0,3.96,4.02,8.358,8.358,0,0,0,2.34,1.02l-.06.36-.54.24-.3.3a6.489,6.489,0,0,0-1.38,2.64c-.66-.54-1.2-.96-1.56-1.32a10.824,10.824,0,0,1-1.2-1.44C399.34,74.47,398.08,70.57,397.78,65.83Zm-32.64-.96a23.862,23.862,0,0,1,5.16,3.06,3.613,3.613,0,0,1,1.5,1.74,2.408,2.408,0,0,1,.18.9,2.278,2.278,0,0,1-.6,1.74,1.042,1.042,0,0,1-.66.36c-.18,0-.3-.12-.42-.3a2.959,2.959,0,0,1-.66-1.08,21.354,21.354,0,0,0-4.62-5.94,12.433,12.433,0,0,1-3.24,5.04,16.926,16.926,0,0,1-3.06,2.34,14.126,14.126,0,0,1-1.38.84l-.18-.36a14.771,14.771,0,0,0,2.52-2.58,17.1,17.1,0,0,0,2.34-4.08,22.842,22.842,0,0,0,1.14-5.7h-6.48l.06,13.02c0,1.98,0,3.9.06,5.76a.864.864,0,0,1-.12.54,3.549,3.549,0,0,1-1.98.36.8.8,0,0,1-.6-.18q-.18-.09-.18-.54c0-.9.06-2.88.18-6V67.57c0-4.14,0-6.48-.06-7.08,0-.54-.06-1.2-.12-1.92q1.26.54,1.62.72a15.5,15.5,0,0,1,1.5.96h6.18c.06-1.2.12-2.22.12-3.12,0-.66,0-1.38-.06-2.16a18.328,18.328,0,0,1,3.78.54q.36.09.36.36c0,.18-.12.3-.36.42-.12.06-.42.12-.96.3-.06,1.32-.18,2.52-.24,3.66h6.9l1.38-1.68,1.14.84,1.08.78c.3.18.42.3.42.48s-.12.3-.36.48a2.894,2.894,0,0,1-.72.48v9.9c0,1.98,0,3.72.06,5.22v1.26a2.581,2.581,0,0,1-.36,1.2,3.085,3.085,0,0,1-1.56,1.02,7.725,7.725,0,0,1-2.28.36,4.646,4.646,0,0,0-.24-1.2,1.885,1.885,0,0,0-.66-.84,4.061,4.061,0,0,0-1.68-.66c-.42-.06-.96-.18-1.5-.3v-.36c1.5.06,3.12.18,4.86.3h.36a.363.363,0,0,0,.18-.36l.06-16.32H365.8A23.406,23.406,0,0,1,365.14,64.87Z"/>
  <g id="line1">
    <rect x="38.5" y="137.59" width="765.6" height="22.02" style="fill: #fff"/>
    <line x1="69.52" y1="159.339" x2="69.52" y2="137.319" style="fill: none;stroke: #000;stroke-linecap: round;stroke-linejoin: round;stroke-width: 0.059999998658895px"/>
    <line x1="804.1" y1="159.61" x2="38.08" y2="159.61" style="fill: none;stroke: #000;stroke-linecap: round;stroke-linejoin: round;stroke-width: 0.059999998658895px"/>
    <line x1="804.1" y1="137.729" x2="38.08" y2="137.729" style="fill: none;stroke: #000;stroke-linecap: round;stroke-linejoin: round;stroke-width: 0.059999998658895px"/>
    <line x1="804.1" y1="137.59" x2="804.1" y2="159.61" style="fill: none;stroke: #000;stroke-linecap: round;stroke-linejoin: round;stroke-width: 1.01999998092651px"/>
    <line x1="38.08" y1="159.61" x2="38.08" y2="137.59" style="fill: none;stroke: #000;stroke-linecap: round;stroke-linejoin: round;stroke-width: 1.01999998092651px"/>
    <line x1="513.34" y1="159.61" x2="513.34" y2="137.59" style="fill: none;stroke: #000;stroke-linecap: round;stroke-linejoin: round;stroke-width: 0.059999998658895px"/>
    <line x1="565.78" y1="159.61" x2="565.78" y2="137.59" style="fill: none;stroke: #000;stroke-linecap: round;stroke-linejoin: round;stroke-width: 0.059999998658895px"/>
    <line x1="631.24" y1="159.61" x2="631.24" y2="137.59" style="fill: none;stroke: #000;stroke-linecap: round;stroke-linejoin: round;stroke-width: 0.059999998658895px"/>
    <line x1="719.98" y1="159.61" x2="719.98" y2="137.59" style="fill: none;stroke: #000;stroke-linecap: round;stroke-linejoin: round;stroke-width: 0.059999998658895px"/>
    <text id="_line1-1_-中央" data-name="$line1-1$-中央" text-anchor="middle" transform="translate(54.391 152.281)" style="font-size: 10px;">$line1-1$</text>
    <text transform="translate(76.22 152.281)" style="font-size: 10px;">$line1-2$</text>
    <text id="_line1-3_-中央" data-name="$line1-3$-中央" text-anchor="middle" transform="translate(490.721 152.281)" style="font-size: 10px;">$line1-3$</text>
    <text id="_line1-4_-中央" data-name="$line1-4$-中央" text-anchor="middle" transform="translate(539.01 152.751)" style="font-size: 10px;">$line1-4$</text>
    <text id="_line1-5_右寄" data-name="$line1-5$－右寄" text-anchor="end" transform="translate(624.112 152.281)" style="font-size: 10px;">$line1-5$</text>
    <text id="_line1-6_右寄" data-name="$line1-6$－右寄" text-anchor="end" transform="translate(714.301 152.281)" style="font-size: 10px;">$line1-6$</text>
    <text id="_line1-7_" data-name="$line1-7$" transform="translate(724.026 152.281)" style="font-size: 10px;">$line1-7$</text>
    <line x1="468.7" y1="159.61" x2="468.7" y2="137.59" style="fill: none;stroke: #000;stroke-linecap: round;stroke-linejoin: round;stroke-width: 0.059999998658895px"/>
  </g>
  <g id="line2">
    <rect x="38.5" y="159.941" width="765.6" height="22.02" style="fill: #fff"/>
    <line x1="69.52" y1="181.69" x2="69.52" y2="159.67" style="fill: none;stroke: #000;stroke-linecap: round;stroke-linejoin: round;stroke-width: 0.059999998658895px"/>
    <line x1="804.1" y1="181.961" x2="38.08" y2="181.961" style="fill: none;stroke: #000;stroke-linecap: round;stroke-linejoin: round;stroke-width: 0.059999998658895px"/>
    <line x1="804.1" y1="160.08" x2="38.08" y2="160.08" style="fill: none;stroke: #000;stroke-linecap: round;stroke-linejoin: round;stroke-width: 0.059999998658895px"/>
    <line x1="804.1" y1="159.941" x2="804.1" y2="181.961" style="fill: none;stroke: #000;stroke-linecap: round;stroke-linejoin: round;stroke-width: 1.01999998092651px"/>
    <line x1="38.08" y1="181.961" x2="38.08" y2="159.941" style="fill: none;stroke: #000;stroke-linecap: round;stroke-linejoin: round;stroke-width: 1.01999998092651px"/>
    <line x1="513.34" y1="181.961" x2="513.34" y2="159.941" style="fill: none;stroke: #000;stroke-linecap: round;stroke-linejoin: round;stroke-width: 0.059999998658895px"/>
    <line x1="565.78" y1="181.961" x2="565.78" y2="159.941" style="fill: none;stroke: #000;stroke-linecap: round;stroke-linejoin: round;stroke-width: 0.059999998658895px"/>
    <line x1="631.24" y1="181.961" x2="631.24" y2="159.941" style="fill: none;stroke: #000;stroke-linecap: round;stroke-linejoin: round;stroke-width: 0.059999998658895px"/>
    <line x1="719.98" y1="181.961" x2="719.98" y2="159.941" style="fill: none;stroke: #000;stroke-linecap: round;stroke-linejoin: round;stroke-width: 0.059999998658895px"/>
    <line x1="468.7" y1="181.961" x2="468.7" y2="159.941" style="fill: none;stroke: #000;stroke-linecap: round;stroke-linejoin: round;stroke-width: 0.059999998658895px"/>
    <text id="_line2-1_-中央" data-name="$line2-1$-中央" text-anchor="middle" transform="translate(54.391 174.631)" style="font-size: 10px;">$line2-1$</text>
    <text id="_line2-2_" data-name="$line2-2$" transform="translate(83.88 174.631)" style="font-size: 10px;">$line2-2$</text>
    <text id="_line2-3_-中央" data-name="$line2-3$-中央" text-anchor="middle" transform="translate(490.721 174.631)" style="font-size: 10px;">$line2-3$</text>
    <text id="_line2-4_-中央" data-name="$line2-4$-中央" text-anchor="middle" transform="translate(539.01 175.101)" style="font-size: 10px;">$line2-4$</text>
    <text id="_line2-5_右寄" data-name="$line2-5$－右寄" text-anchor="end" transform="translate(624.112 174.631)" style="font-size: 10px;">$line2-5$</text>
    <text id="_line2-6_右寄" data-name="$line2-6$－右寄" text-anchor="end" transform="translate(714.301 174.631)" style="font-size: 10px;">$line2-6$</text>
    <text id="_line2-7_" data-name="$line2-7$" transform="translate(724.026 174.631)" style="font-size: 10px;">$line2-7$</text>
  </g>
  <g id="line3">
    <rect x="38.5" y="180.843" width="765.6" height="22.02" style="fill: #fff"/>
    <line x1="69.52" y1="202.592" x2="69.52" y2="180.572" style="fill: none;stroke: #000;stroke-linecap: round;stroke-linejoin: round;stroke-width: 0.059999998658895px"/>
    <line x1="804.1" y1="202.863" x2="38.08" y2="202.863" style="fill: none;stroke: #000;stroke-linecap: round;stroke-linejoin: round;stroke-width: 0.059999998658895px"/>
    <line x1="804.1" y1="180.982" x2="38.08" y2="180.982" style="fill: none;stroke: #000;stroke-linecap: round;stroke-linejoin: round;stroke-width: 0.059999998658895px"/>
    <line x1="804.1" y1="180.843" x2="804.1" y2="202.863" style="fill: none;stroke: #000;stroke-linecap: round;stroke-linejoin: round;stroke-width: 1.01999998092651px"/>
    <line x1="38.08" y1="202.863" x2="38.08" y2="180.843" style="fill: none;stroke: #000;stroke-linecap: round;stroke-linejoin: round;stroke-width: 1.01999998092651px"/>
    <line x1="513.34" y1="202.863" x2="513.34" y2="180.843" style="fill: none;stroke: #000;stroke-linecap: round;stroke-linejoin: round;stroke-width: 0.059999998658895px"/>
    <line x1="565.78" y1="202.863" x2="565.78" y2="180.843" style="fill: none;stroke: #000;stroke-linecap: round;stroke-linejoin: round;stroke-width: 0.059999998658895px"/>
    <line x1="631.24" y1="202.863" x2="631.24" y2="180.843" style="fill: none;stroke: #000;stroke-linecap: round;stroke-linejoin: round;stroke-width: 0.059999998658895px"/>
    <line x1="719.98" y1="202.863" x2="719.98" y2="180.843" style="fill: none;stroke: #000;stroke-linecap: round;stroke-linejoin: round;stroke-width: 0.059999998658895px"/>
    <line x1="468.7" y1="202.863" x2="468.7" y2="180.843" style="fill: none;stroke: #000;stroke-linecap: round;stroke-linejoin: round;stroke-width: 0.059999998658895px"/>
    <text id="_line3-1_-中央" data-name="$line3-1$-中央" text-anchor="middle" transform="translate(54.391 195.533)" style="font-size: 10px;">$line3-1$</text>
    <text id="_line3-2_" data-name="$line3-2$" transform="translate(95.201 195.533)" style="font-size: 10px;">$line3-2$</text>
    <text id="_line3-3_-中央" data-name="$line3-3$-中央" text-anchor="middle" transform="translate(490.721 195.533)" style="font-size: 10px;">$line3-3$</text>
    <text id="_line3-4_-中央" data-name="$line3-4$-中央" text-anchor="middle" transform="translate(539.01 196.003)" style="font-size: 10px;">$line3-4$</text>
    <text id="_line3-5_右寄" data-name="$line3-5$－右寄" text-anchor="end" transform="translate(624.112 195.533)" style="font-size: 10px;">$line3-5$</text>
    <text id="_line3-6_右寄" data-name="$line3-6$－右寄" text-anchor="end" transform="translate(714.301 195.533)" style="font-size: 10px;">$line3-6$</text>
    <text id="_line3-7_" data-name="$line3-7$" transform="translate(724.026 195.533)" style="font-size: 10px;">$line3-7$</text>
  </g>
  <g id="table-header">
    <path d="M468.7,137.53v0m44.64,0V115.57H38.08v21.96Zm117.9-21.96v21.96h88.74v0h84.06V115.57Zm-65.46,0v0h65.46v21.96H513.34V115.57Z" style="fill: #eee;fill-rule: evenodd"/>
    <path d="M491.38,125.77l-.06-.48a4.663,4.663,0,0,0,.96.12h8.16l.78-.9,1.2,1.02.06.06c0,.06-.06.06-.12.06H492.28a3.631,3.631,0,0,0-.9.12m8.04-1.38v-.96H494.2v.96Zm0-1.2v-.9H494.2v.9Zm-6.54-1.8,1.5.66h4.92l.66-.72,1.02.72c.06.06.12.12.12.18l-.12.18c-.06.06-.12.06-.3.12v.72l.06,1.56c0,.06-.06.12-.12.18a2.085,2.085,0,0,1-.78.06c-.24,0-.36,0-.42-.06v-.36H494.2v.24c0,.06,0,.12-.06.12a1.723,1.723,0,0,1-.72.12c-.3,0-.42-.06-.48-.12v-1.98C492.94,122.59,492.94,122.05,492.88,121.39Zm3.24,6.36v-1.08h-1.8v1.08Zm1.26-1.08v1.08h1.92v-1.08Zm-1.26,2.52v-1.14h-1.8v1.14Zm1.26-1.14v1.14h1.92v-1.14Zm0,2.4h2.16a8.55,8.55,0,0,1,.66-.72l-.54.06-.3-.06-.06-.12v-.18h-1.92Zm0,.24v1.08h2.82l.42-.48.42-.42,1.32,1.02.06.12c0,.06-.06.06-.12.06H492.28l-.9.06-.06-.42a4.85,4.85,0,0,0,.96.06h3.84v-1.08h-2.88l-.9.06-.06-.42.96.12h2.88v-1.02h-1.8v.24a.22.22,0,0,1-.06.18,1.723,1.723,0,0,1-.72.12h-.42l-.06-.18v-3.96l1.32.6h4.8l.66-.6a8.585,8.585,0,0,0,.9.66q.18.09.18.18c0,.06-.12.18-.36.3v2.52a.22.22,0,0,1-.06.18l-.12.06c.3.18.72.48,1.14.78v.12c0,.06,0,.06-.06.06Zm-13.32-8.88c.36.12.6.18.72.24.48.18.72.3.72.42a.129.129,0,0,1-.12.12c-.06.06-.12.06-.3.06a6.58,6.58,0,0,0-.6.48c-.3.24-.6.54-1.02.84l-.06-.06c.12-.3.24-.66.42-1.14Zm-4.26.12.06-.06a3.042,3.042,0,0,1,1.32.72.75.75,0,0,1,0,1.2.519.519,0,0,1-.36.18l-.18-.06c-.06-.06-.06-.12-.12-.3a4.653,4.653,0,0,0-.3-1.08A2.77,2.77,0,0,0,479.8,121.93Zm3.3,2.88a10.2,10.2,0,0,1,1.38.42.846.846,0,0,1,.48.72.77.77,0,0,1-.24.6.548.548,0,0,1-.3.18l-.12-.06a.841.841,0,0,1-.24-.42,3.22,3.22,0,0,0-.96-1.26v1.56c0,.12-.06.18-.18.24h-.96l-.06-.18a1.505,1.505,0,0,0,.06-.6v-.66a6.688,6.688,0,0,1-1.32,1.2,5.954,5.954,0,0,1-1.38.78l-.06-.12a8.392,8.392,0,0,0,2.22-2.88h-1.14l-.84.06-.06-.36a3.973,3.973,0,0,0,.9.06h1.68v-1.32a11.5,11.5,0,0,1-.06-1.2,11.3,11.3,0,0,1,1.38.18c.18.06.24.12.24.18l-.12.12-.3.12v1.92h1.02l.54-.66.9.78.06.06c0,.06-.06.06-.12.06h-2.4Zm2.88,1.02a7.808,7.808,0,0,0,1.14,2.7l.24-.54a12.762,12.762,0,0,0,.72-3.3h-1.44A5.174,5.174,0,0,1,485.98,125.83Zm-.12.3c-.3.42-.66.84-1.02,1.26l-.12-.12a16.283,16.283,0,0,0,1.2-3.54,15.825,15.825,0,0,0,.3-2.16,3.67,3.67,0,0,1,.84.18,5.336,5.336,0,0,1,1.08.3l.06.06q0,.09-.18.18a1.583,1.583,0,0,0-.42.06c-.12.36-.3.78-.48,1.32l-.36.78h1.74l.84-.96.6.54.66.48c.06.06,0,.12-.06.18h-1.08a17.708,17.708,0,0,1-.48,2.34,7.939,7.939,0,0,1-1.08,2.4,6.09,6.09,0,0,0,1.08.78,6.8,6.8,0,0,0,1.74.78v.06l-.3.12a1.853,1.853,0,0,0-.66.96c-.06.12-.06.18-.12.18a1.044,1.044,0,0,1-.42-.18,8.524,8.524,0,0,1-1.56-1.44l-.36-.48a7.745,7.745,0,0,1-1.26,1.2,5.393,5.393,0,0,1-1.44.72,9.7,9.7,0,0,1-1.2.48l-.06-.12a9.081,9.081,0,0,0,1.26-.84,7.473,7.473,0,0,0,1.56-1.5l.6-.9A8.257,8.257,0,0,1,485.86,126.13Zm-2.52,2.16h-1.26a5.244,5.244,0,0,0-.36.78,2.265,2.265,0,0,1-.3.48l.54.12a5.143,5.143,0,0,1,.78.18A7.71,7.71,0,0,0,483.34,128.29Zm1.26,0a7.179,7.179,0,0,0-.36,1.02l-.48.84.48.24a.585.585,0,0,1,.24.54l-.12.48c-.06.18-.18.3-.3.3-.06,0-.18-.06-.36-.24a1.7,1.7,0,0,0-.54-.6,5.611,5.611,0,0,1-1.14.84,6.577,6.577,0,0,1-2.64.84l-.06-.12a6.8,6.8,0,0,0,2.4-1.38,4.131,4.131,0,0,0,.66-.78,7.881,7.881,0,0,0-1.02-.54c-.06.12-.12.3-.24.54l-.12.12c-.06.06-.24.06-.42.06a1.775,1.775,0,0,1-.6-.12l-.06-.12v-.06l.18-.36c.24-.42.48-.9.78-1.5h-.6l-.84.06-.12-.42a3.76,3.76,0,0,0,.96.12H481a4.645,4.645,0,0,0,.48-1.14,2.5,2.5,0,0,1,.66.12,4.2,4.2,0,0,1,.78.12l.06.12q0,.09-.18.18c-.06.06-.12.06-.3.06l-.24.42v.12h1.5l.66-.78,1.08.84.06.12c0,.06-.06.06-.12.06Z"/>
    <path d="M543.4,125.05l.12-.06a16.581,16.581,0,0,1,1.56,2.46,4.945,4.945,0,0,1,.36,1.14,5.025,5.025,0,0,1,.12.6,1.785,1.785,0,0,1-.3.9,1.247,1.247,0,0,1-.66.6l-.18.06c-.12,0-.18-.06-.24-.24-.06-.06-.06-.24-.06-.54a16.86,16.86,0,0,0-.24-3,12.789,12.789,0,0,0-.48-1.92m3.3-.78h1.38l.84-1.08,1.32,1.08c.06.06.12.12.12.18s-.06.06-.18.06h-6.72l-.84.06-.06-.42a4.631,4.631,0,0,0,.9.12h1.92v-1.5l-.12-1.14a11.5,11.5,0,0,1,1.8.18q.18.09.18.18t-.18.18l-.36.12Zm-5.28.84.66.12c.18.06.24.12.24.18s-.12.18-.42.3v5.46l.06.96-.06.24a2.377,2.377,0,0,1-.9.12.574.574,0,0,1-.42-.12v-.18c.06-1.38.06-2.52.06-3.3v-2.7a5.3,5.3,0,0,0-.48.66,6.237,6.237,0,0,1-.9.9l-.12-.06c.3-.54.6-1.08.78-1.5.3-.6.54-1.26.84-2.04a21.055,21.055,0,0,0,.6-2.1l.06-.6c.78.18,1.38.3,1.74.36.18.06.24.12.24.18s-.06.12-.18.18c-.06.06-.18.06-.36.12a13.221,13.221,0,0,1-.84,1.8C541.719,124.57,541.539,124.93,541.419,125.11Zm4.98,6.54h1.74l.9-1.08,1.38,1.2.06.06c0,.06-.06.06-.12.06h-7.32l-.78.12-.06-.48.9.12h2.94l.06-.18c.36-1.2.66-2.46.96-3.78a13.165,13.165,0,0,0,.42-2.82,14.014,14.014,0,0,1,1.68.54c.18.06.3.12.3.18,0,.12-.18.18-.54.24-.42,1.14-.84,2.28-1.38,3.48l-1.08,2.16Zm-14.94-10.2.12-.12a11.41,11.41,0,0,1,1.26.66,1.286,1.286,0,0,1,.72.96,1.117,1.117,0,0,1-.24.66.833.833,0,0,1-.6.3.312.312,0,0,1-.24-.12c-.06-.06-.06-.24-.12-.42a7.151,7.151,0,0,0-.48-1.2A5.254,5.254,0,0,0,531.459,121.45Zm-2.64.18.06-.12c.54.24.96.48,1.32.66.54.3.84.6.84.9a1.247,1.247,0,0,1-.3.72.62.62,0,0,1-.48.24l-.3-.12-.12-.36-.48-1.14A4.622,4.622,0,0,0,528.819,121.63Zm3.3,6.3v-1.62h-2.04v1.62Zm1.38-1.62v1.62h2.22v-1.62Zm0-1.8v1.56h2.22v-1.56Zm-1.38,1.56v-1.56h-2.04v1.56Zm1.38,2.1v1.5h2.58l1.02-1.02,1.32,1.08.12.12c0,.06-.06.06-.18.06H533.5v2.28a.312.312,0,0,1-.12.24,1.787,1.787,0,0,1-.84.12c-.18,0-.3,0-.36-.06l-.12-.24.06-.66v-1.68H528.7l-1.2.12-.06-.48a7.489,7.489,0,0,0,1.26.12h3.42v-1.5h-2.04v.48c0,.12,0,.18-.06.24a1.854,1.854,0,0,1-.78.12c-.24,0-.42,0-.48-.06l-.06-.24c.06-1.14.06-2.04.06-2.64,0-.96,0-1.8-.06-2.52a6.9,6.9,0,0,1,1.5.72h3.9l.54-1.08a5.22,5.22,0,0,0,.48-1.14,4.867,4.867,0,0,0,.18-.66,11.158,11.158,0,0,1,1.68.54c.18.06.24.12.24.18s-.06.12-.18.18c-.06.06-.18.06-.42.06a17.453,17.453,0,0,1-2.16,1.92h1.14l.66-.72,1.02.72c.12.12.18.18.18.24s-.12.18-.42.3v.66c0,.66,0,1.68.06,3a.641.641,0,0,1-.18.3,2.707,2.707,0,0,1-.78.06c-.18,0-.3,0-.36-.06l-.06-.24v-.36Z"/>
    <path d="M684.28,130.27l.06-.12a15.318,15.318,0,0,1,1.86.48,4.3,4.3,0,0,1,.66.42.8.8,0,0,1,.18.48l-.12.6c-.12.3-.3.42-.48.42a.306.306,0,0,1-.3-.24,3.117,3.117,0,0,0-.18-.3,5.7,5.7,0,0,0-1.68-1.74m-6.24-1.38v2.34h1.56v-2.34Zm7.26.48v-1.62h-2.34v1.62Zm0-1.86v-1.56h-2.34v1.56Zm0-1.8v-1.38h-2.34v1.38Zm-6.84-.72-.6.78.3.12.78.24c.18-.3.36-.66.6-1.14Zm.9,2.04a10.138,10.138,0,0,1-1.56,1.32l.06.06.3.18h1.44l.54-.54.78.78.12.24-.06.12-.18.06v2.58a1.649,1.649,0,0,1-.78.12c-.24,0-.36,0-.36-.06l-.06-.18v-.24h-1.56v.48c0,.12,0,.18-.06.18-.06.12-.24.18-.66.18-.18,0-.36,0-.42-.06-.06,0-.12-.06-.12-.24a8.081,8.081,0,0,0,.06-1.32v-1.8a8.615,8.615,0,0,1-.96.42l-.12-.12a11.925,11.925,0,0,0,2.16-1.86c.18-.18.42-.48.72-.78l-.9-.6a9.18,9.18,0,0,1-1.8,1.5l-.12-.12a16.286,16.286,0,0,0,1.44-2.1,6.092,6.092,0,0,0,.66-1.8c.72.18,1.2.3,1.38.36q.18.09.18.18c0,.12-.18.18-.54.24-.12.24-.24.42-.3.54h.9l.54-.54.18.06a8.746,8.746,0,0,0,.24-1.02h-3.36l.06.24a1.972,1.972,0,0,1-.24,1.02.841.841,0,0,1-.66.48.329.329,0,0,1-.36-.24.968.968,0,0,1-.18-.54l.12-.36a.641.641,0,0,1,.3-.18,1.7,1.7,0,0,0,.54-.6,2.238,2.238,0,0,0,.12-.72l.18-.06a4.482,4.482,0,0,0,.12.66h1.14v-.54a4.85,4.85,0,0,0-.06-.96c.78.06,1.32.12,1.5.12.18.06.24.12.24.18s-.06.12-.18.18c-.06,0-.12.06-.3.12v.9h.96l.54-.54.96.84.12.12-.06.12c.3.18.6.36.96.6h.36q.09-.63.18-1.44v-.18h-1.26l-.78.06-.06-.42a2.781,2.781,0,0,0,.84.12h2.94l.84-.96,1.26,1.02.06.12c0,.06-.06.06-.12.06H685a14.829,14.829,0,0,1-1.26,1.62h1.44l.66-.72.9.66q.18.09.18.18c0,.12-.12.24-.42.36v1.38c0,1.86,0,3.12.06,3.78a.22.22,0,0,1-.06.18,1.649,1.649,0,0,1-.78.12h-.36l-.06-.18v-.24h-2.34v.18c0,.12-.06.18-.18.24a3.85,3.85,0,0,0,.66.3,2.437,2.437,0,0,1,.66.36l.12.12c0,.06-.06.12-.24.18h-.36a7.041,7.041,0,0,1-1.5.9c-.54.24-1.14.48-1.86.72l-.12-.18a7.168,7.168,0,0,0,2.58-2.4h-.6c-.24,0-.36,0-.42-.06v-.18c.06-.9.06-1.8.06-2.7,0-1.98,0-3.12-.06-3.42v-.12h-.12a3.826,3.826,0,0,1-.84.6l-.36.24c.18.12.42.3.72.48.06.06.12.12.12.18s-.06.12-.18.18a1.056,1.056,0,0,0-.36.06,6.909,6.909,0,0,1-.84,1.2,4.584,4.584,0,0,1,.96.48,1.019,1.019,0,0,1,.36.36l.12.36a.956.956,0,0,1-.24.72l-.24.12a.322.322,0,0,1-.24-.18l-.18-.18A6.273,6.273,0,0,0,679.36,127.03Zm-7.38,1.2a10.119,10.119,0,0,1,1.62.66c.18.06.24.12.24.18,0,.12-.18.18-.6.18-.48.54-.9.96-1.2,1.26a8.37,8.37,0,0,1-1.32.96l-.12-.06a10.634,10.634,0,0,0,.9-1.86C671.68,129.01,671.86,128.59,671.98,128.23Zm-6.3.12.06-.06a4.547,4.547,0,0,1,.96.54,4.746,4.746,0,0,1,.96.84.968.968,0,0,1,.18.54,1.117,1.117,0,0,1-.24.66.945.945,0,0,1-.42.42.458.458,0,0,1-.3.12c-.12,0-.18-.06-.24-.24a4.081,4.081,0,0,1-.24-.78,4.979,4.979,0,0,0-.3-1.2C665.98,129.01,665.86,128.71,665.68,128.35Zm4.08-5.94c-.48.66-.96,1.2-1.38,1.68a12.735,12.735,0,0,1-4.5,2.94l-.06-.06a16.666,16.666,0,0,0,4.32-4.74l.36-.84c.78.18,1.38.36,1.74.48.18.06.24.12.24.18s-.06.12-.12.18H670l-.06.06c.36.42.72.72,1.02,1.02a6.8,6.8,0,0,0,2.4,1.38q.81.27,1.98.54v.06a1.929,1.929,0,0,0-.9,1.26c-.06.12-.06.18-.12.18a1.076,1.076,0,0,1-.48-.24,12.244,12.244,0,0,1-1.74-1.14,7.852,7.852,0,0,1-1.62-1.86Q670.21,123.13,669.76,122.41Zm.3,5.22h2.34l.9-1.02,1.32,1.08.12.12c0,.06-.06.06-.18.06h-4.5v3.9h2.64c.36-.42.72-.78,1.02-1.08l1.38,1.14v.12c0,.06-.06.06-.12.06H664.96l-.72.06-.06-.42.78.12h3.78v-3.9h-3.48l-.66.06-.06-.42a2.238,2.238,0,0,0,.72.12h3.48v-1.8h-1.2l-.6.06-.06-.42.66.12h2.4l.84-1.02,1.2,1.08.06.12c0,.06-.06.06-.12.06h-1.86Z"/>
    <path d="M769.84,123.43h-1.98v1.8h.3c.54-.54,1.08-1.14,1.68-1.8m.18-.3.42-.54a3.46,3.46,0,0,0,.48-.84c.66.3,1.14.48,1.5.66.18.06.24.18.24.24s-.12.12-.3.12H772c-.66.78-1.14,1.26-1.44,1.56a6.364,6.364,0,0,1-.9.9h1.56l.96-1.02c.42.36.84.72,1.26,1.02a.186.186,0,0,1,.06.12.129.129,0,0,1-.12.12h-4.02a18.241,18.241,0,0,1-1.5,1.08c-.36.24-.66.42-.96.6v.18l-.06.12a14.752,14.752,0,0,0,2.04-.54,10.371,10.371,0,0,0,1.8-.6l.42-.24a6.229,6.229,0,0,0,.72.42c.3.24.54.36.6.42a.186.186,0,0,1,.06.12c0,.06-.06.12-.18.12a1.93,1.93,0,0,1-.48-.06,20.667,20.667,0,0,1-5.04.6,9.278,9.278,0,0,1-.24.9h3.9l.66-.66,1.02.72q.18.09.18.18t-.18.18a.977.977,0,0,1-.36.18q-.27,1.17-.36,1.62a2.419,2.419,0,0,1-.66,1.2,2.023,2.023,0,0,1-1.2.48h-.48l-.18-.06c-.06,0-.06-.06-.06-.18l-.12-.42a.874.874,0,0,0-.54-.36,14,14,0,0,0-1.5-.42l.06-.18a22.568,22.568,0,0,0,2.82.24.45.45,0,0,0,.3-.06,2.26,2.26,0,0,0,.36-.84,7.894,7.894,0,0,0,.3-1.38h-4.02l-.24.66c-.06.12-.06.18-.12.18l-.24.06a3.983,3.983,0,0,1-.78-.06c-.18-.06-.24-.12-.24-.18l.06-.18c.12-.36.24-.78.42-1.32l-.78.36c-.54.18-1.32.42-2.22.72l-.06-.18a24.616,24.616,0,0,0,3.3-1.8l.24-1.02c.36.12.66.24.84.3l1.2-.9H763.3l-.78.06-.06-.42a3.541,3.541,0,0,0,.84.12h3.24v-1.8h-2.16l-.72.06-.12-.42a3.541,3.541,0,0,0,.84.12h2.16v-.48l-.06-1.26c.72.06,1.26.12,1.68.18.18.06.24.12.24.18s-.06.12-.18.18a2.36,2.36,0,0,0-.36.12v1.08h.48l.36-.48.36-.36C769.42,122.65,769.72,122.89,770.02,123.13Zm-17.28,8.76a16.432,16.432,0,0,0,.6-2.46,25.171,25.171,0,0,0,.24-4.08,7.65,7.65,0,0,0-.06-1.14l.72.36a4.8,4.8,0,0,1,.66.3h4.74l.72-.84c.42.3.78.6,1.14.9a.186.186,0,0,1,.06.12.129.129,0,0,1-.12.12h-6.66a18.653,18.653,0,0,1-.48,3.84,6.868,6.868,0,0,1-.9,2.16l-.54.78Zm3.72-8.88h1.26v-.24l.06-.3-.06-.84a14.562,14.562,0,0,1,1.5.18c.18,0,.24.06.24.18,0,.06-.12.18-.42.24v.78h.54l.72-.84,1.08.9.12.12c0,.06-.06.06-.18.06h-2.28v.96c0,.12-.06.18-.18.24a1.854,1.854,0,0,1-.78.12c-.18,0-.3-.06-.3-.12l-.06-.12v-1.08h-1.26v.96a.22.22,0,0,1-.06.18l-.12.12a2.472,2.472,0,0,1-.72.06c-.18,0-.3,0-.36-.06l-.06-.18a8.142,8.142,0,0,0,.06-1.08h-.78l-.84.06-.06-.42a3.631,3.631,0,0,0,.9.12h.78v-.12a7.3,7.3,0,0,0-.06-1.26,6.543,6.543,0,0,1,1.56.18q.18.09.18.18l-.12.18-.3.06Zm-4.26,2.28.54.06c.18.06.24.12.24.18s-.12.18-.36.24v6.36a.353.353,0,0,1-.12.3,1.787,1.787,0,0,1-.84.12.353.353,0,0,1-.3-.12v-.18c.06-.84.06-2.16.06-3.9v-1.98l-.42.54a9.37,9.37,0,0,1-.78.78l-.12-.06a15.321,15.321,0,0,0,1.5-3.42,8.81,8.81,0,0,0,.6-2.76c.84.18,1.38.3,1.68.36.12.06.18.12.18.24l-.12.12c-.06.06-.18.06-.36.06a21.573,21.573,0,0,1-.84,2.1C752.56,124.63,752.38,124.93,752.2,125.29Zm4.86,4.08v-1.38h-1.14v1.38Zm0-1.68v-1.32h-1.14v1.32Zm1.14-1.32v1.32h1.26v-1.32Zm0,1.62v1.38h1.26v-1.38Zm0,1.62v.72l.06.42v.42c.42.06.78.06,1.02.12a.159.159,0,0,0,.18-.18v-1.5Zm-1.14,0h-1.14v2.52a.22.22,0,0,1-.06.18c-.06.12-.36.18-.78.18-.18,0-.3,0-.36-.06l-.06-.18v-.48c.06-2.1.12-3.72.12-4.86v-1.38l1.14.6h3.42l.6-.6.96.66.12.18c0,.06-.12.18-.36.3v4.68a1.332,1.332,0,0,1-.06.54.879.879,0,0,1-.78.54l-.54.06c-.06,0-.12,0-.12-.06l-.06-.18a.976.976,0,0,0-.3-.66,2.789,2.789,0,0,0-.54-.18v.54a.22.22,0,0,1-.06.18c-.06.06-.24.06-.42.06l-.36.06c-.18,0-.24,0-.3-.06l-.06-.18Z"/>
    <path d="M604.84,122.89v2.28h.84v-2.28Zm-1.2,8.4v-5.88h-.78v5.88Zm2.04,0v-5.88h-.84v5.88Zm2.04,0v-5.88h-.9v5.88Zm-6.18-8.76a4.758,4.758,0,0,0,1.02.12h4.92l.48-.6.36-.42,1.38,1.02a.22.22,0,0,1,.06.18c0,.06-.06.06-.18.06h-2.76v2.28h.78l.3-.36.36-.36.96.72c.06.06.12.12.12.18l-.12.18-.24.18v6.48a1.328,1.328,0,0,1-.84.18c-.18,0-.3,0-.36-.06l-.06-.18v-.6h-4.86v.48c0,.12,0,.18-.06.24a1.328,1.328,0,0,1-.84.18c-.18,0-.24,0-.3-.06l-.06-.18c.06-1.5.06-3.3.06-5.28,0-.96,0-1.8-.06-2.52l1.38.78h.66v-2.28h-1.08l-.96.06-.06-.36a12.843,12.843,0,0,1-.72,1.68,4.547,4.547,0,0,1-.54.96,1.93,1.93,0,0,1,.48.06c.18.06.24.06.3.12l.12.12c0,.06-.12.18-.36.3v6.24c0,.12,0,.18-.06.24a1.424,1.424,0,0,1-.9.18.507.507,0,0,1-.36-.12.464.464,0,0,0-.06-.18c.06-1.98.12-3.3.12-3.84v-2.04l-.42.54a10.005,10.005,0,0,1-.84.9l-.12-.12a26.481,26.481,0,0,0,1.44-3.24,14.905,14.905,0,0,0,.66-2.94,4.178,4.178,0,0,0,.84.18,7.61,7.61,0,0,1,.9.24l.12.18q0,.09-.18.18h-.3Zm-10.98-1.08.12-.12a11.41,11.41,0,0,1,1.26.66,1.286,1.286,0,0,1,.72.96,1.117,1.117,0,0,1-.24.66.833.833,0,0,1-.6.3.312.312,0,0,1-.24-.12c-.06-.06-.06-.24-.12-.42a7.151,7.151,0,0,0-.48-1.2A5.254,5.254,0,0,0,590.56,121.45Zm-2.64.18.06-.12c.54.24.96.48,1.32.66.54.3.84.6.84.9a1.247,1.247,0,0,1-.3.72.62.62,0,0,1-.48.24l-.3-.12-.12-.36-.48-1.14A4.622,4.622,0,0,0,587.92,121.63Zm3.3,6.3v-1.62h-2.04v1.62Zm1.38-1.62v1.62h2.22v-1.62Zm0-1.8v1.56h2.22v-1.56Zm-1.38,1.56v-1.56h-2.04v1.56Zm1.38,2.1v1.5h2.58l1.02-1.02,1.32,1.08.12.12c0,.06-.06.06-.18.06H592.6v2.28a.312.312,0,0,1-.12.24,1.787,1.787,0,0,1-.84.12c-.18,0-.3,0-.36-.06l-.12-.24.06-.66v-1.68H587.8l-1.2.12-.06-.48a7.489,7.489,0,0,0,1.26.12h3.42v-1.5h-2.04v.48c0,.12,0,.18-.06.24a1.854,1.854,0,0,1-.78.12c-.24,0-.42,0-.48-.06l-.06-.24c.06-1.14.06-2.04.06-2.64,0-.96,0-1.8-.06-2.52a6.9,6.9,0,0,1,1.5.72h3.9l.54-1.08a5.22,5.22,0,0,0,.48-1.14,4.867,4.867,0,0,0,.18-.66,11.158,11.158,0,0,1,1.68.54c.18.06.24.12.24.18s-.06.12-.18.18c-.06.06-.18.06-.42.06a17.453,17.453,0,0,1-2.16,1.92h1.14l.66-.72,1.02.72c.12.12.18.18.18.24s-.12.18-.42.3v.66c0,.66,0,1.68.06,3a.641.641,0,0,1-.18.3,2.707,2.707,0,0,1-.78.06c-.18,0-.3,0-.36-.06l-.06-.24v-.36Z"/>
    <path d="M256.72,127.81l.12-.12q1.44,1.17,1.44,1.98a1.153,1.153,0,0,1-.24.72c-.18.18-.3.3-.48.3-.12,0-.18-.06-.24-.18v-.42c-.06-.48-.06-.9-.12-1.2l-.24-.72a3.554,3.554,0,0,1-.24-.36m-1.5-4.14.3.24a.833.833,0,0,1,.3.6.968.968,0,0,1-.18.54.468.468,0,0,1-.24.24l-.24.12c-.12,0-.18-.06-.24-.18a1.934,1.934,0,0,1-.12-.36,5.072,5.072,0,0,0-1.02-1.8l.12-.06.9.42a11.406,11.406,0,0,0,.72-2.16c.66.24,1.2.42,1.56.54q.18.09.18.18c0,.06-.06.12-.18.12-.06.06-.18.06-.36.06C256.18,122.71,255.7,123.25,255.22,123.67Zm5.52,2.88v-3.96h-1.02v3.96Zm0,4.68v-4.44h-1.02v4.44Zm1.2-4.44v4.44h1.14v-4.44Zm0-4.2v3.96h1.14v-3.96Zm-7.02,3.84.06-.12a18.414,18.414,0,0,0,2.04-3.54c.6.3,1.02.48,1.26.6l.18.12v-.9a6.937,6.937,0,0,1-.06-1.02c.42.18.66.3.78.36s.36.24.66.42h3.06l.72-.78.96.78q.18.09.18.18t-.18.18a.641.641,0,0,1-.3.18v2.64c0,1.98,0,3.24.06,3.84,0,.66,0,1.5.06,2.58a.22.22,0,0,1-.06.18c-.06.12-.36.18-.78.18-.24,0-.36,0-.42-.06l-.06-.18v-.6h-3.36v.54c0,.12,0,.18-.06.24a1.466,1.466,0,0,1-.78.12c-.24,0-.36,0-.42-.06l-.06-.18v-.06c.06-.84.06-1.62.06-2.34v-6.12l-.12.06c-.06.06-.18.06-.36.06-.54.66-1.2,1.38-1.92,2.1l-.66.6c.78-.06,1.38-.06,1.8-.12l-.12-.42c-.06-.18-.18-.36-.3-.66l.06-.06c.42.3.72.54.96.72a1.347,1.347,0,0,1,.48.9,2.157,2.157,0,0,1-.12.66l-.24.18-.24.12a.322.322,0,0,1-.24-.18c-.06-.06-.06-.18-.06-.36a2.067,2.067,0,0,0-.06-.54l-.66.24v3.54a13.644,13.644,0,0,0,.06,1.74c0,.12-.06.18-.18.24a1.866,1.866,0,0,1-.66.06c-.18,0-.3,0-.36-.06v-3.72l-.18.06a9.941,9.941,0,0,1-1.56,3.3l-.18-.06c.18-.66.36-1.44.54-2.4a9.437,9.437,0,0,0,.18-1.62,10.018,10.018,0,0,1,1.2.36v-1.14l-.36.06-.78.24c-.06.3-.18.42-.24.42s-.12-.06-.12-.18a12.026,12.026,0,0,1-.3-1.32,2.251,2.251,0,0,0,.6.06A2.755,2.755,0,0,0,254.92,126.43Zm-9.9,2.34v-3.06h-1.56v3.06Zm0-3.3v-2.7h-1.56v2.7Zm-2.88-3.72a3.545,3.545,0,0,1,.72.36l.72.36h1.38l.6-.72,1.02.78.12.18c0,.06-.12.18-.42.36v2.1c0,2.22,0,3.72.06,4.38a.22.22,0,0,1-.06.18,1.649,1.649,0,0,1-.78.12h-.42l-.06-.18v-.66h-1.56v1.02c-.06.12-.36.18-.84.18-.24,0-.36,0-.42-.06l-.06-.18v-.06c.06-1.5.06-3.06.06-4.68C242.2,123.73,242.2,122.53,242.14,121.75Zm8.82,3.42h-2.28a24.58,24.58,0,0,1-.12,2.58h2.4Zm-2.28-.24h2.28v-2.46h-2.22v1.26A9.817,9.817,0,0,0,248.68,124.93Zm2.28,3.06H248.5a6.483,6.483,0,0,1-.3,1.26,6.2,6.2,0,0,1-3.48,3.24l-.12-.12a7.659,7.659,0,0,0,1.2-1.08,5.9,5.9,0,0,0,1.38-3.18,29.765,29.765,0,0,0,.18-3.96c0-1.02,0-1.92-.06-2.7l1.56.78h2.04l.66-.72,1.02.72.12.24c0,.06-.12.18-.42.36v6.36c.06.78.06,1.38.06,1.8a1.17,1.17,0,0,1-.06.48.92.92,0,0,1-.42.6,2.854,2.854,0,0,1-1.08.3l-.24.06c-.06,0-.12,0-.12-.06-.06-.06-.06-.12-.12-.3a.62.62,0,0,0-.24-.48,4,4,0,0,0-.72-.36,2.373,2.373,0,0,0-.78-.18l.06-.18c.84.06,1.56.06,2.1.12h.18c.06-.06.06-.12.06-.24Z"/>
    <line x1="565.78" y1="115.57" x2="565.78" y2="137.53" style="fill: none;stroke: #000;stroke-linecap: round;stroke-linejoin: round;stroke-width: 0.059999998658895px"/>
    <line x1="631.24" y1="137.53" x2="631.24" y2="115.57" style="fill: none;stroke: #000;stroke-linecap: round;stroke-linejoin: round;stroke-width: 0.059999998658895px"/>
    <line x1="513.34" y1="115.57" x2="513.34" y2="137.53" style="fill: none;stroke: #000;stroke-linecap: round;stroke-linejoin: round;stroke-width: 0.059999998658895px"/>
    <line x1="468.701" y1="137.53" x2="468.701" y2="115.57" style="fill: none;stroke: #000;stroke-linecap: round;stroke-linejoin: round;stroke-width: 0.059999998658895px"/>
    <line x1="719.981" y1="115.57" x2="719.981" y2="137.53" style="fill: none;stroke: #000;stroke-linecap: round;stroke-linejoin: round;stroke-width: 0.059999998658895px"/>
    <rect x="38.08" y="115.57" width="765.96" height="21.96" style="fill: none;stroke: #000;stroke-miterlimit: 10;stroke-width: 1.02px"/>
  </g>
  <g id="subtotal">
    <polygon points="582.28 202.863 493.24 202.863 433.48 202.863 381.46 202.863 69.52 202.863 38.08 202.863 38.08 224.823 493.24 224.823 804.04 224.823 804.04 202.863 582.28 202.863" style="fill: #eee"/>
    <line x1="720.04" y1="202.863" x2="720.04" y2="224.823" style="fill: none;stroke: #000;stroke-linecap: round;stroke-linejoin: round;stroke-width: 0.059999998658895px"/>
    <line x1="631.24" y1="202.863" x2="631.24" y2="224.823" style="fill: none;stroke: #000;stroke-linecap: round;stroke-linejoin: round;stroke-width: 0.059999998658895px"/>
    <line x1="468.88" y1="224.823" x2="468.88" y2="202.863" style="fill: none;stroke: #000;stroke-linecap: round;stroke-linejoin: round;stroke-width: 0.059999998658895px"/>
    <line x1="202.72" y1="202.863" x2="202.72" y2="224.823" style="fill: none;stroke: #000;stroke-linecap: round;stroke-linejoin: round;stroke-width: 0.059999998658895px"/>
    <rect x="38.08" y="202.863" width="765.96" height="21.96" style="fill: none;stroke: #000;stroke-linecap: round;stroke-linejoin: round;stroke-width: 1.02px"/>
    <path d="M337.9,215.7v2.64h1.38V215.7Zm-1.32-.96a6.9,6.9,0,0,1,1.5.72h1.14l.66-.72.96.72c.06.06.12.12.12.18,0,.12-.12.24-.42.42l.06,2.88a.312.312,0,0,1-.12.24,1.723,1.723,0,0,1-.72.12c-.18,0-.36,0-.42-.06l-.06-.18v-.48H337.9v.48c0,.12,0,.18-.06.24a1.723,1.723,0,0,1-.72.12c-.18,0-.36,0-.42-.06l-.06-.24v-2.4Zm.06-.6-.12-.36.84.06h1.56a10.43,10.43,0,0,0,.78-.9l1.2.96.06.12c0,.06-.06.06-.18.06h-3.42Zm-.06-1.56-.06-.42c.18.06.48.06.84.12h1.56l.78-.84,1.14.9.06.12c0,.06-.06.06-.12.06h-3.42Zm-.42-1.5-.06-.42.9.06h2.4a10.43,10.43,0,0,0,.78-.9l1.26.96a.186.186,0,0,1,.06.12.129.129,0,0,1-.12.12h-4.44Zm.48-1.62-.12-.36a3.69,3.69,0,0,0,.84.06h1.62l.84-.9,1.26.96.06.12c0,.06-.06.06-.12.06h-3.66Zm7.86,3.12h.72l.9-1.08,1.26,1.08a.22.22,0,0,1,.06.18c0,.06-.06.06-.12.06H344.5v.36c0,2.58,0,4.5.06,5.82a.353.353,0,0,1-.12.3,2.225,2.225,0,0,1-.84.12c-.24,0-.42,0-.48-.06l-.06-.24c.06-1.62.06-3.42.06-5.34v-.96h-1.26l-.78.06-.12-.42.9.12h1.26v-3.06a5.173,5.173,0,0,0-.06-1.02c.66.06,1.26.12,1.68.18.18,0,.3.06.3.18q0,.09-.18.18l-.36.12Zm-18.42-1.38a12.051,12.051,0,0,1,1.74.48c.18.06.3.12.3.18s-.06.12-.18.18c-.06.06-.24.06-.42.12a11.876,11.876,0,0,1-3.48,5.04l-.12-.06a14.021,14.021,0,0,0,1.62-3.54A8.42,8.42,0,0,0,326.08,211.2Zm5.46.06a19.945,19.945,0,0,1,2.52,2.4,3.4,3.4,0,0,1,.72,1.26,1.752,1.752,0,0,1,.12.54,1.693,1.693,0,0,1-.24.9,1.306,1.306,0,0,1-.3.48.8.8,0,0,1-.42.18c-.12,0-.18-.06-.24-.18a.947.947,0,0,1-.18-.48,12.174,12.174,0,0,0-.48-1.68,13.009,13.009,0,0,0-1.62-3.3Zm-2.7-2.76a17.366,17.366,0,0,1,1.74.24c.18.06.3.12.3.18a.322.322,0,0,1-.18.24,2.36,2.36,0,0,0-.36.12v7.74l.06.84a6.227,6.227,0,0,1-.18.72,2.031,2.031,0,0,1-1.38.72h-.42c-.06,0-.12,0-.12-.06l-.06-.12a.632.632,0,0,0-.24-.6.933.933,0,0,0-.48-.36c-.3-.06-.78-.24-1.5-.42l.06-.12c1.14.06,2.04.12,2.64.12h.18a.22.22,0,0,0,.06-.18v-7.68C328.96,209.523,328.9,209.043,328.84,208.5Z"/>
    <text id="_sub-total_右寄" data-name="$sub-total$－右寄" text-anchor="end" transform="translate(714.301 217.263)" style="font-size: 10px;">$subtotal$</text>
    <text transform="translate(724.026 217.263)" style="font-size: 10px;">$subtotal-note$</text>
  </g>
  <g id="intermediate">
    <polygon points="582.28 224.853 493.24 224.853 433.48 224.853 381.46 224.853 69.52 224.853 38.08 224.853 38.08 246.813 493.24 246.813 804.04 246.813 804.04 224.853 582.28 224.853" style="fill: #eee"/>
    <line x1="720.04" y1="224.853" x2="720.04" y2="246.813" style="fill: none;stroke: #000;stroke-linecap: round;stroke-linejoin: round;stroke-width: 0.059999998658895px"/>
    <line x1="631.24" y1="224.853" x2="631.24" y2="246.813" style="fill: none;stroke: #000;stroke-linecap: round;stroke-linejoin: round;stroke-width: 0.059999998658895px"/>
    <line x1="468.88" y1="246.813" x2="468.88" y2="224.853" style="fill: none;stroke: #000;stroke-linecap: round;stroke-linejoin: round;stroke-width: 0.059999998658895px"/>
    <line x1="202.72" y1="224.853" x2="202.72" y2="246.813" style="fill: none;stroke: #000;stroke-linecap: round;stroke-linejoin: round;stroke-width: 0.059999998658895px"/>
    <rect x="38.08" y="224.853" width="765.96" height="21.96" style="fill: none;stroke: #000;stroke-linecap: round;stroke-linejoin: round;stroke-width: 1.02px"/>
    <path d="M337.9,237.693v2.64h1.38v-2.64Zm-1.32-.96a6.9,6.9,0,0,1,1.5.72h1.14l.66-.72.96.72c.06.06.12.12.12.18,0,.12-.12.24-.42.42l.06,2.88a.312.312,0,0,1-.12.24,1.723,1.723,0,0,1-.72.12c-.18,0-.36,0-.42-.06l-.06-.18v-.48H337.9v.48c0,.12,0,.18-.06.24a1.723,1.723,0,0,1-.72.12c-.18,0-.36,0-.42-.06l-.06-.24v-2.4Zm.06-.6-.12-.36.84.06h1.56a10.43,10.43,0,0,0,.78-.9l1.2.96.06.12c0,.06-.06.06-.18.06h-3.42Zm-.06-1.56-.06-.42c.18.06.48.06.84.12h1.56l.78-.84,1.14.9.06.12c0,.06-.06.06-.12.06h-3.42Zm-.42-1.5-.06-.42.9.06h2.4a10.43,10.43,0,0,0,.78-.9l1.26.96a.186.186,0,0,1,.06.12.129.129,0,0,1-.12.12h-4.44Zm.48-1.62-.12-.36a3.69,3.69,0,0,0,.84.06h1.62l.84-.9,1.26.96.06.12c0,.06-.06.06-.12.06h-3.66Zm7.86,3.12h.72l.9-1.08,1.26,1.08a.22.22,0,0,1,.06.18c0,.06-.06.06-.12.06H344.5v.36c0,2.58,0,4.5.06,5.82a.353.353,0,0,1-.12.3,2.225,2.225,0,0,1-.84.12c-.24,0-.42,0-.48-.06l-.06-.24c.06-1.62.06-3.42.06-5.34v-.96h-1.26l-.78.06-.12-.42.9.12h1.26v-3.06a5.173,5.173,0,0,0-.06-1.02c.66.06,1.26.12,1.68.18.18,0,.3.06.3.18q0,.09-.18.18l-.36.12Zm-15.66,2.16v-3.36h-2.58v3.36Zm4.2,0v-3.36h-2.82v2.04l.06,1.32Zm0,.3h-2.76v4.02c0,.12,0,.18-.06.24a1.787,1.787,0,0,1-.84.12h-.48a.353.353,0,0,1-.12-.3c.06-1.14.06-2.4.06-3.78v-.3h-2.58v.6a.353.353,0,0,1-.12.3,2.285,2.285,0,0,1-.78.06c-.18,0-.36,0-.42-.06-.06,0-.12-.06-.12-.24.06-1.44.06-2.46.06-3.12,0-.9,0-1.62-.06-2.28.42.18.72.36.84.42a5.185,5.185,0,0,1,.84.42h2.34v-1.86a4.251,4.251,0,0,0-.06-.84c.84.06,1.44.06,1.74.12.18.06.24.12.24.18s-.06.12-.12.18a1.434,1.434,0,0,1-.42.18v2.04h2.64l.78-.78c.36.24.66.48.96.66.18.12.24.24.24.3l-.12.18-.3.18c0,1.38,0,2.7.06,3.96a.312.312,0,0,1-.12.24,2.225,2.225,0,0,1-.84.12c-.18,0-.3,0-.36-.06-.06,0-.12-.06-.12-.24Z"/>
    <text id="_intermediate_右寄" data-name="$intermediate$－右寄" text-anchor="end" transform="translate(714.301 239.253)" style="font-size: 10px;">$intermediate$</text>
    <text id="_intermediate-note_" data-name="$intermediate-note$" transform="translate(724.026 239.253)" style="font-size: 10px;">$intermediate-note$</text>
  </g>
  <g id="total">
    <polygon points="582.28 246.843 493.24 246.843 433.48 246.843 381.46 246.843 69.52 246.843 38.08 246.843 38.08 268.803 493.24 268.803 804.04 268.803 804.04 246.843 582.28 246.843" style="fill: #eee"/>
    <line x1="720.04" y1="246.843" x2="720.04" y2="268.803" style="fill: none;stroke: #000;stroke-linecap: round;stroke-linejoin: round;stroke-width: 0.059999998658895px"/>
    <line x1="631.24" y1="246.843" x2="631.24" y2="268.803" style="fill: none;stroke: #000;stroke-linecap: round;stroke-linejoin: round;stroke-width: 0.059999998658895px"/>
    <line x1="468.88" y1="268.803" x2="468.88" y2="246.843" style="fill: none;stroke: #000;stroke-linecap: round;stroke-linejoin: round;stroke-width: 0.059999998658895px"/>
    <line x1="202.72" y1="246.843" x2="202.72" y2="268.803" style="fill: none;stroke: #000;stroke-linecap: round;stroke-linejoin: round;stroke-width: 0.059999998658895px"/>
    <rect x="38.08" y="246.843" width="765.96" height="21.96" style="fill: none;stroke: #000;stroke-linecap: round;stroke-linejoin: round;stroke-width: 1.02px"/>
    <path d="M337.9,259.442v2.64h1.38v-2.64Zm-1.32-.96a6.9,6.9,0,0,1,1.5.72h1.14l.66-.72.96.72c.06.06.12.12.12.18,0,.12-.12.24-.42.42l.06,2.88a.312.312,0,0,1-.12.24,1.723,1.723,0,0,1-.72.12c-.18,0-.36,0-.42-.06l-.06-.18v-.48H337.9v.48c0,.12,0,.18-.06.24a1.723,1.723,0,0,1-.72.12c-.18,0-.36,0-.42-.06l-.06-.24v-2.4Zm.06-.6-.12-.36.84.06h1.56a10.43,10.43,0,0,0,.78-.9l1.2.96.06.12c0,.06-.06.06-.18.06h-3.42Zm-.06-1.56-.06-.42c.18.06.48.06.84.12h1.56l.78-.84,1.14.9.06.12c0,.06-.06.06-.12.06h-3.42Zm-.42-1.5-.06-.42.9.06h2.4a10.43,10.43,0,0,0,.78-.9l1.26.96a.186.186,0,0,1,.06.12.129.129,0,0,1-.12.12h-4.44Zm.48-1.62-.12-.36a3.69,3.69,0,0,0,.84.06h1.62l.84-.9,1.26.96.06.12c0,.06-.06.06-.12.06h-3.66Zm7.86,3.12h.72l.9-1.08,1.26,1.08a.22.22,0,0,1,.06.18c0,.06-.06.06-.12.06H344.5v.36c0,2.58,0,4.5.06,5.82a.353.353,0,0,1-.12.3,2.225,2.225,0,0,1-.84.12c-.24,0-.42,0-.48-.06l-.06-.24c.06-1.62.06-3.42.06-5.34v-.96h-1.26l-.78.06-.12-.42.9.12h1.26v-3.06a5.173,5.173,0,0,0-.06-1.02c.66.06,1.26.12,1.68.18.18,0,.3.06.3.18q0,.09-.18.18l-.36.12Zm-17.28,2.46v3.3h4.56v-3.3Zm-1.44-1.02c.42.18.72.3.84.36a6.229,6.229,0,0,1,.72.42h4.32l.72-.84,1.08.84q.18.09.18.18t-.18.18a.641.641,0,0,1-.3.18l.06,3.6v.06a.312.312,0,0,1-.12.24,2.923,2.923,0,0,1-.9.12.507.507,0,0,1-.36-.12l-.06-.18v-.48h-4.56v.36c0,.12,0,.18-.06.24-.12.12-.42.18-.96.18-.18,0-.3,0-.36-.06l-.06-.18v-.12c.06-.84.06-1.8.06-2.94A18.177,18.177,0,0,0,325.78,257.762Zm1.14-.84-.06-.42a3.691,3.691,0,0,0,.78.06h2.34l.84-.96,1.32,1.02a.186.186,0,0,1,.06.12c0,.06-.06.12-.18.12h-4.38Zm-2.94,1.02-.06-.12a14.229,14.229,0,0,0,1.74-1.5,12.562,12.562,0,0,0,2.28-2.94,5.044,5.044,0,0,0,.6-1.32c.84.18,1.44.36,1.8.42.18.06.24.12.24.24,0,.06-.06.06-.18.12-.06.06-.18.06-.36.06a6.281,6.281,0,0,0,2.46,2.16,13.074,13.074,0,0,0,2.04.84,9.416,9.416,0,0,0,.96.18l-.06.18-.48.3a2.575,2.575,0,0,0-.48.84l-.06.12q-.09.18-.18.18a3.264,3.264,0,0,1-.96-.54,7.964,7.964,0,0,1-2.4-2.28,11.237,11.237,0,0,1-1.02-1.8,11.215,11.215,0,0,1-5.88,4.86Z"/>
    <text id="_total_右寄" data-name="$total$－右寄" text-anchor="end" transform="translate(714.301 261.244)" style="font-size: 10px;">$total$</text>
    <text id="_total-note_" data-name="$total-note$" transform="translate(724.026 261.244)" style="font-size: 10px;">$total-note$</text>
  </g>
  <g id="adjustment">
    <polygon points="582.28 268.596 493.24 268.596 433.48 268.596 381.46 268.596 69.52 268.596 38.08 268.596 38.08 290.556 493.24 290.556 804.04 290.556 804.04 268.596 582.28 268.596" style="fill: #ccc"/>
    <line x1="720.04" y1="268.596" x2="720.04" y2="290.556" style="fill: none;stroke: #000;stroke-linecap: round;stroke-linejoin: round;stroke-width: 0.059999998658895px"/>
    <line x1="631.24" y1="268.596" x2="631.24" y2="290.556" style="fill: none;stroke: #000;stroke-linecap: round;stroke-linejoin: round;stroke-width: 0.059999998658895px"/>
    <line x1="468.88" y1="290.556" x2="468.88" y2="268.596" style="fill: none;stroke: #000;stroke-linecap: round;stroke-linejoin: round;stroke-width: 0.059999998658895px"/>
    <line x1="202.72" y1="268.596" x2="202.72" y2="290.556" style="fill: none;stroke: #000;stroke-linecap: round;stroke-linejoin: round;stroke-width: 0.059999998658895px"/>
    <rect x="38.08" y="268.596" width="765.96" height="21.96" style="fill: none;stroke: #000;stroke-linecap: round;stroke-linejoin: round;stroke-width: 1.02px"/>
    <path d="M356.38,282.906l.06-.12a15.318,15.318,0,0,1,1.86.48,4.3,4.3,0,0,1,.66.42.8.8,0,0,1,.18.48l-.12.6c-.12.3-.3.42-.48.42a.306.306,0,0,1-.3-.24,3.117,3.117,0,0,0-.18-.3,5.7,5.7,0,0,0-1.68-1.74m-6.24-1.38v2.34h1.56v-2.34Zm7.26.48v-1.62h-2.34v1.62Zm0-1.86v-1.56h-2.34v1.56Zm0-1.8v-1.38h-2.34v1.38Zm-6.84-.72-.6.78.3.12.78.24c.18-.3.36-.66.6-1.14Zm.9,2.04a10.138,10.138,0,0,1-1.56,1.32l.06.06.3.18h1.44l.54-.54.78.78.12.24-.06.12-.18.06v2.58a1.649,1.649,0,0,1-.78.12c-.24,0-.36,0-.36-.06l-.06-.18v-.24h-1.56v.48c0,.12,0,.18-.06.18-.06.12-.24.18-.66.18-.18,0-.36,0-.42-.06-.06,0-.12-.06-.12-.24a8.081,8.081,0,0,0,.06-1.32v-1.8a8.615,8.615,0,0,1-.96.42l-.12-.12a11.925,11.925,0,0,0,2.16-1.86c.18-.18.42-.48.72-.78l-.9-.6a9.18,9.18,0,0,1-1.8,1.5l-.12-.12a16.286,16.286,0,0,0,1.44-2.1,6.092,6.092,0,0,0,.66-1.8c.72.18,1.2.3,1.38.36q.18.09.18.18c0,.12-.18.18-.54.24-.12.24-.24.42-.3.54h.9l.54-.54.18.06a8.746,8.746,0,0,0,.24-1.02h-3.36l.06.24a1.972,1.972,0,0,1-.24,1.02.841.841,0,0,1-.66.48.329.329,0,0,1-.36-.24.968.968,0,0,1-.18-.54l.12-.36a.641.641,0,0,1,.3-.18,1.7,1.7,0,0,0,.54-.6,2.238,2.238,0,0,0,.12-.72l.18-.06a4.482,4.482,0,0,0,.12.66h1.14v-.54a4.85,4.85,0,0,0-.06-.96c.78.06,1.32.12,1.5.12.18.06.24.12.24.18s-.06.12-.18.18c-.06,0-.12.06-.3.12v.9h.96l.54-.54.96.84.12.12-.06.12c.3.18.6.36.96.6h.36q.09-.63.18-1.44v-.18h-1.26l-.78.06-.06-.42a2.781,2.781,0,0,0,.84.12h2.94l.84-.96,1.26,1.02.06.12c0,.06-.06.06-.12.06H357.1a14.829,14.829,0,0,1-1.26,1.62h1.44l.66-.72.9.66q.18.09.18.18c0,.12-.12.24-.42.36v1.38c0,1.86,0,3.12.06,3.78a.22.22,0,0,1-.06.18,1.649,1.649,0,0,1-.78.12h-.36l-.06-.18v-.24h-2.34v.18c0,.12-.06.18-.18.24a3.85,3.85,0,0,0,.66.3,2.437,2.437,0,0,1,.66.36l.12.12c0,.06-.06.12-.24.18h-.36a7.041,7.041,0,0,1-1.5.9c-.54.24-1.14.48-1.86.72l-.12-.18a7.168,7.168,0,0,0,2.58-2.4h-.6c-.24,0-.36,0-.42-.06v-.18c.06-.9.06-1.8.06-2.7,0-1.98,0-3.12-.06-3.42v-.12h-.12a3.826,3.826,0,0,1-.84.6l-.36.24c.18.12.42.3.72.48.06.06.12.12.12.18s-.06.12-.18.18a1.056,1.056,0,0,0-.36.06,6.909,6.909,0,0,1-.84,1.2,4.584,4.584,0,0,1,.96.48,1.019,1.019,0,0,1,.36.36l.12.36a.956.956,0,0,1-.24.72l-.24.12a.322.322,0,0,1-.24-.18l-.18-.18A6.273,6.273,0,0,0,351.46,279.666Zm-7.38,1.2a10.119,10.119,0,0,1,1.62.66c.18.06.24.12.24.18,0,.12-.18.18-.6.18-.48.54-.9.96-1.2,1.26a8.37,8.37,0,0,1-1.32.96l-.12-.06a10.634,10.634,0,0,0,.9-1.86C343.78,281.646,343.96,281.226,344.08,280.866Zm-6.3.12.06-.06a4.547,4.547,0,0,1,.96.54,4.746,4.746,0,0,1,.96.84.968.968,0,0,1,.18.54,1.117,1.117,0,0,1-.24.66.945.945,0,0,1-.42.42.458.458,0,0,1-.3.12c-.12,0-.18-.06-.24-.24a4.081,4.081,0,0,1-.24-.78,4.979,4.979,0,0,0-.3-1.2C338.08,281.646,337.96,281.346,337.78,280.986Zm4.08-5.94c-.48.66-.96,1.2-1.38,1.68a12.735,12.735,0,0,1-4.5,2.94l-.06-.06a16.666,16.666,0,0,0,4.32-4.74l.36-.84c.78.18,1.38.36,1.74.48.18.06.24.12.24.18s-.06.12-.12.18h-.36l-.06.06c.36.42.72.72,1.02,1.02a6.8,6.8,0,0,0,2.4,1.38q.81.27,1.98.54v.06a1.929,1.929,0,0,0-.9,1.26c-.06.12-.06.18-.12.18a1.076,1.076,0,0,1-.48-.24,12.244,12.244,0,0,1-1.74-1.14,7.852,7.852,0,0,1-1.62-1.86Q342.31,275.766,341.86,275.046Zm.3,5.22h2.34l.9-1.02,1.32,1.08.12.12c0,.06-.06.06-.18.06h-4.5v3.9h2.64c.36-.42.72-.78,1.02-1.08l1.38,1.14v.12c0,.06-.06.06-.12.06H337.06l-.72.06-.06-.42.78.12h3.78v-3.9h-3.48l-.66.06-.06-.42a2.238,2.238,0,0,0,.72.12h3.48v-1.8h-1.2l-.6.06-.06-.42.66.12h2.4l.84-1.02,1.2,1.08.06.12c0,.06-.06.06-.12.06h-1.86Zm-14.58,4.14h1.5v-3.18h-3.3l-.84.06-.12-.42,1.02.12h6.42l.78-.84,1.26.9a.186.186,0,0,1,.06.12c0,.06-.06.06-.12.06h-3.9v1.38h1.5l.78-.9,1.2.96.06.12c0,.06-.06.06-.12.06h-3.42v1.56h2.58l.9-.96,1.32,1.08.12.12c0,.06-.06.06-.18.06h-9.84a4.87,4.87,0,0,0-1.02.06l-.12-.42a6.534,6.534,0,0,0,1.14.06h1.08v-1.44a5.833,5.833,0,0,0-.06-1.08,14.528,14.528,0,0,1,1.56.12q.18.09.18.18l-.12.18c-.06,0-.12.06-.3.12Zm4.44-6.42a4.641,4.641,0,0,0,.78-1.92h-1.32l-.48.66A5.222,5.222,0,0,0,332.02,277.986Zm.84.54.78.36a8.737,8.737,0,0,0,1.62.3v.12l-.42.36-.42.66a.129.129,0,0,1-.12.12,1.5,1.5,0,0,1-.48-.24,9.059,9.059,0,0,1-1.56-1.08,5.438,5.438,0,0,1-1.14.78,12.129,12.129,0,0,1-1.86.72l-.06-.12a8.757,8.757,0,0,0,1.56-1.08,7.257,7.257,0,0,0,.96-.96,6.771,6.771,0,0,1-.84-1.62l-.36.48c-.18.18-.42.36-.72.6l-.06-.06a11.794,11.794,0,0,0,.96-2.4,12.407,12.407,0,0,0,.36-1.44,6.83,6.83,0,0,1,1.38.3c.18.06.24.12.24.18s-.06.06-.18.12a.8.8,0,0,0-.3.06,6.558,6.558,0,0,1-.6,1.14h1.74l.78-.9,1.08.96.06.12c0,.06-.06.06-.12.06h-1.08A6.292,6.292,0,0,1,332.86,278.526Zm-6.18-.72v-1.32h-.96v1.32Zm1.02-1.32v1.32h.9v-1.32Zm0,1.56v.42l.96.18a2.867,2.867,0,0,1,.84.36.33.33,0,0,1,.18.3,1.21,1.21,0,0,1-.18.66l-.12.12-.18.06c-.06,0-.18-.06-.3-.24a2.938,2.938,0,0,0-.72-.9l-.48-.36c0,.42,0,1.02.06,1.68a.312.312,0,0,1-.12.24,1.85,1.85,0,0,1-.6.06c-.18,0-.3,0-.36-.06l-.06-.12a5.833,5.833,0,0,0,.06-1.08v-.3a6.778,6.778,0,0,1-2.7,1.62l-.06-.06a12.618,12.618,0,0,0,1.56-1.38l.96-1.2h-.72v.18a.22.22,0,0,1-.06.18,1.505,1.505,0,0,1-.6.06c-.18,0-.24,0-.3-.06l-.06-.18v-2.58l1.14.6h.84v-.84H325a2.707,2.707,0,0,0-.78.06l-.06-.42a2.781,2.781,0,0,0,.84.12h1.68v-.12l-.06-1.02,1.32.12c.18.06.24.12.24.18l-.12.12c-.06.06-.18.06-.36.12v.6h.96l.6-.78,1.08.84.06.12c0,.06-.06.06-.12.06H327.7v.84h.84l.48-.6.84.6c.06.06.12.12.12.18l-.12.12-.24.12v1.5a.22.22,0,0,1-.06.18,1.222,1.222,0,0,1-.66.12c-.12,0-.18,0-.24-.06l-.06-.18v-.18Zm-8.58,2.16v2.16h.9v-2.16Zm-.96-.84c.36.18.72.36,1.02.54h.78l.54-.54.72.54c.06.06.12.12.12.18s-.12.12-.36.24l.06,2.7c0,.12-.06.18-.12.18a1.505,1.505,0,0,1-.6.06h-.24l-.06-.18v-.42h-.9v.78a1.34,1.34,0,0,1-.72.12c-.12,0-.18,0-.24-.06l-.06-.18c.06-.66.06-1.62.06-2.88Zm-4.62,2.1v2.52h1.14v-2.52Zm-1.2-.96a4.423,4.423,0,0,1,.66.36l.72.36h.84l.6-.66c.3.24.6.48.84.66l.12.18-.06.12-.24.18v2.76c-.06.12-.36.18-.78.18-.18,0-.24,0-.3-.06l-.06-.18v-.18h-1.14v.6c0,.12,0,.18-.06.24a2.285,2.285,0,0,1-.78.06h-.3l-.06-.24c.06-.78.06-1.74.06-2.76A12.584,12.584,0,0,0,312.34,280.506Zm0-.54-.06-.42a4.129,4.129,0,0,0,.78.12h1.38l.66-.84,1.08.9.06.12c0,.06-.06.06-.12.06h-3Zm0-1.56-.06-.42a3.541,3.541,0,0,0,.84.12h1.2l.72-.84,1.14.9v.12c0,.06,0,.06-.06.06h-3A3.983,3.983,0,0,0,312.34,278.406Zm-.24-1.56-.12-.42a4.631,4.631,0,0,0,.9.12h1.74l.72-.84,1.14.9.06.12c0,.06-.06.06-.12.06h-3.54Zm.3-1.56-.12-.42a4.99,4.99,0,0,0,.78.12h1.44l.72-.84,1.14.9.06.12c0,.06-.06.06-.12.06h-3.24Zm7.74,1.62h.18l.24-.3.18-.24.72.66.06.12c0,.06-.06.06-.12.06h-1.26v1.44h.24l.54-.6.66.66v-3.6H317.8c0,2.22,0,3.66-.06,4.32-.06,1.14-.12,1.92-.18,2.46a7.06,7.06,0,0,1-.96,2.28q-.36.45-.9,1.08l-.12-.12a6.408,6.408,0,0,0,.6-1.38,8.416,8.416,0,0,0,.36-1.92c.06-.84.12-2.04.12-3.54v-.54c0-1.62,0-2.82-.06-3.6l1.38.66h3.48l.66-.66.96.78q.18.09.18.18t-.18.18c-.06,0-.12.06-.3.18v8.52a.956.956,0,0,1-.24.72,1.8,1.8,0,0,1-1.02.42l-.3.06-.18-.12v-.06a1.046,1.046,0,0,0-.9-.96,1.768,1.768,0,0,0-.6-.18l.06-.12c.78.06,1.26.06,1.56.06h.24a.159.159,0,0,0,.18-.18v-4.74h-3.12l-.48.06-.06-.36.54.06h.6v-1.44h-.6l-.48.06-.06-.42.54.06h.6v-.54l-.06-1.02c.54.06,1.02.12,1.32.18.18.06.24.12.24.18s-.06.06-.18.12c0,.06-.06.06-.24.12Z"/>
    <text id="_adjustment_右寄" data-name="$adjustment$－右寄" text-anchor="end" transform="translate(714.301 282.997)" style="font-size: 10px;">$adjustment$</text>
    <text id="_adjustment-note_" data-name="$adjustment-note$" transform="translate(724.026 282.997)" style="font-size: 10px;">$adjustment-note$</text>
  </g>
  <g id="tax-excluded">
    <polygon points="582.28 290.556 493.24 290.556 433.48 290.556 381.46 290.556 69.52 290.556 38.08 290.556 38.08 312.516 493.24 312.516 804.04 312.516 804.04 290.556 582.28 290.556" style="fill: #ccc"/>
    <line x1="720.04" y1="290.556" x2="720.04" y2="312.516" style="fill: none;stroke: #000;stroke-linecap: round;stroke-linejoin: round;stroke-width: 0.059999998658895px"/>
    <line x1="631.24" y1="290.556" x2="631.24" y2="312.516" style="fill: none;stroke: #000;stroke-linecap: round;stroke-linejoin: round;stroke-width: 0.059999998658895px"/>
    <line x1="468.88" y1="312.516" x2="468.88" y2="290.556" style="fill: none;stroke: #000;stroke-linecap: round;stroke-linejoin: round;stroke-width: 0.059999998658895px"/>
    <line x1="202.72" y1="290.556" x2="202.72" y2="312.516" style="fill: none;stroke: #000;stroke-linecap: round;stroke-linejoin: round;stroke-width: 0.059999998658895px"/>
    <rect x="38.08" y="290.556" width="765.96" height="21.96" style="fill: none;stroke: #000;stroke-linecap: round;stroke-linejoin: round;stroke-width: 1.02px"/>
    <path d="M368.38,304.866l.06-.12a15.318,15.318,0,0,1,1.86.48,4.3,4.3,0,0,1,.66.42.8.8,0,0,1,.18.48l-.12.6c-.12.3-.3.42-.48.42a.306.306,0,0,1-.3-.24,3.117,3.117,0,0,0-.18-.3,5.7,5.7,0,0,0-1.68-1.74m-6.24-1.38v2.34h1.56v-2.34Zm7.26.48v-1.62h-2.34v1.62Zm0-1.86v-1.56h-2.34v1.56Zm0-1.8v-1.38h-2.34v1.38Zm-6.84-.72-.6.78.3.12.78.24c.18-.3.36-.66.6-1.14Zm.9,2.04a10.138,10.138,0,0,1-1.56,1.32l.06.06.3.18h1.44l.54-.54.78.78.12.24-.06.12-.18.06v2.58a1.649,1.649,0,0,1-.78.12c-.24,0-.36,0-.36-.06l-.06-.18v-.24h-1.56v.48c0,.12,0,.18-.06.18-.06.12-.24.18-.66.18-.18,0-.36,0-.42-.06-.06,0-.12-.06-.12-.24a8.081,8.081,0,0,0,.06-1.32v-1.8a8.615,8.615,0,0,1-.96.42l-.12-.12a11.925,11.925,0,0,0,2.16-1.86c.18-.18.42-.48.72-.78l-.9-.6a9.18,9.18,0,0,1-1.8,1.5l-.12-.12a16.286,16.286,0,0,0,1.44-2.1,6.092,6.092,0,0,0,.66-1.8c.72.18,1.2.3,1.38.36q.18.09.18.18c0,.12-.18.18-.54.24-.12.24-.24.42-.3.54h.9l.54-.54.18.06a8.746,8.746,0,0,0,.24-1.02h-3.36l.06.24a1.972,1.972,0,0,1-.24,1.02.841.841,0,0,1-.66.48.329.329,0,0,1-.36-.24.968.968,0,0,1-.18-.54l.12-.36a.641.641,0,0,1,.3-.18,1.7,1.7,0,0,0,.54-.6,2.238,2.238,0,0,0,.12-.72l.18-.06a4.482,4.482,0,0,0,.12.66h1.14v-.54a4.85,4.85,0,0,0-.06-.96c.78.06,1.32.12,1.5.12.18.06.24.12.24.18s-.06.12-.18.18c-.06,0-.12.06-.3.12v.9h.96l.54-.54.96.84.12.12-.06.12c.3.18.6.36.96.6h.36q.09-.63.18-1.44v-.18h-1.26l-.78.06-.06-.42a2.781,2.781,0,0,0,.84.12h2.94l.84-.96,1.26,1.02.06.12c0,.06-.06.06-.12.06H369.1a14.829,14.829,0,0,1-1.26,1.62h1.44l.66-.72.9.66q.18.09.18.18c0,.12-.12.24-.42.36v1.38c0,1.86,0,3.12.06,3.78a.22.22,0,0,1-.06.18,1.649,1.649,0,0,1-.78.12h-.36l-.06-.18v-.24h-2.34v.18c0,.12-.06.18-.18.24a3.85,3.85,0,0,0,.66.3,2.437,2.437,0,0,1,.66.36l.12.12c0,.06-.06.12-.24.18h-.36a7.041,7.041,0,0,1-1.5.9c-.54.24-1.14.48-1.86.72l-.12-.18a7.168,7.168,0,0,0,2.58-2.4h-.6c-.24,0-.36,0-.42-.06v-.18c.06-.9.06-1.8.06-2.7,0-1.98,0-3.12-.06-3.42v-.12h-.12a3.826,3.826,0,0,1-.84.6l-.36.24c.18.12.42.3.72.48.06.06.12.12.12.18s-.06.12-.18.18a1.056,1.056,0,0,0-.36.06,6.909,6.909,0,0,1-.84,1.2,4.584,4.584,0,0,1,.96.48,1.019,1.019,0,0,1,.36.36l.12.36a.956.956,0,0,1-.24.72l-.24.12a.322.322,0,0,1-.24-.18l-.18-.18A6.273,6.273,0,0,0,363.46,301.626Zm-7.38,1.2a10.119,10.119,0,0,1,1.62.66c.18.06.24.12.24.18,0,.12-.18.18-.6.18-.48.54-.9.96-1.2,1.26a8.37,8.37,0,0,1-1.32.96l-.12-.06a10.634,10.634,0,0,0,.9-1.86C355.78,303.606,355.96,303.186,356.08,302.826Zm-6.3.12.06-.06a4.547,4.547,0,0,1,.96.54,4.746,4.746,0,0,1,.96.84.968.968,0,0,1,.18.54,1.117,1.117,0,0,1-.24.66.945.945,0,0,1-.42.42.458.458,0,0,1-.3.12c-.12,0-.18-.06-.24-.24a4.081,4.081,0,0,1-.24-.78,4.979,4.979,0,0,0-.3-1.2C350.08,303.606,349.96,303.306,349.78,302.946Zm4.08-5.94c-.48.66-.96,1.2-1.38,1.68a12.735,12.735,0,0,1-4.5,2.94l-.06-.06a16.666,16.666,0,0,0,4.32-4.74l.36-.84c.78.18,1.38.36,1.74.48.18.06.24.12.24.18s-.06.12-.12.18h-.36l-.06.06c.36.42.72.72,1.02,1.02a6.8,6.8,0,0,0,2.4,1.38q.81.27,1.98.54v.06a1.929,1.929,0,0,0-.9,1.26c-.06.12-.06.18-.12.18a1.076,1.076,0,0,1-.48-.24,12.244,12.244,0,0,1-1.74-1.14,7.852,7.852,0,0,1-1.62-1.86Q354.31,297.726,353.86,297.006Zm.3,5.22h2.34l.9-1.02,1.32,1.08.12.12c0,.06-.06.06-.18.06h-4.5v3.9h2.64c.36-.42.72-.78,1.02-1.08l1.38,1.14v.12c0,.06-.06.06-.12.06H349.06l-.72.06-.06-.42.78.12h3.78v-3.9h-3.48l-.66.06-.06-.42a2.238,2.238,0,0,0,.72.12h3.48v-1.8h-1.2l-.6.06-.06-.42.66.12h2.4l.84-1.02,1.2,1.08.06.12c0,.06-.06.06-.12.06h-1.86Zm-10.26,3.06v-.12a11.335,11.335,0,0,1,2.58.48.814.814,0,0,1,.42.78,1.078,1.078,0,0,1-.18.66l-.24.12a.434.434,0,0,1-.36-.24c-.18-.18-.48-.42-.84-.72a4.545,4.545,0,0,0-.78-.6C344.38,305.586,344.2,305.466,343.9,305.286Zm1.08-.78v-1.02H341.8v1.02Zm0-1.26v-.96H341.8v.96Zm0-1.2v-.9H341.8v.9Zm-3.18,3c.36.18.72.3,1.02.42a.928.928,0,0,0,.36.18l.06.12c0,.06,0,.12-.06.12-.06.06-.24.06-.54.06a10.442,10.442,0,0,1-1.5.66q-.9.27-1.98.54l-.06-.12c.54-.3.96-.54,1.32-.78a4.917,4.917,0,0,0,1.26-1.14,1.85,1.85,0,0,1-.6.06c-.24,0-.42,0-.48-.06a.22.22,0,0,0-.06-.18c.06-.78.06-1.62.06-2.64a18.129,18.129,0,0,0-.06-1.98l1.32.54h3l.66-.54.9.54c.06.06.12.12.12.18s-.06.12-.12.18l-.24.18v1.02l.06,2.34v.06a.22.22,0,0,1-.06.18,1.222,1.222,0,0,1-.66.12c-.3,0-.42,0-.48-.06l-.06-.12v-.18H341.8Zm2.1-7.68h1.26l.84-.78,1.08.84.06.12c0,.06-.06.06-.12.06H343.9v.96h1.14l.78-.72,1.02.78.06.12c0,.06-.06.06-.18.06H343.9v1.02h1.5a4.8,4.8,0,0,0,.78-.78l1.14.84.06.12a.129.129,0,0,1-.12.12h-6.48l-.6.06-.06-.42.66.06h1.92v-1.02h-1.38l-.6.06-.06-.42.66.12h1.38v-.96h-1.68l-.6.06-.06-.42a2.238,2.238,0,0,0,.72.12h1.62l-.06-1.32a11,11,0,0,1,1.5.18c.18.06.24.12.24.18l-.12.12c-.06.06-.18.06-.36.12Zm-4.98.12v1.92h.18l.6-.72.9.84.06.06a.129.129,0,0,1-.12.12h-1.62v1.02c.96.42,1.44.78,1.44,1.2a.956.956,0,0,1-.24.72c-.18.18-.3.3-.42.3-.06,0-.12-.06-.18-.24a6.376,6.376,0,0,0-.18-.84,2.088,2.088,0,0,0-.42-.9v5.88c0,.06-.06.12-.12.18a1.34,1.34,0,0,1-.72.12.574.574,0,0,1-.42-.12l-.06-.18c.06-.96.06-2.1.12-3.42v-1.26a8.417,8.417,0,0,1-.84,1.32,12.218,12.218,0,0,1-.9,1.02l-.12-.06a17.131,17.131,0,0,0,1.2-2.64c.18-.66.36-1.38.54-2.1h-.96l-.6.06-.06-.42.66.06h1.08v-1.68c-.42.06-.96.18-1.62.24l-.06-.12a11.932,11.932,0,0,0,2.16-1.02,12.092,12.092,0,0,0,1.14-.78q.72.45,1.26.72l.12.24a.129.129,0,0,1-.12.12,1.171,1.171,0,0,1-.42-.06C339.7,297.246,339.28,297.366,338.92,297.486Zm-15,9.66v-.18q.99-.36,1.44-.54a4.45,4.45,0,0,0,1.92-2.16,3.225,3.225,0,0,0,.3-1.26c.42.06.72.12.84.12a2.043,2.043,0,0,1,.9.24l.06.12c0,.06-.06.12-.12.18l-.3.06q-.27.63-.36.9l-.42.6C327.4,306.306,326.02,306.966,323.92,307.146Zm7.86-4.62v-1.74h-4.5v1.74Zm0-1.98v-1.62h-4.5v1.62Zm0-1.86v-1.62h-4.5v1.62Zm-.54,4.14v2.52l.06.24c0,.06.12.06.3.06h1.74a.363.363,0,0,0,.36-.18,21.487,21.487,0,0,0,.78-2.4h.12l-.06,2.1v.24l.18.12a.478.478,0,0,1,.42.54.612.612,0,0,1-.3.48.956.956,0,0,1-.72.24c-.18,0-.72,0-1.74.06-.9-.06-1.38-.06-1.56-.06l-.42-.06-.24-.12a1.206,1.206,0,0,1-.24-.48v-3.3h-2.64v.24a.22.22,0,0,1-.06.18,1.787,1.787,0,0,1-.84.12c-.24,0-.36,0-.42-.06l-.06-.18c.06-1.68.06-3.12.06-4.26s0-2.1-.06-2.82c.36.18.6.24.72.3a6.632,6.632,0,0,0,.78.42h4.2l.78-.72.96.72c.06.12.12.18.12.24s-.06.12-.12.18c0,.06-.06.12-.24.18v1.38c0,1.86,0,3.24.06,4.14a.353.353,0,0,1-.12.3,2.085,2.085,0,0,1-.78.06c-.24,0-.36,0-.42-.06l-.06-.12v-.24Zm-16.26-4.02h.18l.48-.78.78.84.06.12c0,.06-.06.06-.12.06h-1.38v2.28a8.368,8.368,0,0,0,1.62-.54v.12c-.42.3-.96.72-1.62,1.14v3.84a1.291,1.291,0,0,1-.12.6,1.426,1.426,0,0,1-.9.6,1.491,1.491,0,0,1-.48.06l-.12-.06v-.12a2.789,2.789,0,0,0-.18-.54l-.3-.3c-.18-.06-.42-.18-.84-.3l.06-.18a13.05,13.05,0,0,0,1.5.06h.12v-3a6.752,6.752,0,0,1-.9.42c0,.18,0,.3-.06.36a.129.129,0,0,1-.12.12q-.09,0-.18-.18c-.12-.42-.24-.96-.42-1.56h.6c.24-.06.6-.12,1.08-.24v-2.58h-.78l-.72.06-.06-.42.78.12h.78v-.9a12.7,12.7,0,0,0-.06-1.8c.66.06,1.2.06,1.56.12.18.06.3.12.3.18s-.06.12-.18.18c-.06.06-.18.06-.36.12Zm3.54,1.98.06.18a6.055,6.055,0,0,0,1.2,2.22,12.554,12.554,0,0,0,1.02-2.4Zm-1.08-1.98h-.3l-.66.06-.06-.42.72.06h.3l.06-1.74v-.72c.6.06,1.14.18,1.62.24.18,0,.3.06.3.18q0,.09-.18.18a2.36,2.36,0,0,0-.36.12,16.29,16.29,0,0,1-.06,1.74h2.16l.9-1.02a7.809,7.809,0,0,1,1.38,1.08l.06.12a.129.129,0,0,1-.12.12h-4.44a11.266,11.266,0,0,1-.24,1.68h2.22l.72-.66.96.72c.12.12.18.18.18.24s-.06.12-.18.18a2.523,2.523,0,0,1-.3.12,10.813,10.813,0,0,1-1.5,2.88,4.585,4.585,0,0,0,.96.66,7.177,7.177,0,0,0,1.92.66l-.06.12a1.752,1.752,0,0,0-.9,1.26l-.12.12a1.044,1.044,0,0,1-.42-.18,7.469,7.469,0,0,1-2.04-1.86,6.273,6.273,0,0,1-1.14,1.02,11.924,11.924,0,0,1-1.74.96,6.969,6.969,0,0,0-.96.36l-.06-.12a13.183,13.183,0,0,0,2.34-1.92l.96-1.2a10.5,10.5,0,0,1-.96-2.64,9.306,9.306,0,0,1-3.36,5.82l-.12-.06C316.36,305.106,317.2,302.406,317.44,298.806Zm-12.42-2.58.12-.06a10.538,10.538,0,0,1,1.5.78.762.762,0,0,1,.42.66.964.964,0,0,1-.3.66.62.62,0,0,1-.48.24l-.3-.12a.8.8,0,0,0-.06-.3c-.18-.48-.3-.84-.42-1.08A3.03,3.03,0,0,0,305.02,296.226Zm-2.04,1.32v1.92h.18l.24-.36.3-.36.9.84.06.06a.129.129,0,0,1-.12.12h-1.56v.96c1.02.48,1.5.96,1.5,1.38a.968.968,0,0,1-.18.54.563.563,0,0,1-.48.36l-.18-.12c-.06-.06-.06-.18-.12-.48a5.041,5.041,0,0,0-.24-.84,2.432,2.432,0,0,0-.3-.54v5.76a.22.22,0,0,1-.06.18l-.12.12a1.866,1.866,0,0,1-.66.06.574.574,0,0,1-.42-.12l-.06-.18c.06-.66.06-1.86.12-3.54v-1.26a15.1,15.1,0,0,1-.9,1.44,4.779,4.779,0,0,1-.9,1.02l-.12-.06a16.782,16.782,0,0,0,1.14-2.58,12.81,12.81,0,0,0,.6-2.1h-.84l-.66.06-.06-.42a2.472,2.472,0,0,0,.72.06h1.02v-1.68q-.63.09-1.62.18l-.06-.12a8.773,8.773,0,0,0,2.16-.96,6.327,6.327,0,0,0,.78-.48l.42-.36c.6.42,1.02.66,1.26.84.06.06.12.12.12.18l-.06.12-.12.06a2.248,2.248,0,0,1-.48-.06A8.162,8.162,0,0,1,302.98,297.546Zm2.94,1.44v2.52h3.12v-2.52Zm0,3,.6.12a3.372,3.372,0,0,1,.78.12l.12.18c0,.06-.12.18-.42.24a6.83,6.83,0,0,1-.3,1.38,3.984,3.984,0,0,1-1.8,2.28c-.3.18-.66.36-1.02.54a4.867,4.867,0,0,1-.66.18l-.06-.12a6.3,6.3,0,0,0,1.44-1.14,4.748,4.748,0,0,0,.9-1.92,5.054,5.054,0,0,0,.24-1.62,2.052,2.052,0,0,1-.66.06.574.574,0,0,1-.42-.12v-1.86c0-.9,0-1.68-.06-2.28a6.046,6.046,0,0,1,1.38.72h1.62a6.984,6.984,0,0,0,.36-.9,7.743,7.743,0,0,0,.54-1.74c.72.24,1.26.42,1.56.54.18.06.24.18.24.24s-.06.06-.18.12c-.06.06-.24.06-.42.06-.3.3-.66.78-1.2,1.32l-.36.36h.84l.3-.42.36-.3.9.6.12.24c0,.06-.12.18-.36.3v.84l.06,1.92a.312.312,0,0,1-.12.24,1.854,1.854,0,0,1-.78.12c-.18,0-.3,0-.36-.06l-.06-.18v-.3h-.12v3.84a1.583,1.583,0,0,1,.42.06h.18a.775.775,0,0,0,.48-.12,1.149,1.149,0,0,0,.24-.48c.06-.24.18-.6.3-1.02.06-.18.18-.54.3-.96h.12l-.06,2.04v.24l.12.12a.641.641,0,0,1,.3.18c.06.06.06.12.06.3a.662.662,0,0,1-.3.6l-.36.12a8.114,8.114,0,0,1-1.38.06h-1.08a.751.751,0,0,1-.54-.3l-.06-.48v-4.2h-1.74Z"/>
    <text id="_tax-excluded_右寄" data-name="$tax-excluded$－右寄" text-anchor="end" transform="translate(714.301 304.957)" style="font-size: 10px;">$tax-excluded$</text>
    <text id="_tax-excluded-note_" data-name="$tax-excluded-note$" transform="translate(724.026 304.957)" style="font-size: 10px;">$tax-excluded-note$</text>
  </g>
  <g id="tax">
    <polygon points="582.28 312.516 493.24 312.516 433.48 312.516 381.46 312.516 69.52 312.516 38.08 312.516 38.08 334.476 493.24 334.476 804.04 334.476 804.04 312.516 582.28 312.516" style="fill: #ccc"/>
    <line x1="720.04" y1="312.516" x2="720.04" y2="334.476" style="fill: none;stroke: #000;stroke-linecap: round;stroke-linejoin: round;stroke-width: 0.059999998658895px"/>
    <line x1="631.24" y1="312.516" x2="631.24" y2="334.476" style="fill: none;stroke: #000;stroke-linecap: round;stroke-linejoin: round;stroke-width: 0.059999998658895px"/>
    <line x1="468.88" y1="334.476" x2="468.88" y2="312.516" style="fill: none;stroke: #000;stroke-linecap: round;stroke-linejoin: round;stroke-width: 0.059999998658895px"/>
    <line x1="202.72" y1="312.516" x2="202.72" y2="334.476" style="fill: none;stroke: #000;stroke-linecap: round;stroke-linejoin: round;stroke-width: 0.059999998658895px"/>
    <rect x="38.08" y="312.516" width="765.96" height="21.96" style="fill: none;stroke: #000;stroke-linecap: round;stroke-linejoin: round;stroke-width: 1.02px"/>
    <path d="M347.02,318.066l.12-.06a10.538,10.538,0,0,1,1.5.78.762.762,0,0,1,.42.66.964.964,0,0,1-.3.66.62.62,0,0,1-.48.24l-.3-.12a.8.8,0,0,0-.06-.3c-.18-.48-.3-.84-.42-1.08a3.03,3.03,0,0,0-.48-.78m-2.04,1.32v1.92h.18l.24-.36.3-.36.9.84.06.06a.129.129,0,0,1-.12.12h-1.56v.96c1.02.48,1.5.96,1.5,1.38a.968.968,0,0,1-.18.54.563.563,0,0,1-.48.36l-.18-.12c-.06-.06-.06-.18-.12-.48a5.041,5.041,0,0,0-.24-.84,2.432,2.432,0,0,0-.3-.54v5.76a.22.22,0,0,1-.06.18l-.12.12a1.866,1.866,0,0,1-.66.06.574.574,0,0,1-.42-.12l-.06-.18c.06-.66.06-1.86.12-3.54v-1.26a15.1,15.1,0,0,1-.9,1.44,4.779,4.779,0,0,1-.9,1.02l-.12-.06a16.782,16.782,0,0,0,1.14-2.58,12.81,12.81,0,0,0,.6-2.1h-.84l-.66.06-.06-.42a2.472,2.472,0,0,0,.72.06h1.02v-1.68q-.63.09-1.62.18l-.06-.12a8.773,8.773,0,0,0,2.16-.96,6.327,6.327,0,0,0,.78-.48l.42-.36c.6.42,1.02.66,1.26.84.06.06.12.12.12.18l-.06.12-.12.06a2.248,2.248,0,0,1-.48-.06A8.162,8.162,0,0,1,344.98,319.386Zm2.94,1.44v2.52h3.12v-2.52Zm0,3,.6.12a3.372,3.372,0,0,1,.78.12l.12.18c0,.06-.12.18-.42.24a6.83,6.83,0,0,1-.3,1.38,3.984,3.984,0,0,1-1.8,2.28c-.3.18-.66.36-1.02.54a4.867,4.867,0,0,1-.66.18l-.06-.12a6.3,6.3,0,0,0,1.44-1.14,4.748,4.748,0,0,0,.9-1.92,5.054,5.054,0,0,0,.24-1.62,2.052,2.052,0,0,1-.66.06.574.574,0,0,1-.42-.12v-1.86c0-.9,0-1.68-.06-2.28a6.046,6.046,0,0,1,1.38.72h1.62a6.984,6.984,0,0,0,.36-.9,7.743,7.743,0,0,0,.54-1.74c.72.24,1.26.42,1.56.54.18.06.24.18.24.24s-.06.06-.18.12c-.06.06-.24.06-.42.06-.3.3-.66.78-1.2,1.32l-.36.36h.84l.3-.42.36-.3.9.6.12.24c0,.06-.12.18-.36.3v.84l.06,1.92a.312.312,0,0,1-.12.24,1.854,1.854,0,0,1-.78.12c-.18,0-.3,0-.36-.06l-.06-.18v-.3h-.12v3.84a1.583,1.583,0,0,1,.42.06h.18a.775.775,0,0,0,.48-.12,1.149,1.149,0,0,0,.24-.48c.06-.24.18-.6.3-1.02.06-.18.18-.54.3-.96h.12l-.06,2.04v.24l.12.12a.641.641,0,0,1,.3.18c.06.06.06.12.06.3a.662.662,0,0,1-.3.6l-.36.12a8.114,8.114,0,0,1-1.38.06h-1.08a.751.751,0,0,1-.54-.3l-.06-.48v-4.2h-1.74Zm-11.52,3.54v-.18a22.12,22.12,0,0,1,3.24.36,1.4,1.4,0,0,1,.66.42,1.078,1.078,0,0,1,.18.66.7.7,0,0,1-.12.42l-.24.12a1.526,1.526,0,0,1-.42-.12c0-.06-.12-.12-.36-.3A10.067,10.067,0,0,0,336.4,327.366Zm-6.24,1.74-.06-.18a7.345,7.345,0,0,0,2.28-1.08,3.5,3.5,0,0,0,.96-.84c.54.18,1.08.36,1.56.54.18.06.24.12.24.18s-.06.12-.24.12c-.06.06-.18.06-.48.06a12.894,12.894,0,0,1-1.92.78A18.5,18.5,0,0,1,330.16,329.106Zm7.32-9.96v.96h1.5v-.96Zm-2.58.96h1.38v-.96h-1.32Zm-1.2.24h-1.38l-.3.96h1.44A3.177,3.177,0,0,0,333.7,320.346Zm2.58,0H334.9a7.354,7.354,0,0,1-.24.96h1.62Zm1.62,6.18v-1.02h-4.68v1.02Zm0-1.32v-.9h-4.68v.9Zm-4.68-2.04v.9h4.68v-.9Zm6-.18c0-.12,0-.18-.06-.24-.06-.18-.36-.36-.78-.54v-.12c.54.06.9.12,1.02.12s.18-.06.18-.12a1.17,1.17,0,0,0,.06-.48h-2.16v.78a.312.312,0,0,1-.12.24,2.472,2.472,0,0,1-.72.06c-.18,0-.24,0-.3-.06l-.06-.18v-.84H334.6a3.465,3.465,0,0,1-1.2,1.26h4.44l.48-.42Zm.18.24a.828.828,0,0,1-.24.18c0,1.38,0,2.46.06,3.36a.22.22,0,0,1-.06.18,1.854,1.854,0,0,1-.78.12c-.18,0-.36,0-.42-.06l-.06-.12v-.12h-4.68v.24l-.06.12a2.085,2.085,0,0,1-.78.06c-.24,0-.42,0-.48-.06v-.18c.06-.78.06-1.68.06-2.58v-.6c-.48.18-1.08.36-1.74.54l-.12-.12a8.364,8.364,0,0,0,1.8-1.02v-.72c.24.06.42.12.6.18a3.934,3.934,0,0,0,.84-1.02H331.9l-.18.42-.12.18h-1.02q-.18-.09-.18-.18l.06-.12a7.6,7.6,0,0,0,.9-2.4l1.2.6h1.14l.06-.96h-2.1a3.455,3.455,0,0,0-.9.06l-.06-.42a4.85,4.85,0,0,0,.96.06h2.1a5.173,5.173,0,0,0-.06-1.02c.78.06,1.26.06,1.56.12q.18.09.18.18l-.12.18c-.06,0-.12.06-.3.12v.24l-.06.18h1.32a5.173,5.173,0,0,0-.06-1.02,5.7,5.7,0,0,0,.84.06,2.616,2.616,0,0,1,.72.12l.12.12c0,.06-.12.18-.42.3v.42h1.38l.6-.66.9.6a.322.322,0,0,1,.18.24c0,.06-.12.18-.42.3v.24l.06.9a.22.22,0,0,1-.06.18,1.649,1.649,0,0,1-.78.12c-.18,0-.24,0-.3-.06l-.06-.12v-.24h-1.5v.96h2.04l.48-.54.96.6.12.18-.06.12c-.06,0-.12.06-.24.12a3.547,3.547,0,0,1-.24,1.08A1.439,1.439,0,0,1,339.4,323.226Zm-12.18-4.98c.6.24,1.08.42,1.5.6q.18.09.18.18c0,.06-.06.12-.12.18h-.42a12.1,12.1,0,0,1-2.28,2.1l-.12-.12a11.725,11.725,0,0,0,.84-1.74C326.98,319.026,327.1,318.606,327.22,318.246Zm-9.06,6.96.06-.12c.42.06.72.12.9.12.06,0,.18-.06.3-.24.12-.24.42-.78.9-1.68q.36-.72,1.26-2.7l.12.06-1.44,4.56c-.06.3-.12.54-.12.6a3.044,3.044,0,0,0,.12.54,4.543,4.543,0,0,1,.3,1.14,1.206,1.206,0,0,1-.24.78,1.306,1.306,0,0,1-.48.3,1.752,1.752,0,0,1-.54.12l-.3-.12-.06-.24a1.93,1.93,0,0,1,.06-.48,6.725,6.725,0,0,0,.18-1.44c0-.18,0-.36-.06-.42a1.109,1.109,0,0,0-.42-.54A1.514,1.514,0,0,1,318.16,325.206Zm3.6-6.78.12-.12a5.529,5.529,0,0,1,1.38.84,2.709,2.709,0,0,1,.42.42l.12.42a1.153,1.153,0,0,1-.24.72.726.726,0,0,1-.54.36l-.3-.12c-.06-.06-.06-.24-.12-.42a8.543,8.543,0,0,0-.36-1.26C322.12,319.026,321.94,318.726,321.76,318.426Zm-3.6,2.34.06-.06a6.425,6.425,0,0,1,1.56.54,5.811,5.811,0,0,1,.54.42l.06.42a.9.9,0,0,1-.24.66c-.18.18-.3.3-.48.3a.33.33,0,0,1-.3-.18.925.925,0,0,1-.18-.42l-.48-.96Q318.52,321.216,318.16,320.766Zm.72-2.64.06-.12a6.178,6.178,0,0,1,1.62.54q.72.36.72.9l-.12.42a.93.93,0,0,1-.48.48l-.18.06a.33.33,0,0,1-.3-.18.947.947,0,0,1-.18-.48l-.6-1.02A4.377,4.377,0,0,0,318.88,318.126Zm8.1,7.08v-1.62H323.2v1.62Zm-3.78-3.36v1.5h3.78v-1.5Zm2.46-.3h1.2l.72-.72,1.02.72.12.24-.12.18a1.641,1.641,0,0,1-.3.24v5.22a1.505,1.505,0,0,1-.06.6c-.06.36-.42.6-.96.72l-.66.12-.18-.06v-.18l-.06-.3c-.06-.24-.3-.42-.72-.6a4.526,4.526,0,0,0-.9-.24v-.18c.48.06,1.14.06,2.04.12a.22.22,0,0,0,.18-.06v-1.92H323.2v3.12c0,.12,0,.18-.06.24a1.649,1.649,0,0,1-.78.12c-.18,0-.36,0-.42-.06a.312.312,0,0,1-.12-.24c.06-2.1.12-3.96.12-5.64l-.06-2.1,1.38.66h1.14v-2.4a8.054,8.054,0,0,0-.06-1.26,15.913,15.913,0,0,1,1.62.18q.18.09.18.18l-.12.12a.977.977,0,0,1-.36.18Z"/>
    <text id="_tax_右寄" data-name="$tax$－右寄" text-anchor="end" transform="translate(714.301 326.917)" style="font-size: 10px;">$tax$</text>
    <text id="_tax-note_" data-name="$tax-note$" transform="translate(724.026 326.917)" style="font-size: 10px;">$tax-note$</text>
  </g>
  <g id="tax-included">
    <polygon points="582.191 334.476 493.151 334.476 433.391 334.476 381.371 334.476 69.431 334.476 37.991 334.476 37.991 356.436 493.151 356.436 803.95 356.436 803.95 334.476 582.191 334.476" style="fill: #ccc"/>
    <line x1="719.951" y1="334.476" x2="719.951" y2="356.436" style="fill: none;stroke: #000;stroke-linecap: round;stroke-linejoin: round;stroke-width: 0.059999998658895px"/>
    <line x1="631.15" y1="334.476" x2="631.15" y2="356.436" style="fill: none;stroke: #000;stroke-linecap: round;stroke-linejoin: round;stroke-width: 0.059999998658895px"/>
    <line x1="468.791" y1="356.436" x2="468.791" y2="334.476" style="fill: none;stroke: #000;stroke-linecap: round;stroke-linejoin: round;stroke-width: 0.059999998658895px"/>
    <line x1="202.631" y1="334.476" x2="202.631" y2="356.436" style="fill: none;stroke: #000;stroke-linecap: round;stroke-linejoin: round;stroke-width: 0.059999998658895px"/>
    <rect x="37.991" y="334.476" width="765.96" height="21.96" style="fill: none;stroke: #000;stroke-linecap: round;stroke-linejoin: round;stroke-width: 1.02px"/>
    <path d="M368.38,348.786l.06-.12a15.318,15.318,0,0,1,1.86.48,4.3,4.3,0,0,1,.66.42.8.8,0,0,1,.18.48l-.12.6c-.12.3-.3.42-.48.42a.306.306,0,0,1-.3-.24,3.117,3.117,0,0,0-.18-.3,5.7,5.7,0,0,0-1.68-1.74m-6.24-1.38v2.34h1.56v-2.34Zm7.26.48v-1.62h-2.34v1.62Zm0-1.86v-1.56h-2.34v1.56Zm0-1.8v-1.38h-2.34v1.38Zm-6.84-.72-.6.78.3.12.78.24c.18-.3.36-.66.6-1.14Zm.9,2.04a10.138,10.138,0,0,1-1.56,1.32l.06.06.3.18h1.44l.54-.54.78.78.12.24-.06.12-.18.06v2.58a1.649,1.649,0,0,1-.78.12c-.24,0-.36,0-.36-.06l-.06-.18v-.24h-1.56v.48c0,.12,0,.18-.06.18-.06.12-.24.18-.66.18-.18,0-.36,0-.42-.06-.06,0-.12-.06-.12-.24a8.081,8.081,0,0,0,.06-1.32v-1.8a8.615,8.615,0,0,1-.96.42l-.12-.12a11.925,11.925,0,0,0,2.16-1.86c.18-.18.42-.48.72-.78l-.9-.6a9.18,9.18,0,0,1-1.8,1.5l-.12-.12a16.286,16.286,0,0,0,1.44-2.1,6.092,6.092,0,0,0,.66-1.8c.72.18,1.2.3,1.38.36q.18.09.18.18c0,.12-.18.18-.54.24-.12.24-.24.42-.3.54h.9l.54-.54.18.06a8.746,8.746,0,0,0,.24-1.02h-3.36l.06.24a1.972,1.972,0,0,1-.24,1.02.841.841,0,0,1-.66.48.329.329,0,0,1-.36-.24.968.968,0,0,1-.18-.54l.12-.36a.641.641,0,0,1,.3-.18,1.7,1.7,0,0,0,.54-.6,2.238,2.238,0,0,0,.12-.72l.18-.06a4.482,4.482,0,0,0,.12.66h1.14v-.54a4.85,4.85,0,0,0-.06-.96c.78.06,1.32.12,1.5.12.18.06.24.12.24.18s-.06.12-.18.18c-.06,0-.12.06-.3.12v.9h.96l.54-.54.96.84.12.12-.06.12c.3.18.6.36.96.6h.36q.09-.63.18-1.44v-.18h-1.26l-.78.06-.06-.42a2.781,2.781,0,0,0,.84.12h2.94l.84-.96,1.26,1.02.06.12c0,.06-.06.06-.12.06H369.1a14.829,14.829,0,0,1-1.26,1.62h1.44l.66-.72.9.66q.18.09.18.18c0,.12-.12.24-.42.36v1.38c0,1.86,0,3.12.06,3.78a.22.22,0,0,1-.06.18,1.649,1.649,0,0,1-.78.12h-.36l-.06-.18v-.24h-2.34v.18c0,.12-.06.18-.18.24a3.85,3.85,0,0,0,.66.3,2.437,2.437,0,0,1,.66.36l.12.12c0,.06-.06.12-.24.18h-.36a7.041,7.041,0,0,1-1.5.9c-.54.24-1.14.48-1.86.72l-.12-.18a7.168,7.168,0,0,0,2.58-2.4h-.6c-.24,0-.36,0-.42-.06v-.18c.06-.9.06-1.8.06-2.7,0-1.98,0-3.12-.06-3.42v-.12h-.12a3.826,3.826,0,0,1-.84.6l-.36.24c.18.12.42.3.72.48.06.06.12.12.12.18s-.06.12-.18.18a1.056,1.056,0,0,0-.36.06,6.909,6.909,0,0,1-.84,1.2,4.584,4.584,0,0,1,.96.48,1.019,1.019,0,0,1,.36.36l.12.36a.956.956,0,0,1-.24.72l-.24.12a.322.322,0,0,1-.24-.18l-.18-.18A6.273,6.273,0,0,0,363.46,345.546Zm-7.38,1.2a10.119,10.119,0,0,1,1.62.66c.18.06.24.12.24.18,0,.12-.18.18-.6.18-.48.54-.9.96-1.2,1.26a8.37,8.37,0,0,1-1.32.96l-.12-.06a10.634,10.634,0,0,0,.9-1.86C355.78,347.526,355.96,347.106,356.08,346.746Zm-6.3.12.06-.06a4.547,4.547,0,0,1,.96.54,4.746,4.746,0,0,1,.96.84.968.968,0,0,1,.18.54,1.117,1.117,0,0,1-.24.66.945.945,0,0,1-.42.42.458.458,0,0,1-.3.12c-.12,0-.18-.06-.24-.24a4.081,4.081,0,0,1-.24-.78,4.979,4.979,0,0,0-.3-1.2C350.08,347.526,349.96,347.226,349.78,346.866Zm4.08-5.94c-.48.66-.96,1.2-1.38,1.68a12.735,12.735,0,0,1-4.5,2.94l-.06-.06a16.666,16.666,0,0,0,4.32-4.74l.36-.84c.78.18,1.38.36,1.74.48.18.06.24.12.24.18s-.06.12-.12.18h-.36l-.06.06c.36.42.72.72,1.02,1.02a6.8,6.8,0,0,0,2.4,1.38q.81.27,1.98.54v.06a1.929,1.929,0,0,0-.9,1.26c-.06.12-.06.18-.12.18a1.076,1.076,0,0,1-.48-.24,12.244,12.244,0,0,1-1.74-1.14,7.852,7.852,0,0,1-1.62-1.86Q354.31,341.646,353.86,340.926Zm.3,5.22h2.34l.9-1.02,1.32,1.08.12.12c0,.06-.06.06-.18.06h-4.5v3.9h2.64c.36-.42.72-.78,1.02-1.08l1.38,1.14v.12c0,.06-.06.06-.12.06H349.06l-.72.06-.06-.42.78.12h3.78v-3.9h-3.48l-.66.06-.06-.42a2.238,2.238,0,0,0,.72.12h3.48v-1.8h-1.2l-.6.06-.06-.42.66.12h2.4l.84-1.02,1.2,1.08.06.12c0,.06-.06.06-.12.06h-1.86Zm-10.26,3.06v-.12a11.335,11.335,0,0,1,2.58.48.814.814,0,0,1,.42.78,1.078,1.078,0,0,1-.18.66l-.24.12a.434.434,0,0,1-.36-.24c-.18-.18-.48-.42-.84-.72a4.545,4.545,0,0,0-.78-.6C344.38,349.506,344.2,349.386,343.9,349.206Zm1.08-.78v-1.02H341.8v1.02Zm0-1.26v-.96H341.8v.96Zm0-1.2v-.9H341.8v.9Zm-3.18,3c.36.18.72.3,1.02.42a.928.928,0,0,0,.36.18l.06.12c0,.06,0,.12-.06.12-.06.06-.24.06-.54.06a10.442,10.442,0,0,1-1.5.66q-.9.27-1.98.54l-.06-.12c.54-.3.96-.54,1.32-.78a4.917,4.917,0,0,0,1.26-1.14,1.85,1.85,0,0,1-.6.06c-.24,0-.42,0-.48-.06a.22.22,0,0,0-.06-.18c.06-.78.06-1.62.06-2.64a18.129,18.129,0,0,0-.06-1.98l1.32.54h3l.66-.54.9.54c.06.06.12.12.12.18s-.06.12-.12.18l-.24.18v1.02l.06,2.34v.06a.22.22,0,0,1-.06.18,1.222,1.222,0,0,1-.66.12c-.3,0-.42,0-.48-.06l-.06-.12v-.18H341.8Zm2.1-7.68h1.26l.84-.78,1.08.84.06.12c0,.06-.06.06-.12.06H343.9v.96h1.14l.78-.72,1.02.78.06.12c0,.06-.06.06-.18.06H343.9v1.02h1.5a4.8,4.8,0,0,0,.78-.78l1.14.84.06.12a.129.129,0,0,1-.12.12h-6.48l-.6.06-.06-.42.66.06h1.92v-1.02h-1.38l-.6.06-.06-.42.66.12h1.38v-.96h-1.68l-.6.06-.06-.42a2.238,2.238,0,0,0,.72.12h1.62l-.06-1.32a11,11,0,0,1,1.5.18c.18.06.24.12.24.18l-.12.12c-.06.06-.18.06-.36.12Zm-4.98.12v1.92h.18l.6-.72.9.84.06.06a.129.129,0,0,1-.12.12h-1.62v1.02c.96.42,1.44.78,1.44,1.2a.956.956,0,0,1-.24.72c-.18.18-.3.3-.42.3-.06,0-.12-.06-.18-.24a6.376,6.376,0,0,0-.18-.84,2.088,2.088,0,0,0-.42-.9v5.88c0,.06-.06.12-.12.18a1.34,1.34,0,0,1-.72.12.574.574,0,0,1-.42-.12l-.06-.18c.06-.96.06-2.1.12-3.42v-1.26a8.417,8.417,0,0,1-.84,1.32,12.218,12.218,0,0,1-.9,1.02l-.12-.06a17.131,17.131,0,0,0,1.2-2.64c.18-.66.36-1.38.54-2.1h-.96l-.6.06-.06-.42.66.06h1.08v-1.68c-.42.06-.96.18-1.62.24l-.06-.12a11.932,11.932,0,0,0,2.16-1.02,12.092,12.092,0,0,0,1.14-.78q.72.45,1.26.72l.12.24a.129.129,0,0,1-.12.12,1.171,1.171,0,0,1-.42-.06C339.7,341.166,339.28,341.286,338.92,341.406Zm-15,9.66v-.18q.99-.36,1.44-.54a4.45,4.45,0,0,0,1.92-2.16,3.225,3.225,0,0,0,.3-1.26c.42.06.72.12.84.12a2.043,2.043,0,0,1,.9.24l.06.12c0,.06-.06.12-.12.18l-.3.06q-.27.63-.36.9l-.42.6C327.4,350.226,326.02,350.886,323.92,351.066Zm7.86-4.62v-1.74h-4.5v1.74Zm0-1.98v-1.62h-4.5v1.62Zm0-1.86v-1.62h-4.5v1.62Zm-.54,4.14v2.52l.06.24c0,.06.12.06.3.06h1.74a.363.363,0,0,0,.36-.18,21.487,21.487,0,0,0,.78-2.4h.12l-.06,2.1v.24l.18.12a.478.478,0,0,1,.42.54.612.612,0,0,1-.3.48.956.956,0,0,1-.72.24c-.18,0-.72,0-1.74.06-.9-.06-1.38-.06-1.56-.06l-.42-.06-.24-.12a1.206,1.206,0,0,1-.24-.48v-3.3h-2.64v.24a.22.22,0,0,1-.06.18,1.787,1.787,0,0,1-.84.12c-.24,0-.36,0-.42-.06l-.06-.18c.06-1.68.06-3.12.06-4.26s0-2.1-.06-2.82c.36.18.6.24.72.3a6.632,6.632,0,0,0,.78.42h4.2l.78-.72.96.72c.06.12.12.18.12.24s-.06.12-.12.18c0,.06-.06.12-.24.18v1.38c0,1.86,0,3.24.06,4.14a.353.353,0,0,1-.12.3,2.085,2.085,0,0,1-.78.06c-.24,0-.36,0-.42-.06l-.06-.12v-.24Zm-11.94-3.06a9.274,9.274,0,0,1-.42,1.38,8.232,8.232,0,0,1-2.1,2.7l-1.44.96-.06-.12a8.539,8.539,0,0,0,1.44-1.8,9.775,9.775,0,0,0,1.26-3.36,7.744,7.744,0,0,0,.18-1.44v-.24l.9.24v-1.02H316.9l-.78.06-.06-.42c.18.06.48.06.84.12h1.86l.48-.6.78.54.06.18q0,.09-.18.18a.22.22,0,0,1-.18.06l-.36.18a6.774,6.774,0,0,0,3.96,6.06v.12l-.24.06-.18.06-.48.66-.18.36c-.06.06-.12.12-.18.12s-.24-.12-.54-.42A8.379,8.379,0,0,1,319.3,343.686Zm-4.68,4.8c-.3.42-.54.72-.72,1.02a12.071,12.071,0,0,0-.84.96v.3l-.06.24h-.12q-.09,0-.18-.18c-.18-.42-.42-.9-.72-1.56a10.674,10.674,0,0,0,1.62-.72v-3.3h-.84l-.66.06-.12-.42a5.278,5.278,0,0,0,.84.06h.66l.36-.36.3-.36,1.08.78.06.18c0,.06,0,.06-.06.06a4.419,4.419,0,0,0-.36.3v2.88a1.785,1.785,0,0,0,.42.48,2.468,2.468,0,0,0,1.5.54h1.08c1.8,0,3.66-.06,5.52-.24v.12l-.42.36-.24.36-.06.24-.06.12v.24c0,.06-.06.06-.18.06H320.8c-1.86,0-3.06-.06-3.72-.12a2.634,2.634,0,0,1-1.44-.6,2.962,2.962,0,0,1-.84-1.14A.977.977,0,0,1,314.62,348.486Zm-2.16-8.34c.42.18.78.36,1.08.48a4.839,4.839,0,0,1,1.38.96l.12.48a1.752,1.752,0,0,1-.12.54,1.177,1.177,0,0,1-.54.54.458.458,0,0,1-.3.12q-.09,0-.18-.18c-.06-.06-.06-.12-.12-.3a6.965,6.965,0,0,0-1.38-2.52Zm-7.44,0,.12-.06a10.538,10.538,0,0,1,1.5.78.762.762,0,0,1,.42.66.964.964,0,0,1-.3.66.62.62,0,0,1-.48.24l-.3-.12a.8.8,0,0,0-.06-.3c-.18-.48-.3-.84-.42-1.08A3.03,3.03,0,0,0,305.02,340.146Zm-2.04,1.32v1.92h.18l.24-.36.3-.36.9.84.06.06a.129.129,0,0,1-.12.12h-1.56v.96c1.02.48,1.5.96,1.5,1.38a.968.968,0,0,1-.18.54.563.563,0,0,1-.48.36l-.18-.12c-.06-.06-.06-.18-.12-.48a5.041,5.041,0,0,0-.24-.84,2.432,2.432,0,0,0-.3-.54v5.76a.22.22,0,0,1-.06.18l-.12.12a1.866,1.866,0,0,1-.66.06.574.574,0,0,1-.42-.12l-.06-.18c.06-.66.06-1.86.12-3.54v-1.26a15.1,15.1,0,0,1-.9,1.44,4.779,4.779,0,0,1-.9,1.02l-.12-.06a16.782,16.782,0,0,0,1.14-2.58,12.81,12.81,0,0,0,.6-2.1h-.84l-.66.06-.06-.42a2.472,2.472,0,0,0,.72.06h1.02v-1.68q-.63.09-1.62.18l-.06-.12a8.773,8.773,0,0,0,2.16-.96,6.327,6.327,0,0,0,.78-.48l.42-.36c.6.42,1.02.66,1.26.84.06.06.12.12.12.18l-.06.12-.12.06a2.248,2.248,0,0,1-.48-.06A8.162,8.162,0,0,1,302.98,341.466Zm2.94,1.44v2.52h3.12v-2.52Zm0,3,.6.12a3.372,3.372,0,0,1,.78.12l.12.18c0,.06-.12.18-.42.24a6.83,6.83,0,0,1-.3,1.38,3.984,3.984,0,0,1-1.8,2.28c-.3.18-.66.36-1.02.54a4.867,4.867,0,0,1-.66.18l-.06-.12a6.3,6.3,0,0,0,1.44-1.14,4.748,4.748,0,0,0,.9-1.92,5.054,5.054,0,0,0,.24-1.62,2.052,2.052,0,0,1-.66.06.574.574,0,0,1-.42-.12v-1.86c0-.9,0-1.68-.06-2.28a6.046,6.046,0,0,1,1.38.72h1.62a6.984,6.984,0,0,0,.36-.9,7.743,7.743,0,0,0,.54-1.74c.72.24,1.26.42,1.56.54.18.06.24.18.24.24s-.06.06-.18.12c-.06.06-.24.06-.42.06-.3.3-.66.78-1.2,1.32l-.36.36h.84l.3-.42.36-.3.9.6.12.24c0,.06-.12.18-.36.3v.84l.06,1.92a.312.312,0,0,1-.12.24,1.854,1.854,0,0,1-.78.12c-.18,0-.3,0-.36-.06l-.06-.18v-.3h-.12v3.84a1.583,1.583,0,0,1,.42.06h.18a.775.775,0,0,0,.48-.12,1.149,1.149,0,0,0,.24-.48c.06-.24.18-.6.3-1.02.06-.18.18-.54.3-.96h.12l-.06,2.04v.24l.12.12a.641.641,0,0,1,.3.18c.06.06.06.12.06.3a.662.662,0,0,1-.3.6l-.36.12a8.114,8.114,0,0,1-1.38.06h-1.08a.751.751,0,0,1-.54-.3l-.06-.48v-4.2h-1.74Z"/>
    <text id="_tax-included_右寄" data-name="$tax-included$－右寄" text-anchor="end" transform="translate(714.211 348.877)" style="font-size: 10px;">$tax-included$</text>
    <text id="_tax-included-note_" data-name="$tax-included-note$" transform="translate(723.936 348.877)" style="font-size: 10px;">$tax-included-note$</text>
  </g>
</svg>
