<?xml version="1.0" encoding="UTF-8" standalone="no"?>
<!DOCTYPE svg PUBLIC "-//W3C//DTD SVG 1.1//EN"
 "http://www.w3.org/Graphics/SVG/1.1/DTD/svg11.dtd">
<!-- Generated by graphviz version 2.40.1 (20161225.0304)
 -->
<!-- Title: D Pages: 1 -->
<svg width="1283pt" height="1130pt"
 viewBox="14.40 14.40 1268.30 1115.60" xmlns="http://www.w3.org/2000/svg" xmlns:xlink="http://www.w3.org/1999/xlink">
<g id="graph0" class="graph" transform="scale(1 1) rotate(0) translate(18.4 1111.6)">
<title>D</title>
<polygon fill="#ffffff" stroke="transparent" points="-4,4 -4,-1097.2 1249.8962,-1097.2 1249.8962,4 -4,4"/>
<!-- メンテナンス(マップ/リスト) -->
<g id="node1" class="node">
<title>メンテナンス(マップ/リスト)</title>
<polygon fill="none" stroke="#000000" points="0,-637.3 0,-958.9 164,-958.9 164,-637.3 0,-637.3"/>
<text text-anchor="start" x="7" y="-942" font-family="Osaka-Mono,ＭＳ ゴシック" font-size="11.00" fill="#000000">メンテナンス(マップ/リスト)</text>
<polyline fill="none" stroke="#000000" points="0,-931.7 164,-931.7 "/>
<text text-anchor="start" x="7" y="-914.8" font-family="Osaka-Mono,ＭＳ ゴシック" font-size="11.00" fill="#000000">メンテナンス検索</text>
<text text-anchor="start" x="7" y="-901.6" font-family="Osaka-Mono,ＭＳ ゴシック" font-size="11.00" fill="#000000">メンテナンスリスト</text>
<text text-anchor="start" x="7" y="-888.4" font-family="Osaka-Mono,ＭＳ ゴシック" font-size="11.00" fill="#000000">└ Card</text>
<text text-anchor="start" x="7" y="-875.2" font-family="Osaka-Mono,ＭＳ ゴシック" font-size="11.00" fill="#000000">└ Button すべて</text>
<text text-anchor="start" x="7" y="-862" font-family="Osaka-Mono,ＭＳ ゴシック" font-size="11.00" fill="#000000">└ Button 未対応</text>
<text text-anchor="start" x="7" y="-848.8" font-family="Osaka-Mono,ＭＳ ゴシック" font-size="11.00" fill="#000000">└ Button 対応済</text>
<text text-anchor="start" x="7" y="-835.6" font-family="Osaka-Mono,ＭＳ ゴシック" font-size="11.00" fill="#000000">└ Button 新規登録</text>
<text text-anchor="start" x="7" y="-822.4" font-family="Osaka-Mono,ＭＳ ゴシック" font-size="11.00" fill="#000000">GoogleMap</text>
<text text-anchor="start" x="7" y="-809.2" font-family="Osaka-Mono,ＭＳ ゴシック" font-size="11.00" fill="#000000">└ InfoWindow</text>
<text text-anchor="start" x="7" y="-796" font-family="Osaka-Mono,ＭＳ ゴシック" font-size="11.00" fill="#000000">Button 新規登録</text>
<text text-anchor="start" x="7" y="-782.8" font-family="Osaka-Mono,ＭＳ ゴシック" font-size="11.00" fill="#000000">Button CSV出力</text>
<text text-anchor="start" x="7" y="-769.6" font-family="Osaka-Mono,ＭＳ ゴシック" font-size="11.00" fill="#000000">Button リスト表示</text>
<text text-anchor="start" x="7" y="-756.4" font-family="Osaka-Mono,ＭＳ ゴシック" font-size="11.00" fill="#000000">Button 戻る</text>
<polyline fill="none" stroke="#000000" points="0,-746.1 164,-746.1 "/>
<text text-anchor="start" x="7" y="-729.2" font-family="Osaka-Mono,ＭＳ ゴシック" font-size="11.00" fill="#000000">メンテナンス検索</text>
<polyline fill="none" stroke="#000000" points="0,-718.9 164,-718.9 "/>
<text text-anchor="start" x="7" y="-702" font-family="Osaka-Mono,ＭＳ ゴシック" font-size="11.00" fill="#000000">Card</text>
<polyline fill="none" stroke="#000000" points="0,-691.7 164,-691.7 "/>
<text text-anchor="start" x="7" y="-674.8" font-family="Osaka-Mono,ＭＳ ゴシック" font-size="11.00" fill="#000000">InfoWindow</text>
<polyline fill="none" stroke="#000000" points="0,-664.5 164,-664.5 "/>
<text text-anchor="start" x="7" y="-647.6" font-family="Osaka-Mono,ＭＳ ゴシック" font-size="11.00" fill="#000000">Click:新規登録</text>
</g>
<!-- Card&#45;メンテナンス -->
<g id="node2" class="node">
<title>Card&#45;メンテナンス</title>
<polygon fill="none" stroke="#000000" points="331,-676.7 331,-823.5 456,-823.5 456,-676.7 331,-676.7"/>
<text text-anchor="start" x="338" y="-806.6" font-family="Osaka-Mono,ＭＳ ゴシック" font-size="11.00" fill="#000000">Card&#45;メンテナンス</text>
<polyline fill="none" stroke="#000000" points="331,-796.3 456,-796.3 "/>
<text text-anchor="start" x="338" y="-779.4" font-family="Osaka-Mono,ＭＳ ゴシック" font-size="11.00" fill="#000000">メンテナンスタイトル</text>
<text text-anchor="start" x="338" y="-766.2" font-family="Osaka-Mono,ＭＳ ゴシック" font-size="11.00" fill="#000000">顧客名</text>
<text text-anchor="start" x="338" y="-753" font-family="Osaka-Mono,ＭＳ ゴシック" font-size="11.00" fill="#000000">顧客郵便番号</text>
<text text-anchor="start" x="338" y="-739.8" font-family="Osaka-Mono,ＭＳ ゴシック" font-size="11.00" fill="#000000">顧客住所</text>
<text text-anchor="start" x="338" y="-726.6" font-family="Osaka-Mono,ＭＳ ゴシック" font-size="11.00" fill="#000000">顧客電話番号</text>
<text text-anchor="start" x="338" y="-713.4" font-family="Osaka-Mono,ＭＳ ゴシック" font-size="11.00" fill="#000000">対応状況</text>
<text text-anchor="start" x="338" y="-700.2" font-family="Osaka-Mono,ＭＳ ゴシック" font-size="11.00" fill="#000000">顧客ランク</text>
<text text-anchor="start" x="338" y="-687" font-family="Osaka-Mono,ＭＳ ゴシック" font-size="11.00" fill="#000000">案件担当者</text>
</g>
<!-- メンテナンス(マップ/リスト)&#45;&gt;Card&#45;メンテナンス -->
<g id="edge2" class="edge">
<title>メンテナンス(マップ/リスト):action1&#45;&gt;Card&#45;メンテナンス</title>
<path fill="none" stroke="#777777" d="M164,-705.1C217.2241,-705.1 276.1158,-716.899 320.9155,-728.4135"/>
<polygon fill="#777777" stroke="#777777" points="320.2688,-731.8623 330.8297,-731.0159 322.0461,-725.0916 320.2688,-731.8623"/>
</g>
<!-- InfoWindow&#45;メンテナンス -->
<g id="node3" class="node">
<title>InfoWindow&#45;メンテナンス</title>
<polygon fill="none" stroke="#000000" points="322.5,-445.9 322.5,-646.3 464.5,-646.3 464.5,-445.9 322.5,-445.9"/>
<text text-anchor="start" x="329.5" y="-629.4" font-family="Osaka-Mono,ＭＳ ゴシック" font-size="11.00" fill="#000000">InfoWindow&#45;メンテナンス</text>
<polyline fill="none" stroke="#000000" points="322.5,-619.1 464.5,-619.1 "/>
<text text-anchor="start" x="329.5" y="-602.2" font-family="Osaka-Mono,ＭＳ ゴシック" font-size="11.00" fill="#000000">メンテナンスタイトル</text>
<text text-anchor="start" x="329.5" y="-589" font-family="Osaka-Mono,ＭＳ ゴシック" font-size="11.00" fill="#000000">顧客名</text>
<text text-anchor="start" x="329.5" y="-575.8" font-family="Osaka-Mono,ＭＳ ゴシック" font-size="11.00" fill="#000000">顧客郵便番号</text>
<text text-anchor="start" x="329.5" y="-562.6" font-family="Osaka-Mono,ＭＳ ゴシック" font-size="11.00" fill="#000000">Button ルート検索</text>
<text text-anchor="start" x="329.5" y="-549.4" font-family="Osaka-Mono,ＭＳ ゴシック" font-size="11.00" fill="#000000">顧客住所</text>
<text text-anchor="start" x="329.5" y="-536.2" font-family="Osaka-Mono,ＭＳ ゴシック" font-size="11.00" fill="#000000">顧客電話番号</text>
<text text-anchor="start" x="329.5" y="-523" font-family="Osaka-Mono,ＭＳ ゴシック" font-size="11.00" fill="#000000">案件担当者</text>
<text text-anchor="start" x="329.5" y="-509.8" font-family="Osaka-Mono,ＭＳ ゴシック" font-size="11.00" fill="#000000">対応状況</text>
<text text-anchor="start" x="329.5" y="-496.6" font-family="Osaka-Mono,ＭＳ ゴシック" font-size="11.00" fill="#000000">顧客ランク</text>
<text text-anchor="start" x="329.5" y="-483.4" font-family="Osaka-Mono,ＭＳ ゴシック" font-size="11.00" fill="#000000">Button メンテナンス詳細</text>
<polyline fill="none" stroke="#000000" points="322.5,-473.1 464.5,-473.1 "/>
<text text-anchor="start" x="329.5" y="-456.2" font-family="Osaka-Mono,ＭＳ ゴシック" font-size="11.00" fill="#000000">Click:メンテナンス詳細</text>
</g>
<!-- メンテナンス(マップ/リスト)&#45;&gt;InfoWindow&#45;メンテナンス -->
<g id="edge3" class="edge">
<title>メンテナンス(マップ/リスト):action2&#45;&gt;InfoWindow&#45;メンテナンス</title>
<path fill="none" stroke="#777777" d="M164,-678.1C172.6701,-678.1 250.8622,-632.2345 313.6026,-594.5755"/>
<polygon fill="#777777" stroke="#777777" points="315.576,-597.473 322.3441,-589.3217 311.97,-591.4732 315.576,-597.473"/>
</g>
<!-- メンテナンス検索 -->
<g id="node5" class="node">
<title>メンテナンス検索</title>
<polygon fill="none" stroke="#000000" points="209,-853.5 209,-1092.7 578,-1092.7 578,-853.5 209,-853.5"/>
<text text-anchor="start" x="216" y="-1075.8" font-family="Osaka-Mono,ＭＳ ゴシック" font-size="11.00" fill="#000000">メンテナンス検索</text>
<polyline fill="none" stroke="#000000" points="209,-1065.5 578,-1065.5 "/>
<text text-anchor="start" x="216" y="-1048.6" font-family="Osaka-Mono,ＭＳ ゴシック" font-size="11.00" fill="#000000">Selectには「全て」を追加</text>
<text text-anchor="start" x="216" y="-1035.4" font-family="Osaka-Mono,ＭＳ ゴシック" font-size="11.00" fill="#000000"> &#45;&#45;&#45;&#45;&#45;&#45;&#45;&#45;&#45;&#45;</text>
<text text-anchor="start" x="216" y="-1022.2" font-family="Osaka-Mono,ＭＳ ゴシック" font-size="11.00" fill="#000000">Date　 メンテンス日(最小値)</text>
<text text-anchor="start" x="216" y="-1009" font-family="Osaka-Mono,ＭＳ ゴシック" font-size="11.00" fill="#000000">Date　 メンテンス日(最大値)</text>
<text text-anchor="start" x="216" y="-995.8" font-family="Osaka-Mono,ＭＳ ゴシック" font-size="11.00" fill="#000000">Select 案件営業担当(店舗) &lt;初期表示ログイン者の店舗&gt;</text>
<text text-anchor="start" x="216" y="-982.6" font-family="Osaka-Mono,ＭＳ ゴシック" font-size="11.00" fill="#000000">Select 案件営業担当(担当者) &lt;初期表示ログイン者&gt;</text>
<text text-anchor="start" x="216" y="-969.4" font-family="Osaka-Mono,ＭＳ ゴシック" font-size="11.00" fill="#000000">Date　 完工日(最小値)</text>
<text text-anchor="start" x="216" y="-956.2" font-family="Osaka-Mono,ＭＳ ゴシック" font-size="11.00" fill="#000000">Date　 完工日(最大値)</text>
<text text-anchor="start" x="216" y="-943" font-family="Osaka-Mono,ＭＳ ゴシック" font-size="11.00" fill="#000000">Input　案件名</text>
<text text-anchor="start" x="216" y="-929.8" font-family="Osaka-Mono,ＭＳ ゴシック" font-size="11.00" fill="#000000">Check　無効情報も含む</text>
<text text-anchor="start" x="216" y="-916.6" font-family="Osaka-Mono,ＭＳ ゴシック" font-size="11.00" fill="#000000">Radio　対応区分</text>
<text text-anchor="start" x="216" y="-903.4" font-family="Osaka-Mono,ＭＳ ゴシック" font-size="11.00" fill="#000000">└ 未対応 &lt;Default Checked&gt;</text>
<text text-anchor="start" x="216" y="-890.2" font-family="Osaka-Mono,ＭＳ ゴシック" font-size="11.00" fill="#000000">└ すべて</text>
<text text-anchor="start" x="216" y="-877" font-family="Osaka-Mono,ＭＳ ゴシック" font-size="11.00" fill="#000000">Input　文字列検索 &lt;※検索対象項目：タイトル、詳細内容、対応内容&gt;</text>
<text text-anchor="start" x="216" y="-863.8" font-family="Osaka-Mono,ＭＳ ゴシック" font-size="11.00" fill="#000000">Button 検索</text>
</g>
<!-- メンテナンス(マップ/リスト)&#45;&gt;メンテナンス検索 -->
<g id="edge1" class="edge">
<title>メンテナンス(マップ/リスト):action0&#45;&gt;メンテナンス検索</title>
<path fill="none" stroke="#777777" d="M164,-732.1C213.8987,-732.1 170.9007,-798.3016 201,-838.1 202.8467,-840.5418 204.7504,-842.9563 206.7062,-845.3432"/>
<polygon fill="#777777" stroke="#777777" points="204.392,-848.0227 213.5495,-853.3511 209.7136,-843.475 204.392,-848.0227"/>
</g>
<!-- メンテナンス新規登録/編集 -->
<g id="node6" class="node">
<title>メンテナンス新規登録/編集</title>
<polygon fill="none" stroke="#000000" points="642.8962,-131.7 642.8962,-570.5 955.8962,-570.5 955.8962,-131.7 642.8962,-131.7"/>
<text text-anchor="start" x="649.8962" y="-553.6" font-family="Osaka-Mono,ＭＳ ゴシック" font-size="11.00" fill="#000000">メンテナンス新規登録/編集</text>
<polyline fill="none" stroke="#000000" points="642.8962,-543.3 955.8962,-543.3 "/>
<text text-anchor="start" x="649.8962" y="-526.4" font-family="Osaka-Mono,ＭＳ ゴシック" font-size="11.00" fill="#000000">新規:案件参照</text>
<text text-anchor="start" x="649.8962" y="-513.2" font-family="Osaka-Mono,ＭＳ ゴシック" font-size="11.00" fill="#000000">Check 未完工・完工・完了</text>
<text text-anchor="start" x="649.8962" y="-500" font-family="Osaka-Mono,ＭＳ ゴシック" font-size="11.00" fill="#000000"> &#45;&#45;&#45;&#45;&#45;&#45;&#45;&#45;&#45;&#45;</text>
<text text-anchor="start" x="649.8962" y="-486.8" font-family="Osaka-Mono,ＭＳ ゴシック" font-size="11.00" fill="#000000">Input　＊案件名</text>
<text text-anchor="start" x="649.8962" y="-473.6" font-family="Osaka-Mono,ＭＳ ゴシック" font-size="11.00" fill="#000000">Button 案件参照</text>
<text text-anchor="start" x="649.8962" y="-460.4" font-family="Osaka-Mono,ＭＳ ゴシック" font-size="11.00" fill="#000000">Input　契約日</text>
<text text-anchor="start" x="649.8962" y="-447.2" font-family="Osaka-Mono,ＭＳ ゴシック" font-size="11.00" fill="#000000">　　　 Enabled 　 : False</text>
<text text-anchor="start" x="649.8962" y="-434" font-family="Osaka-Mono,ＭＳ ゴシック" font-size="11.00" fill="#000000">Input　着工日</text>
<text text-anchor="start" x="649.8962" y="-420.8" font-family="Osaka-Mono,ＭＳ ゴシック" font-size="11.00" fill="#000000">　　　 Enabled 　 : False</text>
<text text-anchor="start" x="649.8962" y="-407.6" font-family="Osaka-Mono,ＭＳ ゴシック" font-size="11.00" fill="#000000">Input　完工日</text>
<text text-anchor="start" x="649.8962" y="-394.4" font-family="Osaka-Mono,ＭＳ ゴシック" font-size="11.00" fill="#000000">　　　 Enabled 　 : False</text>
<text text-anchor="start" x="649.8962" y="-381.2" font-family="Osaka-Mono,ＭＳ ゴシック" font-size="11.00" fill="#000000">Date　 ＊メンテンス日</text>
<text text-anchor="start" x="649.8962" y="-368" font-family="Osaka-Mono,ＭＳ ゴシック" font-size="11.00" fill="#000000">Button 1ヶ月 &lt;当日から1ヶ月後をメンテンス日に自動入力&gt;</text>
<text text-anchor="start" x="649.8962" y="-354.8" font-family="Osaka-Mono,ＭＳ ゴシック" font-size="11.00" fill="#000000">Button 3ヶ月 &lt;上に同じ&gt;</text>
<text text-anchor="start" x="649.8962" y="-341.6" font-family="Osaka-Mono,ＭＳ ゴシック" font-size="11.00" fill="#000000">Button 6ヶ月 &lt;上に同じ&gt;</text>
<text text-anchor="start" x="649.8962" y="-328.4" font-family="Osaka-Mono,ＭＳ ゴシック" font-size="11.00" fill="#000000">Button 1年 &lt;上に同じ&gt;</text>
<text text-anchor="start" x="649.8962" y="-315.2" font-family="Osaka-Mono,ＭＳ ゴシック" font-size="11.00" fill="#000000">Button 2年 &lt;上に同じ&gt;</text>
<text text-anchor="start" x="649.8962" y="-302" font-family="Osaka-Mono,ＭＳ ゴシック" font-size="11.00" fill="#000000">Button 3年 &lt;上に同じ&gt;</text>
<text text-anchor="start" x="649.8962" y="-288.8" font-family="Osaka-Mono,ＭＳ ゴシック" font-size="11.00" fill="#000000">Input　＊タイトル &lt;上のボタンを押された場合自動入力&gt;</text>
<text text-anchor="start" x="649.8962" y="-275.6" font-family="Osaka-Mono,ＭＳ ゴシック" font-size="11.00" fill="#000000">　　　 Validation : 60文字まで</text>
<text text-anchor="start" x="649.8962" y="-262.4" font-family="Osaka-Mono,ＭＳ ゴシック" font-size="11.00" fill="#000000">Text　 詳細内容</text>
<text text-anchor="start" x="649.8962" y="-249.2" font-family="Osaka-Mono,ＭＳ ゴシック" font-size="11.00" fill="#000000">Date　 対応日</text>
<text text-anchor="start" x="649.8962" y="-236" font-family="Osaka-Mono,ＭＳ ゴシック" font-size="11.00" fill="#000000">Text　 対応内容</text>
<text text-anchor="start" x="649.8962" y="-222.8" font-family="Osaka-Mono,ＭＳ ゴシック" font-size="11.00" fill="#000000">Check　対応済みフラグ</text>
<text text-anchor="start" x="649.8962" y="-209.6" font-family="Osaka-Mono,ＭＳ ゴシック" font-size="11.00" fill="#000000">Check　無効フラグ</text>
<text text-anchor="start" x="649.8962" y="-196.4" font-family="Osaka-Mono,ＭＳ ゴシック" font-size="11.00" fill="#000000">Button 登録</text>
<polyline fill="none" stroke="#000000" points="642.8962,-186.1 955.8962,-186.1 "/>
<text text-anchor="start" x="649.8962" y="-169.2" font-family="Osaka-Mono,ＭＳ ゴシック" font-size="11.00" fill="#000000">Click:登録(Success)</text>
<polyline fill="none" stroke="#000000" points="642.8962,-158.9 955.8962,-158.9 "/>
<text text-anchor="start" x="649.8962" y="-142" font-family="Osaka-Mono,ＭＳ ゴシック" font-size="11.00" fill="#000000">Click:登録(Error)</text>
</g>
<!-- メンテナンス(マップ/リスト)&#45;&gt;メンテナンス新規登録/編集 -->
<g id="edge4" class="edge">
<title>メンテナンス(マップ/リスト):action3&#45;&gt;メンテナンス新規登録/編集</title>
<path fill="none" stroke="#777777" d="M164,-651.1C215.9438,-651.1 163.4742,-456.2161 201,-420.3 231.8037,-390.8176 466.2109,-370.8151 632.3082,-360.179"/>
<polygon fill="#777777" stroke="#777777" points="632.8902,-363.6492 642.6486,-359.5233 632.4472,-356.6633 632.8902,-363.6492"/>
<text text-anchor="middle" x="393.5" y="-423.8" font-family="Osaka-Mono,ＭＳ ゴシック" font-size="9.00" fill="#000000">新規</text>
</g>
<!-- InfoWindow&#45;メンテナンス&#45;&gt;メンテナンス新規登録/編集 -->
<g id="edge5" class="edge">
<title>InfoWindow&#45;メンテナンス:action0&#45;&gt;メンテナンス新規登録/編集</title>
<path fill="none" stroke="#777777" d="M464.5,-459.1C520.8605,-459.1 580.0931,-445.0735 632.8079,-427.1302"/>
<polygon fill="#777777" stroke="#777777" points="634.2759,-430.3255 642.5729,-423.7368 631.9781,-423.7133 634.2759,-430.3255"/>
<text text-anchor="middle" x="614.4481" y="-438.8" font-family="Osaka-Mono,ＭＳ ゴシック" font-size="9.00" fill="#000000">編集</text>
</g>
<!-- メンテナンス(リスト) -->
<g id="node4" class="node">
<title>メンテナンス(リスト)</title>
<polygon fill="none" stroke="#000000" points="201,-.5 201,-347.7 586,-347.7 586,-.5 201,-.5"/>
<text text-anchor="start" x="208" y="-330.8" font-family="Osaka-Mono,ＭＳ ゴシック" font-size="11.00" fill="#000000">メンテナンス(リスト)</text>
<polyline fill="none" stroke="#000000" points="201,-320.5 586,-320.5 "/>
<text text-anchor="start" x="208" y="-303.6" font-family="Osaka-Mono,ＭＳ ゴシック" font-size="11.00" fill="#000000">メンテナンス検索</text>
<text text-anchor="start" x="208" y="-290.4" font-family="Osaka-Mono,ＭＳ ゴシック" font-size="11.00" fill="#000000">ページャ</text>
<text text-anchor="start" x="208" y="-277.2" font-family="Osaka-Mono,ＭＳ ゴシック" font-size="11.00" fill="#000000">リスト</text>
<text text-anchor="start" x="208" y="-264" font-family="Osaka-Mono,ＭＳ ゴシック" font-size="11.00" fill="#000000">項目</text>
<text text-anchor="start" x="208" y="-250.8" font-family="Osaka-Mono,ＭＳ ゴシック" font-size="11.00" fill="#000000">└ メンテナンス過ぎているマーク(true:過ぎている false:過ぎていない)</text>
<text text-anchor="start" x="208" y="-237.6" font-family="Osaka-Mono,ＭＳ ゴシック" font-size="11.00" fill="#000000">└ 対応済みマーク</text>
<text text-anchor="start" x="208" y="-224.4" font-family="Osaka-Mono,ＭＳ ゴシック" font-size="11.00" fill="#000000">└ メンテナンス日</text>
<text text-anchor="start" x="208" y="-211.2" font-family="Osaka-Mono,ＭＳ ゴシック" font-size="11.00" fill="#000000">└ メンテナンスタイトル</text>
<text text-anchor="start" x="208" y="-198" font-family="Osaka-Mono,ＭＳ ゴシック" font-size="11.00" fill="#000000">└ 対応日</text>
<text text-anchor="start" x="208" y="-184.8" font-family="Osaka-Mono,ＭＳ ゴシック" font-size="11.00" fill="#000000">└ 完工日</text>
<text text-anchor="start" x="208" y="-171.6" font-family="Osaka-Mono,ＭＳ ゴシック" font-size="11.00" fill="#000000">└ 顧客名</text>
<text text-anchor="start" x="208" y="-158.4" font-family="Osaka-Mono,ＭＳ ゴシック" font-size="11.00" fill="#000000">└ 案件名</text>
<text text-anchor="start" x="208" y="-145.2" font-family="Osaka-Mono,ＭＳ ゴシック" font-size="11.00" fill="#000000">└ 案件担当者</text>
<text text-anchor="start" x="208" y="-132" font-family="Osaka-Mono,ＭＳ ゴシック" font-size="11.00" fill="#000000">Button メンテナンス新規登録</text>
<text text-anchor="start" x="208" y="-118.8" font-family="Osaka-Mono,ＭＳ ゴシック" font-size="11.00" fill="#000000">Button CSV出力</text>
<text text-anchor="start" x="208" y="-105.6" font-family="Osaka-Mono,ＭＳ ゴシック" font-size="11.00" fill="#000000">Button リスト表示</text>
<text text-anchor="start" x="208" y="-92.4" font-family="Osaka-Mono,ＭＳ ゴシック" font-size="11.00" fill="#000000">Button 戻る</text>
<polyline fill="none" stroke="#000000" points="201,-82.1 586,-82.1 "/>
<text text-anchor="start" x="208" y="-65.2" font-family="Osaka-Mono,ＭＳ ゴシック" font-size="11.00" fill="#000000">Click:Row(Active)</text>
<polyline fill="none" stroke="#000000" points="201,-54.9 586,-54.9 "/>
<text text-anchor="start" x="208" y="-38" font-family="Osaka-Mono,ＭＳ ゴシック" font-size="11.00" fill="#000000">DbClick:Row(Active)</text>
<polyline fill="none" stroke="#000000" points="201,-27.7 586,-27.7 "/>
<text text-anchor="start" x="208" y="-10.8" font-family="Osaka-Mono,ＭＳ ゴシック" font-size="11.00" fill="#000000">Click:メンテナンス新規登録</text>
</g>
<!-- メンテナンス(リスト)&#45;&gt;メンテナンス(リスト) -->
<g id="edge6" class="edge">
<title>メンテナンス(リスト):action0&#45;&gt;メンテナンス(リスト)</title>
<path fill="none" stroke="#777777" d="M200.7156,-64.6302C141.9716,-71.7507 96,-88.6024 96,-121.1 96,-151.6934 136.7421,-168.4208 190.5277,-176.2167"/>
<polygon fill="#777777" stroke="#777777" points="190.3418,-179.7227 200.7156,-177.5698 191.2635,-172.7836 190.3418,-179.7227"/>
</g>
<!-- メンテナンス(リスト)&#45;&gt;メンテナンス新規登録/編集 -->
<g id="edge7" class="edge">
<title>メンテナンス(リスト):action1&#45;&gt;メンテナンス新規登録/編集</title>
<path fill="none" stroke="#777777" d="M586,-41.1C618.1232,-41.1 589.5235,-82.4237 604,-111.1 613.554,-130.0253 624.8046,-148.8181 637.002,-167.0697"/>
<polygon fill="#777777" stroke="#777777" points="634.1565,-169.1097 642.6701,-175.416 639.9474,-165.177 634.1565,-169.1097"/>
<text text-anchor="middle" x="614.4481" y="-150.8" font-family="Osaka-Mono,ＭＳ ゴシック" font-size="9.00" fill="#000000">編集</text>
</g>
<!-- メンテナンス(リスト)&#45;&gt;メンテナンス新規登録/編集 -->
<g id="edge8" class="edge">
<title>メンテナンス(リスト):action2&#45;&gt;メンテナンス新規登録/編集</title>
<path fill="none" stroke="#777777" d="M586,-14.1C653.1593,-14.1 700.0597,-62.4636 732.4123,-122.5476"/>
<polygon fill="#777777" stroke="#777777" points="729.3512,-124.2471 737.0807,-131.4932 735.5569,-121.0085 729.3512,-124.2471"/>
<text text-anchor="middle" x="614.4481" y="-20.8" font-family="Osaka-Mono,ＭＳ ゴシック" font-size="9.00" fill="#000000">新規</text>
</g>
<!-- メンテナンス新規登録/編集Success -->
<g id="node7" class="node">
<title>メンテナンス新規登録/編集Success</title>
<polygon fill="none" stroke="#000000" points="1023.3962,-150.7 1023.3962,-297.5 1215.3962,-297.5 1215.3962,-150.7 1023.3962,-150.7"/>
<text text-anchor="start" x="1030.3962" y="-280.6" font-family="Osaka-Mono,ＭＳ ゴシック" font-size="11.00" fill="#000000">メンテナンス新規登録/編集Success</text>
<polyline fill="none" stroke="#000000" points="1023.3962,-270.3 1215.3962,-270.3 "/>
<text text-anchor="start" x="1030.3962" y="-253.4" font-family="Osaka-Mono,ＭＳ ゴシック" font-size="11.00" fill="#000000">確認ダイアログ表示</text>
<text text-anchor="start" x="1030.3962" y="-240.2" font-family="Osaka-Mono,ＭＳ ゴシック" font-size="11.00" fill="#000000">title: 登録確認</text>
<text text-anchor="start" x="1030.3962" y="-227" font-family="Osaka-Mono,ＭＳ ゴシック" font-size="11.00" fill="#000000">main : 登録しますか</text>
<text text-anchor="start" x="1030.3962" y="-213.8" font-family="Osaka-Mono,ＭＳ ゴシック" font-size="11.00" fill="#000000">=&gt;保存</text>
<text text-anchor="start" x="1030.3962" y="-200.6" font-family="Osaka-Mono,ＭＳ ゴシック" font-size="11.00" fill="#000000"> &#45;&#45;&#45;&#45;&#45;&#45;&#45;&#45;&#45;&#45;</text>
<text text-anchor="start" x="1030.3962" y="-187.4" font-family="Osaka-Mono,ＭＳ ゴシック" font-size="11.00" fill="#000000">復帰処理</text>
<text text-anchor="start" x="1030.3962" y="-174.2" font-family="Osaka-Mono,ＭＳ ゴシック" font-size="11.00" fill="#000000">新規: 一覧取得</text>
<text text-anchor="start" x="1030.3962" y="-161" font-family="Osaka-Mono,ＭＳ ゴシック" font-size="11.00" fill="#000000">編集: 一覧取得</text>
</g>
<!-- メンテナンス新規登録/編集&#45;&gt;メンテナンス新規登録/編集Success -->
<g id="edge9" class="edge">
<title>メンテナンス新規登録/編集:action0&#45;&gt;メンテナンス新規登録/編集Success</title>
<path fill="none" stroke="#777777" d="M955.8962,-172.1C974.92,-172.1 994.628,-175.3365 1013.4948,-180.1947"/>
<polygon fill="#777777" stroke="#777777" points="1012.7067,-183.6077 1023.2761,-182.8744 1014.5563,-176.8565 1012.7067,-183.6077"/>
</g>
<!-- メンテナンス新規登録/編集Error -->
<g id="node8" class="node">
<title>メンテナンス新規登録/編集Error</title>
<polygon fill="none" stroke="#000000" points="992.8962,-65.9 992.8962,-120.3 1245.8962,-120.3 1245.8962,-65.9 992.8962,-65.9"/>
<text text-anchor="start" x="999.8962" y="-103.4" font-family="Osaka-Mono,ＭＳ ゴシック" font-size="11.00" fill="#000000">メンテナンス新規登録/編集Error</text>
<polyline fill="none" stroke="#000000" points="992.8962,-93.1 1245.8962,-93.1 "/>
<text text-anchor="start" x="999.8962" y="-76.2" font-family="Osaka-Mono,ＭＳ ゴシック" font-size="11.00" fill="#000000">未・誤入力: 未入力/入力不備項目があります。</text>
</g>
<!-- メンテナンス新規登録/編集&#45;&gt;メンテナンス新規登録/編集Error -->
<g id="edge10" class="edge">
<title>メンテナンス新規登録/編集:action1&#45;&gt;メンテナンス新規登録/編集Error</title>
<path fill="none" stroke="#777777" d="M955.8962,-145.1C964.3365,-145.1 997.3533,-134.9066 1031.5296,-123.5461"/>
<polygon fill="#777777" stroke="#777777" points="1032.8069,-126.8095 1041.1804,-120.3184 1030.5866,-120.171 1032.8069,-126.8095"/>
</g>
</g>
</svg>
