<?xml version="1.0" encoding="UTF-8" standalone="no"?>
<!DOCTYPE svg PUBLIC "-//W3C//DTD SVG 1.1//EN"
 "http://www.w3.org/Graphics/SVG/1.1/DTD/svg11.dtd">
<!-- Generated by graphviz version 2.40.1 (20161225.0304)
 -->
<!-- Title: D Pages: 1 -->
<svg width="855pt" height="683pt"
 viewBox="14.40 14.40 840.32 668.80" xmlns="http://www.w3.org/2000/svg" xmlns:xlink="http://www.w3.org/1999/xlink">
<g id="graph0" class="graph" transform="scale(1 1) rotate(0) translate(18.4 664.8)">
<title>D</title>
<polygon fill="#ffffff" stroke="transparent" points="-4,4 -4,-650.4 821.9164,-650.4 821.9164,4 -4,4"/>
<!-- 対応履歴(リスト) -->
<g id="node1" class="node">
<title>対応履歴(リスト)</title>
<polygon fill="none" stroke="#000000" points="49,-279.9 49,-601.5 191.0202,-601.5 191.0202,-279.9 49,-279.9"/>
<text text-anchor="start" x="56" y="-584.6" font-family="Osaka-Mono,ＭＳ ゴシック" font-size="11.00" fill="#000000">対応履歴(リスト)</text>
<polyline fill="none" stroke="#000000" points="49,-574.3 191.0202,-574.3 "/>
<text text-anchor="start" x="56" y="-557.4" font-family="Osaka-Mono,ＭＳ ゴシック" font-size="11.00" fill="#000000">対応履歴検索</text>
<text text-anchor="start" x="56" y="-544.2" font-family="Osaka-Mono,ＭＳ ゴシック" font-size="11.00" fill="#000000">リスト</text>
<text text-anchor="start" x="56" y="-531" font-family="Osaka-Mono,ＭＳ ゴシック" font-size="11.00" fill="#000000">項目</text>
<text text-anchor="start" x="56" y="-517.8" font-family="Osaka-Mono,ＭＳ ゴシック" font-size="11.00" fill="#000000">└ 対応済</text>
<text text-anchor="start" x="56" y="-504.6" font-family="Osaka-Mono,ＭＳ ゴシック" font-size="11.00" fill="#000000">└ 受付日時</text>
<text text-anchor="start" x="56" y="-491.4" font-family="Osaka-Mono,ＭＳ ゴシック" font-size="11.00" fill="#000000">└ カテゴリ</text>
<text text-anchor="start" x="56" y="-478.2" font-family="Osaka-Mono,ＭＳ ゴシック" font-size="11.00" fill="#000000">└ 顧客名</text>
<text text-anchor="start" x="56" y="-465" font-family="Osaka-Mono,ＭＳ ゴシック" font-size="11.00" fill="#000000">└ 案件担当者</text>
<text text-anchor="start" x="56" y="-451.8" font-family="Osaka-Mono,ＭＳ ゴシック" font-size="11.00" fill="#000000">└ 対応者</text>
<text text-anchor="start" x="56" y="-438.6" font-family="Osaka-Mono,ＭＳ ゴシック" font-size="11.00" fill="#000000">└ 対応日</text>
<text text-anchor="start" x="56" y="-425.4" font-family="Osaka-Mono,ＭＳ ゴシック" font-size="11.00" fill="#000000">Button 対応履歴新規登録</text>
<text text-anchor="start" x="56" y="-412.2" font-family="Osaka-Mono,ＭＳ ゴシック" font-size="11.00" fill="#000000">Button CSV出力</text>
<text text-anchor="start" x="56" y="-399" font-family="Osaka-Mono,ＭＳ ゴシック" font-size="11.00" fill="#000000">Button 戻る</text>
<polyline fill="none" stroke="#000000" points="49,-388.7 191.0202,-388.7 "/>
<text text-anchor="start" x="56" y="-371.8" font-family="Osaka-Mono,ＭＳ ゴシック" font-size="11.00" fill="#000000">対応履歴検索</text>
<polyline fill="none" stroke="#000000" points="49,-361.5 191.0202,-361.5 "/>
<text text-anchor="start" x="56" y="-344.6" font-family="Osaka-Mono,ＭＳ ゴシック" font-size="11.00" fill="#000000">Click:Row(Active)</text>
<polyline fill="none" stroke="#000000" points="49,-334.3 191.0202,-334.3 "/>
<text text-anchor="start" x="56" y="-317.4" font-family="Osaka-Mono,ＭＳ ゴシック" font-size="11.00" fill="#000000">DbClick:Row(Active)</text>
<polyline fill="none" stroke="#000000" points="49,-307.1 191.0202,-307.1 "/>
<text text-anchor="start" x="56" y="-290.2" font-family="Osaka-Mono,ＭＳ ゴシック" font-size="11.00" fill="#000000">Click:新規登録</text>
</g>
<!-- 対応履歴(リスト)&#45;&gt;対応履歴(リスト) -->
<g id="edge2" class="edge">
<title>対応履歴(リスト):action1&#45;&gt;対応履歴(リスト)</title>
<path fill="none" stroke="#777777" d="M48.8494,-341.8243C22.0847,-346.9405 0,-362.1512 0,-394.2 0,-422.2427 16.9086,-437.3937 39.066,-444.1708"/>
<polygon fill="#777777" stroke="#777777" points="38.303,-447.5874 48.8494,-446.5757 39.974,-440.7897 38.303,-447.5874"/>
</g>
<!-- 対応履歴検索 -->
<g id="node2" class="node">
<title>対応履歴検索</title>
<polygon fill="none" stroke="#000000" points="300.4164,-525.5 300.4164,-645.9 475.4164,-645.9 475.4164,-525.5 300.4164,-525.5"/>
<text text-anchor="start" x="307.4164" y="-629" font-family="Osaka-Mono,ＭＳ ゴシック" font-size="11.00" fill="#000000">対応履歴検索</text>
<polyline fill="none" stroke="#000000" points="300.4164,-618.7 475.4164,-618.7 "/>
<text text-anchor="start" x="307.4164" y="-601.8" font-family="Osaka-Mono,ＭＳ ゴシック" font-size="11.00" fill="#000000">Input　顧客名</text>
<text text-anchor="start" x="307.4164" y="-588.6" font-family="Osaka-Mono,ＭＳ ゴシック" font-size="11.00" fill="#000000">Input　案件名</text>
<text text-anchor="start" x="307.4164" y="-575.4" font-family="Osaka-Mono,ＭＳ ゴシック" font-size="11.00" fill="#000000">Input　対応履歴名</text>
<text text-anchor="start" x="307.4164" y="-562.2" font-family="Osaka-Mono,ＭＳ ゴシック" font-size="11.00" fill="#000000">Date　 アップロード日(最小値)</text>
<text text-anchor="start" x="307.4164" y="-549" font-family="Osaka-Mono,ＭＳ ゴシック" font-size="11.00" fill="#000000">Date　 アップロード日(最大値)</text>
<text text-anchor="start" x="307.4164" y="-535.8" font-family="Osaka-Mono,ＭＳ ゴシック" font-size="11.00" fill="#000000">Button 検索</text>
</g>
<!-- 対応履歴(リスト)&#45;&gt;対応履歴検索 -->
<g id="edge1" class="edge">
<title>対応履歴(リスト):action0&#45;&gt;対応履歴検索</title>
<path fill="none" stroke="#777777" d="M191.0101,-374.7C256.1228,-374.7 204.1952,-461.4494 247.9164,-509.7 260.2162,-523.2741 275.5231,-534.9116 291.4575,-544.706"/>
<polygon fill="#777777" stroke="#777777" points="289.9683,-547.8911 300.3595,-549.9583 293.5254,-541.8623 289.9683,-547.8911"/>
</g>
<!-- 対応履歴新規登録/編集 -->
<g id="node3" class="node">
<title>対応履歴新規登録/編集</title>
<polygon fill="none" stroke="#000000" points="247.9164,-56.3 247.9164,-495.1 527.9164,-495.1 527.9164,-56.3 247.9164,-56.3"/>
<text text-anchor="start" x="254.9164" y="-478.2" font-family="Osaka-Mono,ＭＳ ゴシック" font-size="11.00" fill="#000000">対応履歴新規登録/編集</text>
<polyline fill="none" stroke="#000000" points="247.9164,-467.9 527.9164,-467.9 "/>
<text text-anchor="start" x="254.9164" y="-451" font-family="Osaka-Mono,ＭＳ ゴシック" font-size="11.00" fill="#000000">ファイル複数アップロード可能</text>
<text text-anchor="start" x="254.9164" y="-437.8" font-family="Osaka-Mono,ＭＳ ゴシック" font-size="11.00" fill="#000000"> &#45;&#45;&#45;&#45;&#45;&#45;&#45;&#45;&#45;&#45;</text>
<text text-anchor="start" x="254.9164" y="-424.6" font-family="Osaka-Mono,ＭＳ ゴシック" font-size="11.00" fill="#000000">Date　 ＊受付日時 &lt;初期表示:当日の今の時間&gt;</text>
<text text-anchor="start" x="254.9164" y="-411.4" font-family="Osaka-Mono,ＭＳ ゴシック" font-size="11.00" fill="#000000">Select 時 &lt;初期表示:当日の今の時間&gt;</text>
<text text-anchor="start" x="254.9164" y="-398.2" font-family="Osaka-Mono,ＭＳ ゴシック" font-size="11.00" fill="#000000">Select 分 &lt;初期表示:当日の今の時間&gt;</text>
<text text-anchor="start" x="254.9164" y="-385" font-family="Osaka-Mono,ＭＳ ゴシック" font-size="11.00" fill="#000000">Select 対応担当(店舗) &lt;初期表示ログイン者の店舗&gt;</text>
<text text-anchor="start" x="254.9164" y="-371.8" font-family="Osaka-Mono,ＭＳ ゴシック" font-size="11.00" fill="#000000">Select 対応担当(担当者) &lt;初期表示ログイン者&gt;</text>
<text text-anchor="start" x="254.9164" y="-358.6" font-family="Osaka-Mono,ＭＳ ゴシック" font-size="11.00" fill="#000000">Input　対応履歴名</text>
<text text-anchor="start" x="254.9164" y="-345.4" font-family="Osaka-Mono,ＭＳ ゴシック" font-size="11.00" fill="#000000">Select カテゴリ</text>
<text text-anchor="start" x="254.9164" y="-332.2" font-family="Osaka-Mono,ＭＳ ゴシック" font-size="11.00" fill="#000000">Select 媒体</text>
<text text-anchor="start" x="254.9164" y="-319" font-family="Osaka-Mono,ＭＳ ゴシック" font-size="11.00" fill="#000000">Input　＊顧客名</text>
<text text-anchor="start" x="254.9164" y="-305.8" font-family="Osaka-Mono,ＭＳ ゴシック" font-size="11.00" fill="#000000">　　　 Enabled 　 : False</text>
<text text-anchor="start" x="254.9164" y="-292.6" font-family="Osaka-Mono,ＭＳ ゴシック" font-size="11.00" fill="#000000">Button 顧客検索</text>
<text text-anchor="start" x="254.9164" y="-279.4" font-family="Osaka-Mono,ＭＳ ゴシック" font-size="11.00" fill="#000000">Button 地図から検索</text>
<text text-anchor="start" x="254.9164" y="-266.2" font-family="Osaka-Mono,ＭＳ ゴシック" font-size="11.00" fill="#000000">Input　案件名</text>
<text text-anchor="start" x="254.9164" y="-253" font-family="Osaka-Mono,ＭＳ ゴシック" font-size="11.00" fill="#000000">　　　 Enabled 　 : False</text>
<text text-anchor="start" x="254.9164" y="-239.8" font-family="Osaka-Mono,ＭＳ ゴシック" font-size="11.00" fill="#000000">Button 案件検索</text>
<text text-anchor="start" x="254.9164" y="-226.6" font-family="Osaka-Mono,ＭＳ ゴシック" font-size="11.00" fill="#000000">Button 地図から検索</text>
<text text-anchor="start" x="254.9164" y="-213.4" font-family="Osaka-Mono,ＭＳ ゴシック" font-size="11.00" fill="#000000">Button ファイル選択</text>
<text text-anchor="start" x="254.9164" y="-200.2" font-family="Osaka-Mono,ＭＳ ゴシック" font-size="11.00" fill="#000000">Button クリア &lt;案件名と顧客名のクリア&gt;</text>
<text text-anchor="start" x="254.9164" y="-187" font-family="Osaka-Mono,ＭＳ ゴシック" font-size="11.00" fill="#000000">Text　 対応内容</text>
<text text-anchor="start" x="254.9164" y="-173.8" font-family="Osaka-Mono,ＭＳ ゴシック" font-size="11.00" fill="#000000">Select 対応担当(店舗) &lt;初期表示ログイン者の店舗&gt;</text>
<text text-anchor="start" x="254.9164" y="-160.6" font-family="Osaka-Mono,ＭＳ ゴシック" font-size="11.00" fill="#000000">Select 対応担当(担当者)</text>
<text text-anchor="start" x="254.9164" y="-147.4" font-family="Osaka-Mono,ＭＳ ゴシック" font-size="11.00" fill="#000000">Date　 対応日</text>
<text text-anchor="start" x="254.9164" y="-134.2" font-family="Osaka-Mono,ＭＳ ゴシック" font-size="11.00" fill="#000000">Check　対応済みフラグ</text>
<text text-anchor="start" x="254.9164" y="-121" font-family="Osaka-Mono,ＭＳ ゴシック" font-size="11.00" fill="#000000">Button 登録</text>
<polyline fill="none" stroke="#000000" points="247.9164,-110.7 527.9164,-110.7 "/>
<text text-anchor="start" x="254.9164" y="-93.8" font-family="Osaka-Mono,ＭＳ ゴシック" font-size="11.00" fill="#000000">Click:登録(Success)</text>
<polyline fill="none" stroke="#000000" points="247.9164,-83.5 527.9164,-83.5 "/>
<text text-anchor="start" x="254.9164" y="-66.6" font-family="Osaka-Mono,ＭＳ ゴシック" font-size="11.00" fill="#000000">Click:登録(Error)</text>
</g>
<!-- 対応履歴(リスト)&#45;&gt;対応履歴新規登録/編集 -->
<g id="edge3" class="edge">
<title>対応履歴(リスト):action2&#45;&gt;対応履歴新規登録/編集</title>
<path fill="none" stroke="#777777" d="M191.0101,-320.7C206.2558,-320.7 222.0024,-319.4021 237.64,-317.2471"/>
<polygon fill="#777777" stroke="#777777" points="238.5223,-320.6541 247.894,-315.7123 237.486,-313.7313 238.5223,-320.6541"/>
<text text-anchor="middle" x="219.4683" y="-322.4" font-family="Osaka-Mono,ＭＳ ゴシック" font-size="9.00" fill="#000000">編集</text>
</g>
<!-- 対応履歴(リスト)&#45;&gt;対応履歴新規登録/編集 -->
<g id="edge4" class="edge">
<title>対応履歴(リスト):action3&#45;&gt;対応履歴新規登録/編集</title>
<path fill="none" stroke="#777777" d="M191.0101,-293.7C206.0754,-293.7 221.7622,-293.171 237.4147,-292.2944"/>
<polygon fill="#777777" stroke="#777777" points="237.9195,-295.7702 247.6888,-291.6702 237.4949,-288.7831 237.9195,-295.7702"/>
<text text-anchor="middle" x="219.4683" y="-295.4" font-family="Osaka-Mono,ＭＳ ゴシック" font-size="9.00" fill="#000000">新規</text>
</g>
<!-- 対応履歴新規登録/編集Success -->
<g id="node4" class="node">
<title>対応履歴新規登録/編集Success</title>
<polygon fill="none" stroke="#000000" points="595.4164,-85.1 595.4164,-192.3 787.4164,-192.3 787.4164,-85.1 595.4164,-85.1"/>
<text text-anchor="start" x="602.4164" y="-175.4" font-family="Osaka-Mono,ＭＳ ゴシック" font-size="11.00" fill="#000000">対応履歴新規登録/編集Success</text>
<polyline fill="none" stroke="#000000" points="595.4164,-165.1 787.4164,-165.1 "/>
<text text-anchor="start" x="602.4164" y="-148.2" font-family="Osaka-Mono,ＭＳ ゴシック" font-size="11.00" fill="#000000">確認ダイアログ表示登録しますか?</text>
<text text-anchor="start" x="602.4164" y="-135" font-family="Osaka-Mono,ＭＳ ゴシック" font-size="11.00" fill="#000000"> &#45;&#45;&#45;&#45;&#45;&#45;&#45;&#45;&#45;&#45;</text>
<text text-anchor="start" x="602.4164" y="-121.8" font-family="Osaka-Mono,ＭＳ ゴシック" font-size="11.00" fill="#000000">復帰処理</text>
<text text-anchor="start" x="602.4164" y="-108.6" font-family="Osaka-Mono,ＭＳ ゴシック" font-size="11.00" fill="#000000">新規: 一覧取得</text>
<text text-anchor="start" x="602.4164" y="-95.4" font-family="Osaka-Mono,ＭＳ ゴシック" font-size="11.00" fill="#000000">編集: 一覧取得</text>
</g>
<!-- 対応履歴新規登録/編集&#45;&gt;対応履歴新規登録/編集Success -->
<g id="edge5" class="edge">
<title>対応履歴新規登録/編集:action0&#45;&gt;対応履歴新規登録/編集Success</title>
<path fill="none" stroke="#777777" d="M527.9164,-96.7C546.7587,-96.7 566.4493,-99.3491 585.3736,-103.3167"/>
<polygon fill="#777777" stroke="#777777" points="584.6695,-106.7455 595.1914,-105.5046 586.1921,-99.9131 584.6695,-106.7455"/>
</g>
<!-- 対応履歴新規登録/編集Error -->
<g id="node5" class="node">
<title>対応履歴新規登録/編集Error</title>
<polygon fill="none" stroke="#000000" points="564.9164,-.5 564.9164,-54.9 817.9164,-54.9 817.9164,-.5 564.9164,-.5"/>
<text text-anchor="start" x="571.9164" y="-38" font-family="Osaka-Mono,ＭＳ ゴシック" font-size="11.00" fill="#000000">対応履歴新規登録/編集Error</text>
<polyline fill="none" stroke="#000000" points="564.9164,-27.7 817.9164,-27.7 "/>
<text text-anchor="start" x="571.9164" y="-10.8" font-family="Osaka-Mono,ＭＳ ゴシック" font-size="11.00" fill="#000000">未・誤入力: 未入力/入力不備項目があります。</text>
</g>
<!-- 対応履歴新規登録/編集&#45;&gt;対応履歴新規登録/編集Error -->
<g id="edge6" class="edge">
<title>対応履歴新規登録/編集:action1&#45;&gt;対応履歴新規登録/編集Error</title>
<path fill="none" stroke="#777777" d="M527.9164,-69.7C554.3064,-69.7 582.3603,-64.5036 607.6425,-57.7663"/>
<polygon fill="#777777" stroke="#777777" points="608.8569,-61.0615 617.5537,-55.0104 606.9816,-54.3174 608.8569,-61.0615"/>
</g>
</g>
</svg>
