<?xml version="1.0" encoding="UTF-8" standalone="no"?>
<!DOCTYPE svg PUBLIC "-//W3C//DTD SVG 1.1//EN"
 "http://www.w3.org/Graphics/SVG/1.1/DTD/svg11.dtd">
<!-- Generated by graphviz version 2.40.1 (20161225.0304)
 -->
<!-- Title: D Pages: 1 -->
<svg width="606pt" height="390pt"
 viewBox="14.40 14.40 591.51 376.00" xmlns="http://www.w3.org/2000/svg" xmlns:xlink="http://www.w3.org/1999/xlink">
<g id="graph0" class="graph" transform="scale(1 1) rotate(0) translate(18.4 372)">
<title>D</title>
<polygon fill="#ffffff" stroke="transparent" points="-4,4 -4,-357.6 573.1072,-357.6 573.1072,4 -4,4"/>
<!-- 請求新規登録/編集 -->
<g id="node1" class="node">
<title>請求新規登録/編集</title>
<polygon fill="none" stroke="#000000" points="111.1072,-46.3 111.1072,-353.1 292.1072,-353.1 292.1072,-46.3 111.1072,-46.3"/>
<text text-anchor="start" x="118.1072" y="-336.2" font-family="Osaka-Mono,ＭＳ ゴシック" font-size="11.00" fill="#000000">請求新規登録/編集</text>
<polyline fill="none" stroke="#000000" points="111.1072,-325.9 292.1072,-325.9 "/>
<text text-anchor="start" x="118.1072" y="-309" font-family="Osaka-Mono,ＭＳ ゴシック" font-size="11.00" fill="#000000">案件条件</text>
<text text-anchor="start" x="118.1072" y="-295.8" font-family="Osaka-Mono,ＭＳ ゴシック" font-size="11.00" fill="#000000">└ 未完工・完工</text>
<text text-anchor="start" x="118.1072" y="-282.6" font-family="Osaka-Mono,ＭＳ ゴシック" font-size="11.00" fill="#000000">金額 ↔ 税込金額 自動入力</text>
<text text-anchor="start" x="118.1072" y="-269.4" font-family="Osaka-Mono,ＭＳ ゴシック" font-size="11.00" fill="#000000"> &#45;&#45;&#45;&#45;&#45;&#45;&#45;&#45;&#45;&#45;</text>
<text text-anchor="start" x="118.1072" y="-256.2" font-family="Osaka-Mono,ＭＳ ゴシック" font-size="11.00" fill="#000000">Input　現場名称</text>
<text text-anchor="start" x="118.1072" y="-243" font-family="Osaka-Mono,ＭＳ ゴシック" font-size="11.00" fill="#000000">　　　 Enabled 　 : False</text>
<text text-anchor="start" x="118.1072" y="-229.8" font-family="Osaka-Mono,ＭＳ ゴシック" font-size="11.00" fill="#000000">Input　案件名</text>
<text text-anchor="start" x="118.1072" y="-216.6" font-family="Osaka-Mono,ＭＳ ゴシック" font-size="11.00" fill="#000000">　　　 Validation : 60文字まで</text>
<text text-anchor="start" x="118.1072" y="-203.4" font-family="Osaka-Mono,ＭＳ ゴシック" font-size="11.00" fill="#000000">　　　 Enabled 　 : False</text>
<text text-anchor="start" x="118.1072" y="-190.2" font-family="Osaka-Mono,ＭＳ ゴシック" font-size="11.00" fill="#000000">Input　金額 &lt;初期値0&gt;</text>
<text text-anchor="start" x="118.1072" y="-177" font-family="Osaka-Mono,ＭＳ ゴシック" font-size="11.00" fill="#000000">Input　入金方法</text>
<text text-anchor="start" x="118.1072" y="-163.8" font-family="Osaka-Mono,ＭＳ ゴシック" font-size="11.00" fill="#000000">Input　*税込金額 &lt;初期値0&gt;</text>
<text text-anchor="start" x="118.1072" y="-150.6" font-family="Osaka-Mono,ＭＳ ゴシック" font-size="11.00" fill="#000000">　　　 Validation : 整数のみ</text>
<text text-anchor="start" x="118.1072" y="-137.4" font-family="Osaka-Mono,ＭＳ ゴシック" font-size="11.00" fill="#000000">Text　 備考</text>
<text text-anchor="start" x="118.1072" y="-124.2" font-family="Osaka-Mono,ＭＳ ゴシック" font-size="11.00" fill="#000000">Button 登録</text>
<text text-anchor="start" x="118.1072" y="-111" font-family="Osaka-Mono,ＭＳ ゴシック" font-size="11.00" fill="#000000">Button 閉じる</text>
<polyline fill="none" stroke="#000000" points="111.1072,-100.7 292.1072,-100.7 "/>
<text text-anchor="start" x="118.1072" y="-83.8" font-family="Osaka-Mono,ＭＳ ゴシック" font-size="11.00" fill="#000000">Click:登録(Success)</text>
<polyline fill="none" stroke="#000000" points="111.1072,-73.5 292.1072,-73.5 "/>
<text text-anchor="start" x="118.1072" y="-56.6" font-family="Osaka-Mono,ＭＳ ゴシック" font-size="11.00" fill="#000000">Click:登録(Failure)</text>
</g>
<!-- 請求新規登録/編集(Success) -->
<g id="node2" class="node">
<title>請求新規登録/編集(Success)</title>
<polygon fill="none" stroke="#000000" points="368.0469,-84.9 368.0469,-152.5 529.1675,-152.5 529.1675,-84.9 368.0469,-84.9"/>
<text text-anchor="start" x="375.0469" y="-135.6" font-family="Osaka-Mono,ＭＳ ゴシック" font-size="11.00" fill="#000000">請求新規登録/編集(Success)</text>
<polyline fill="none" stroke="#000000" points="368.0469,-125.3 529.1675,-125.3 "/>
<text text-anchor="start" x="375.0469" y="-108.4" font-family="Osaka-Mono,ＭＳ ゴシック" font-size="11.00" fill="#000000">メッセージダイアログ表示</text>
<text text-anchor="start" x="375.0469" y="-95.2" font-family="Osaka-Mono,ＭＳ ゴシック" font-size="11.00" fill="#000000">└ 登録しますか？</text>
</g>
<!-- 請求新規登録/編集&#45;&gt;請求新規登録/編集(Success) -->
<g id="edge1" class="edge">
<title>請求新規登録/編集:action0&#45;&gt;請求新規登録/編集(Success)</title>
<path fill="none" stroke="#777777" d="M292.1072,-86.7C313.6539,-86.7 336.5372,-89.6475 357.9611,-93.7535"/>
<polygon fill="#777777" stroke="#777777" points="357.524,-97.2358 368.0189,-95.7843 358.9095,-90.3743 357.524,-97.2358"/>
</g>
<!-- 請求新規登録/編集(Failure) -->
<g id="node3" class="node">
<title>請求新規登録/編集(Failure)</title>
<polygon fill="none" stroke="#000000" points="328.1072,-.5 328.1072,-54.9 569.1072,-54.9 569.1072,-.5 328.1072,-.5"/>
<text text-anchor="start" x="335.1072" y="-38" font-family="Osaka-Mono,ＭＳ ゴシック" font-size="11.00" fill="#000000">請求新規登録/編集(Failure)</text>
<polyline fill="none" stroke="#000000" points="328.1072,-27.7 569.1072,-27.7 "/>
<text text-anchor="start" x="335.1072" y="-10.8" font-family="Osaka-Mono,ＭＳ ゴシック" font-size="11.00" fill="#000000">未・誤入力:未入力／入力不備項目があります</text>
</g>
<!-- 請求新規登録/編集&#45;&gt;請求新規登録/編集(Failure) -->
<g id="edge2" class="edge">
<title>請求新規登録/編集:action1&#45;&gt;請求新規登録/編集(Failure)</title>
<path fill="none" stroke="#777777" d="M292.1072,-59.7C306.19,-59.7 320.8438,-58.4409 335.2879,-56.4221"/>
<polygon fill="#777777" stroke="#777777" points="335.8838,-59.8718 345.2445,-54.9093 334.8322,-52.9512 335.8838,-59.8718"/>
</g>
<!-- 請求リスト -->
<g id="node4" class="node">
<title>請求リスト</title>
<polygon fill="none" stroke="#000000" points="0,-185.9 0,-333.5 75.1072,-333.5 75.1072,-185.9 0,-185.9"/>
<text text-anchor="start" x="7" y="-316.6" font-family="Osaka-Mono,ＭＳ ゴシック" font-size="11.00" fill="#000000">請求リスト</text>
<polyline fill="none" stroke="#000000" points="0,-306.3 75.1072,-306.3 "/>
<text text-anchor="start" x="7" y="-289.4" font-family="Osaka-Mono,ＭＳ ゴシック" font-size="11.00" fill="#000000">印刷済み</text>
<text text-anchor="start" x="7" y="-276.2" font-family="Osaka-Mono,ＭＳ ゴシック" font-size="11.00" fill="#000000">請求項目</text>
<text text-anchor="start" x="7" y="-263" font-family="Osaka-Mono,ＭＳ ゴシック" font-size="11.00" fill="#000000">請求日</text>
<text text-anchor="start" x="7" y="-249.8" font-family="Osaka-Mono,ＭＳ ゴシック" font-size="11.00" fill="#000000">入金予定日</text>
<text text-anchor="start" x="7" y="-236.6" font-family="Osaka-Mono,ＭＳ ゴシック" font-size="11.00" fill="#000000">請求金額</text>
<text text-anchor="start" x="7" y="-223.4" font-family="Osaka-Mono,ＭＳ ゴシック" font-size="11.00" fill="#000000">入金方法</text>
<polyline fill="none" stroke="#000000" points="0,-213.1 75.1072,-213.1 "/>
<text text-anchor="start" x="7" y="-196.2" font-family="Osaka-Mono,ＭＳ ゴシック" font-size="11.00" fill="#000000">DbClick:Row</text>
</g>
<!-- 請求リスト&#45;&gt;請求新規登録/編集 -->
<g id="edge3" class="edge">
<title>請求リスト:action0&#45;&gt;請求新規登録/編集</title>
<path fill="none" stroke="#777777" d="M75.1072,-199.7C83.4733,-199.7 92.1506,-199.7 100.8612,-199.7"/>
<polygon fill="#777777" stroke="#777777" points="101.0855,-203.2001 111.0855,-199.7 101.0854,-196.2001 101.0855,-203.2001"/>
</g>
</g>
</svg>
