<?xml version="1.0" encoding="UTF-8" standalone="no"?>
<!DOCTYPE svg PUBLIC "-//W3C//DTD SVG 1.1//EN"
 "http://www.w3.org/Graphics/SVG/1.1/DTD/svg11.dtd">
<!-- Generated by graphviz version 2.40.1 (20161225.0304)
 -->
<!-- Title: D Pages: 1 -->
<svg width="1340pt" height="818pt"
 viewBox="14.40 14.40 1325.16 803.73" xmlns="http://www.w3.org/2000/svg" xmlns:xlink="http://www.w3.org/1999/xlink">
<g id="graph0" class="graph" transform="scale(1 1) rotate(0) translate(18.4 799.7333)">
<title>D</title>
<polygon fill="#ffffff" stroke="transparent" points="-4,4 -4,-785.3333 1306.7645,-785.3333 1306.7645,4 -4,4"/>
<!-- ログイン -->
<g id="node1" class="node">
<title>ログイン</title>
<polygon fill="none" stroke="#000000" points="0,-297.0333 0,-511.4333 158,-511.4333 158,-297.0333 0,-297.0333"/>
<text text-anchor="start" x="7" y="-494.5333" font-family="Osaka-Mono,ＭＳ ゴシック" font-size="11.00" fill="#000000">ログイン</text>
<polyline fill="none" stroke="#000000" points="0,-484.2333 158,-484.2333 "/>
<text text-anchor="start" x="7" y="-467.3333" font-family="Osaka-Mono,ＭＳ ゴシック" font-size="11.00" fill="#000000">Input</text>
<text text-anchor="start" x="7" y="-454.1333" font-family="Osaka-Mono,ＭＳ ゴシック" font-size="11.00" fill="#000000">└ メール </text>
<text text-anchor="start" x="7" y="-440.9333" font-family="Osaka-Mono,ＭＳ ゴシック" font-size="11.00" fill="#000000">└ パスワード</text>
<text text-anchor="start" x="7" y="-427.7333" font-family="Osaka-Mono,ＭＳ ゴシック" font-size="11.00" fill="#000000">Checkbox </text>
<text text-anchor="start" x="7" y="-414.5333" font-family="Osaka-Mono,ＭＳ ゴシック" font-size="11.00" fill="#000000">└ ログイン状態を保持する</text>
<text text-anchor="start" x="7" y="-401.3333" font-family="Osaka-Mono,ＭＳ ゴシック" font-size="11.00" fill="#000000">Button</text>
<text text-anchor="start" x="7" y="-388.1333" font-family="Osaka-Mono,ＭＳ ゴシック" font-size="11.00" fill="#000000">└ ログイン</text>
<text text-anchor="start" x="7" y="-374.9333" font-family="Osaka-Mono,ＭＳ ゴシック" font-size="11.00" fill="#000000">Link</text>
<text text-anchor="start" x="7" y="-361.7333" font-family="Osaka-Mono,ＭＳ ゴシック" font-size="11.00" fill="#000000">└ パスワードを忘れた方</text>
<polyline fill="none" stroke="#000000" points="0,-351.4333 158,-351.4333 "/>
<text text-anchor="start" x="7" y="-334.5333" font-family="Osaka-Mono,ＭＳ ゴシック" font-size="11.00" fill="#000000">Click:パスワードを忘れた方</text>
<polyline fill="none" stroke="#000000" points="0,-324.2333 158,-324.2333 "/>
<text text-anchor="start" x="7" y="-307.3333" font-family="Osaka-Mono,ＭＳ ゴシック" font-size="11.00" fill="#000000">Click:ログイン</text>
</g>
<!-- パスワード再発行メール送信 -->
<g id="node2" class="node">
<title>パスワード再発行メール送信</title>
<polygon fill="none" stroke="#000000" points="194,-260.6333 194,-569.8333 578.5977,-569.8333 578.5977,-260.6333 194,-260.6333"/>
<text text-anchor="start" x="201" y="-552.9333" font-family="Osaka-Mono,ＭＳ ゴシック" font-size="11.00" fill="#000000">パスワード再発行メール送信</text>
<polyline fill="none" stroke="#000000" points="194,-542.6333 578.5977,-542.6333 "/>
<text text-anchor="start" x="201" y="-525.7333" font-family="Osaka-Mono,ＭＳ ゴシック" font-size="11.00" fill="#000000">再発行用のURLをメールで発行する（メール有効期限は発行から24時間）</text>
<text text-anchor="start" x="201" y="-512.5333" font-family="Osaka-Mono,ＭＳ ゴシック" font-size="11.00" fill="#000000">Input</text>
<text text-anchor="start" x="201" y="-499.3333" font-family="Osaka-Mono,ＭＳ ゴシック" font-size="11.00" fill="#000000">└ メールアドレス</text>
<text text-anchor="start" x="201" y="-486.1333" font-family="Osaka-Mono,ＭＳ ゴシック" font-size="11.00" fill="#000000">　 Validation : アドレスバリデーション</text>
<text text-anchor="start" x="201" y="-472.9333" font-family="Osaka-Mono,ＭＳ ゴシック" font-size="11.00" fill="#000000">　 Message　　: 正しい形式で入力してください</text>
<text text-anchor="start" x="201" y="-459.7333" font-family="Osaka-Mono,ＭＳ ゴシック" font-size="11.00" fill="#000000">Link</text>
<text text-anchor="start" x="201" y="-446.5333" font-family="Osaka-Mono,ＭＳ ゴシック" font-size="11.00" fill="#000000">└ ログイン画面に戻る</text>
<text text-anchor="start" x="201" y="-433.3333" font-family="Osaka-Mono,ＭＳ ゴシック" font-size="11.00" fill="#000000">Button</text>
<text text-anchor="start" x="201" y="-420.1333" font-family="Osaka-Mono,ＭＳ ゴシック" font-size="11.00" fill="#000000">└ 送信</text>
<text text-anchor="start" x="201" y="-406.9333" font-family="Osaka-Mono,ＭＳ ゴシック" font-size="11.00" fill="#000000">　 Enabled 　 : メールアドレスバリデーション通過</text>
<polyline fill="none" stroke="#000000" points="194,-396.6333 578.5977,-396.6333 "/>
<text text-anchor="start" x="201" y="-379.7333" font-family="Osaka-Mono,ＭＳ ゴシック" font-size="11.00" fill="#000000">Click:送信 (Success)</text>
<polyline fill="none" stroke="#000000" points="194,-369.4333 578.5977,-369.4333 "/>
<text text-anchor="start" x="201" y="-352.5333" font-family="Osaka-Mono,ＭＳ ゴシック" font-size="11.00" fill="#000000">Click:送信 (Error)</text>
<polyline fill="none" stroke="#000000" points="194,-342.2333 578.5977,-342.2333 "/>
<text text-anchor="start" x="201" y="-325.3333" font-family="Osaka-Mono,ＭＳ ゴシック" font-size="11.00" fill="#000000">Click:ログイン画面に戻る</text>
<polyline fill="none" stroke="#000000" points="194,-315.0333 578.5977,-315.0333 "/>
<text text-anchor="start" x="201" y="-298.1333" font-family="Osaka-Mono,ＭＳ ゴシック" font-size="11.00" fill="#000000">Click:認証メールリンク(期限内)</text>
<polyline fill="none" stroke="#000000" points="194,-287.8333 578.5977,-287.8333 "/>
<text text-anchor="start" x="201" y="-270.9333" font-family="Osaka-Mono,ＭＳ ゴシック" font-size="11.00" fill="#000000">Click:認証メールリンク(期限切れ)</text>
</g>
<!-- ログイン&#45;&gt;パスワード再発行メール送信 -->
<g id="edge1" class="edge">
<title>ログイン:action0&#45;&gt;パスワード再発行メール送信</title>
<path fill="none" stroke="#777777" d="M158,-338.2333C166.4932,-338.2333 175.0754,-338.7177 183.6789,-339.6097"/>
<polygon fill="#777777" stroke="#777777" points="183.4349,-343.1057 193.7845,-340.8394 184.2805,-336.157 183.4349,-343.1057"/>
</g>
<!-- 顧客 (マップ/リスト) -->
<g id="node8" class="node">
<title>顧客 (マップ/リスト)</title>
<ellipse fill="none" stroke="#000000" cx="386.2989" cy="-19.2333" rx="80.8248" ry="19.4695"/>
<text text-anchor="middle" x="386.2989" y="-15.9333" font-family="Osaka-Mono,ＭＳ ゴシック" font-size="11.00" fill="#000000">顧客 (マップ/リスト)</text>
</g>
<!-- ログイン&#45;&gt;顧客 (マップ/リスト) -->
<g id="edge2" class="edge">
<title>ログイン:action1&#45;&gt;顧客 (マップ/リスト)</title>
<path fill="none" stroke="#777777" d="M158,-310.2333C214.1286,-310.2333 155.6637,-101.2302 194,-60.2333 219.8932,-32.5431 259.5114,-21.1619 296.0729,-17.1506"/>
<polygon fill="#777777" stroke="#777777" points="296.6543,-20.6119 306.2901,-16.2072 296.0106,-13.6415 296.6543,-20.6119"/>
</g>
<!-- パスワード再発行メール送信&#45;&gt;ログイン -->
<g id="edge5" class="edge">
<title>パスワード再発行メール送信:action2&#45;&gt;ログイン</title>
<path fill="none" stroke="#777777" d="M194.2988,-328.2333C185.241,-328.2333 176.3454,-329.8886 167.7614,-332.7107"/>
<polygon fill="#777777" stroke="#777777" points="166.2983,-329.523 158.2103,-336.3666 168.8007,-336.0605 166.2983,-329.523"/>
</g>
<!-- パスワード再発行メール送信 Error -->
<g id="node3" class="node">
<title>パスワード再発行メール送信 Error</title>
<polygon fill="none" stroke="#000000" points="700.5977,-370.4333 700.5977,-438.0333 1052.5977,-438.0333 1052.5977,-370.4333 700.5977,-370.4333"/>
<text text-anchor="start" x="707.5977" y="-421.1333" font-family="Osaka-Mono,ＭＳ ゴシック" font-size="11.00" fill="#000000">パスワード再発行メール送信Error</text>
<polyline fill="none" stroke="#000000" points="700.5977,-410.8333 1052.5977,-410.8333 "/>
<text text-anchor="start" x="707.5977" y="-393.9333" font-family="Osaka-Mono,ＭＳ ゴシック" font-size="11.00" fill="#000000">未入力: メールアドレスを指定してください。</text>
<text text-anchor="start" x="707.5977" y="-380.7333" font-family="Osaka-Mono,ＭＳ ゴシック" font-size="11.00" fill="#000000">誤入力 : メールアドレスに一致するユーザーは存在していません。</text>
</g>
<!-- パスワード再発行メール送信&#45;&gt;パスワード再発行メール送信 Error -->
<g id="edge4" class="edge">
<title>パスワード再発行メール送信:action1&#45;&gt;パスワード再発行メール送信 Error</title>
<path fill="none" stroke="#777777" d="M578.2989,-356.2333C623.1636,-356.2333 671.3473,-361.5914 715.6242,-368.7273"/>
<polygon fill="#777777" stroke="#777777" points="715.1633,-372.1985 725.6001,-370.3753 716.3043,-365.2921 715.1633,-372.1985"/>
</g>
<!-- パスワード再設定 -->
<g id="node4" class="node">
<title>パスワード再設定</title>
<polygon fill="none" stroke="#000000" points="614.5977,-126.4333 614.5977,-340.0333 1138.5977,-340.0333 1138.5977,-126.4333 614.5977,-126.4333"/>
<text text-anchor="start" x="621.5977" y="-323.1333" font-family="Osaka-Mono,ＭＳ ゴシック" font-size="11.00" fill="#000000">パスワード再設定</text>
<polyline fill="none" stroke="#000000" points="614.5977,-312.8333 1138.5977,-312.8333 "/>
<text text-anchor="start" x="621.5977" y="-295.9333" font-family="Osaka-Mono,ＭＳ ゴシック" font-size="11.00" fill="#000000">本文</text>
<text text-anchor="start" x="621.5977" y="-282.7333" font-family="Osaka-Mono,ＭＳ ゴシック" font-size="11.00" fill="#000000">Input</text>
<text text-anchor="start" x="621.5977" y="-269.5333" font-family="Osaka-Mono,ＭＳ ゴシック" font-size="11.00" fill="#000000">└ パスワード</text>
<text text-anchor="start" x="621.5977" y="-256.3333" font-family="Osaka-Mono,ＭＳ ゴシック" font-size="11.00" fill="#000000">　　 Validation : 半角数字、英字(小)、英字(大)をすべて含んだ8文字以上16文字以下</text>
<text text-anchor="start" x="621.5977" y="-243.1333" font-family="Osaka-Mono,ＭＳ ゴシック" font-size="11.00" fill="#000000">　　 Message　　: 半角の数字, 英字(小), 英字(大)をすべて含んだ８〜１６文字で入力してください</text>
<text text-anchor="start" x="621.5977" y="-229.9333" font-family="Osaka-Mono,ＭＳ ゴシック" font-size="11.00" fill="#000000">└ パスワード再入力</text>
<text text-anchor="start" x="621.5977" y="-216.7333" font-family="Osaka-Mono,ＭＳ ゴシック" font-size="11.00" fill="#000000">　　 Validation : 半角数字、英字(小)、英字(大)をすべて含んだ8文字以上16文字以下</text>
<text text-anchor="start" x="621.5977" y="-203.5333" font-family="Osaka-Mono,ＭＳ ゴシック" font-size="11.00" fill="#000000">　　 Message　　: パスワードが間違っています</text>
<text text-anchor="start" x="621.5977" y="-190.3333" font-family="Osaka-Mono,ＭＳ ゴシック" font-size="11.00" fill="#000000">Button</text>
<text text-anchor="start" x="621.5977" y="-177.1333" font-family="Osaka-Mono,ＭＳ ゴシック" font-size="11.00" fill="#000000">└ 送信</text>
<text text-anchor="start" x="621.5977" y="-163.9333" font-family="Osaka-Mono,ＭＳ ゴシック" font-size="11.00" fill="#000000">　　 Enabled 　 : パスワード === パスワード再入力 </text>
<polyline fill="none" stroke="#000000" points="614.5977,-153.6333 1138.5977,-153.6333 "/>
<text text-anchor="start" x="621.5977" y="-136.7333" font-family="Osaka-Mono,ＭＳ ゴシック" font-size="11.00" fill="#000000">Click:送信</text>
</g>
<!-- パスワード再発行メール送信&#45;&gt;パスワード再設定 -->
<g id="edge6" class="edge">
<title>パスワード再発行メール送信:action3&#45;&gt;パスワード再設定</title>
<path fill="none" stroke="#777777" d="M578.2989,-301.2333C586.7933,-301.2333 595.3906,-300.9679 604.0447,-300.4704"/>
<polygon fill="#777777" stroke="#777777" points="604.4863,-303.9486 614.2272,-299.7816 604.0138,-296.9645 604.4863,-303.9486"/>
</g>
<!-- パスワード再発行完了 -->
<g id="node6" class="node">
<title>パスワード再発行完了</title>
<polygon fill="none" stroke="#000000" points="794.5977,-659.6333 794.5977,-780.8333 958.5977,-780.8333 958.5977,-659.6333 794.5977,-659.6333"/>
<text text-anchor="start" x="801.5977" y="-763.9333" font-family="Osaka-Mono,ＭＳ ゴシック" font-size="11.00" fill="#000000">パスワード再発行完了</text>
<polyline fill="none" stroke="#000000" points="794.5977,-753.6333 958.5977,-753.6333 "/>
<text text-anchor="start" x="801.5977" y="-736.7333" font-family="Osaka-Mono,ＭＳ ゴシック" font-size="11.00" fill="#000000">&lt;Dialog&gt;ダイアログ&lt;/Dialog&gt;</text>
<text text-anchor="start" x="801.5977" y="-723.5333" font-family="Osaka-Mono,ＭＳ ゴシック" font-size="11.00" fill="#000000">完了文章</text>
<text text-anchor="start" x="801.5977" y="-710.3333" font-family="Osaka-Mono,ＭＳ ゴシック" font-size="11.00" fill="#000000">Button</text>
<text text-anchor="start" x="801.5977" y="-697.1333" font-family="Osaka-Mono,ＭＳ ゴシック" font-size="11.00" fill="#000000">└ ログイン画面へ</text>
<polyline fill="none" stroke="#000000" points="794.5977,-686.8333 958.5977,-686.8333 "/>
<text text-anchor="start" x="801.5977" y="-669.9333" font-family="Osaka-Mono,ＭＳ ゴシック" font-size="11.00" fill="#000000">Click:ログイン画面へ</text>
</g>
<!-- パスワード再発行メール送信&#45;&gt;パスワード再発行完了 -->
<g id="edge3" class="edge">
<title>パスワード再発行メール送信:action0&#45;&gt;パスワード再発行完了</title>
<path fill="none" stroke="#777777" d="M578.2989,-383.2333C637.0772,-383.2333 576.0691,-600.8436 614.5977,-645.2333 656.4347,-693.4346 726.9318,-711.6622 784.2664,-718.1211"/>
<polygon fill="#777777" stroke="#777777" points="784.1383,-721.6261 794.4424,-719.1611 784.8501,-714.6624 784.1383,-721.6261"/>
</g>
<!-- 再設定の有効期限切れ -->
<g id="node7" class="node">
<title>再設定の有効期限切れ</title>
<polygon fill="none" stroke="#000000" points="803.0977,-468.4333 803.0977,-630.0333 950.0977,-630.0333 950.0977,-468.4333 803.0977,-468.4333"/>
<text text-anchor="start" x="810.0977" y="-613.1333" font-family="Osaka-Mono,ＭＳ ゴシック" font-size="11.00" fill="#000000">再設定の有効期限切れ</text>
<polyline fill="none" stroke="#000000" points="803.0977,-602.8333 950.0977,-602.8333 "/>
<text text-anchor="start" x="810.0977" y="-585.9333" font-family="Osaka-Mono,ＭＳ ゴシック" font-size="11.00" fill="#000000">期限切れ文章</text>
<text text-anchor="start" x="810.0977" y="-572.7333" font-family="Osaka-Mono,ＭＳ ゴシック" font-size="11.00" fill="#000000">Button</text>
<text text-anchor="start" x="810.0977" y="-559.5333" font-family="Osaka-Mono,ＭＳ ゴシック" font-size="11.00" fill="#000000">└ パスワード再設定へ</text>
<text text-anchor="start" x="810.0977" y="-546.3333" font-family="Osaka-Mono,ＭＳ ゴシック" font-size="11.00" fill="#000000">Link</text>
<text text-anchor="start" x="810.0977" y="-533.1333" font-family="Osaka-Mono,ＭＳ ゴシック" font-size="11.00" fill="#000000">└ ログイン画面へ戻る</text>
<polyline fill="none" stroke="#000000" points="803.0977,-522.8333 950.0977,-522.8333 "/>
<text text-anchor="start" x="810.0977" y="-505.9333" font-family="Osaka-Mono,ＭＳ ゴシック" font-size="11.00" fill="#000000">Click:ログイン画面へ戻る</text>
<polyline fill="none" stroke="#000000" points="803.0977,-495.6333 950.0977,-495.6333 "/>
<text text-anchor="start" x="810.0977" y="-478.7333" font-family="Osaka-Mono,ＭＳ ゴシック" font-size="11.00" fill="#000000">Click:パスワード再設定へ</text>
</g>
<!-- パスワード再発行メール送信&#45;&gt;再設定の有効期限切れ -->
<g id="edge7" class="edge">
<title>パスワード再発行メール送信:action4&#45;&gt;再設定の有効期限切れ</title>
<path fill="none" stroke="#777777" d="M578.2989,-274.2333C659.4737,-274.2333 561.696,-391.6641 614.5977,-453.2333 659.2892,-505.2471 734.6681,-529.0913 793.1302,-540.0151"/>
<polygon fill="#777777" stroke="#777777" points="792.6396,-543.4827 803.0974,-541.7842 793.863,-536.5904 792.6396,-543.4827"/>
</g>
<!-- パスワード再設定完了 -->
<g id="node5" class="node">
<title>パスワード再設定完了</title>
<polygon fill="none" stroke="#000000" points="1174.5977,-77.2333 1174.5977,-185.2333 1302.7645,-185.2333 1302.7645,-77.2333 1174.5977,-77.2333"/>
<text text-anchor="start" x="1181.5977" y="-168.3333" font-family="Osaka-Mono,ＭＳ ゴシック" font-size="11.00" fill="#000000">パスワード再設定完了</text>
<polyline fill="none" stroke="#000000" points="1174.5977,-158.0333 1302.7645,-158.0333 "/>
<text text-anchor="start" x="1181.5977" y="-141.1333" font-family="Osaka-Mono,ＭＳ ゴシック" font-size="11.00" fill="#000000">本文</text>
<text text-anchor="start" x="1181.5977" y="-127.9333" font-family="Osaka-Mono,ＭＳ ゴシック" font-size="11.00" fill="#000000">Button</text>
<text text-anchor="start" x="1181.5977" y="-114.7333" font-family="Osaka-Mono,ＭＳ ゴシック" font-size="11.00" fill="#000000">└ ログイン画面へ</text>
<polyline fill="none" stroke="#000000" points="1174.5977,-104.4333 1302.7645,-104.4333 "/>
<text text-anchor="start" x="1181.5977" y="-87.5333" font-family="Osaka-Mono,ＭＳ ゴシック" font-size="11.00" fill="#000000">Click:ログイン画面へ</text>
</g>
<!-- パスワード再設定&#45;&gt;パスワード再設定完了 -->
<g id="edge8" class="edge">
<title>パスワード再設定:action0&#45;&gt;パスワード再設定完了</title>
<path fill="none" stroke="#777777" d="M1138.5977,-140.2333C1146.9362,-140.2333 1155.6498,-139.9196 1164.3079,-139.4093"/>
<polygon fill="#777777" stroke="#777777" points="1164.6786,-142.8923 1174.4203,-138.7269 1164.2073,-135.9082 1164.6786,-142.8923"/>
</g>
<!-- パスワード再設定完了&#45;&gt;ログイン -->
<g id="edge9" class="edge">
<title>パスワード再設定完了:action0&#45;&gt;ログイン</title>
<path fill="none" stroke="#777777" d="M1174.6811,-91.2333C733.4815,-91.2333 551.4025,13.4567 194,-245.2333 177.28,-257.3353 162.0329,-272.6147 148.4981,-288.8896"/>
<polygon fill="#777777" stroke="#777777" points="145.5498,-286.9698 141.9923,-296.9496 150.9967,-291.3665 145.5498,-286.9698"/>
</g>
<!-- パスワード再発行完了&#45;&gt;ログイン -->
<g id="edge10" class="edge">
<title>パスワード再発行完了:action0&#45;&gt;ログイン</title>
<path fill="none" stroke="#777777" d="M794.5977,-673.2333C526.9172,-673.2333 417.074,-776.1888 194,-628.2333 156.1471,-603.1271 130.0766,-561.4991 112.46,-520.8973"/>
<polygon fill="#777777" stroke="#777777" points="115.5884,-519.3066 108.4956,-511.4363 109.1323,-522.012 115.5884,-519.3066"/>
</g>
<!-- 再設定の有効期限切れ&#45;&gt;ログイン -->
<g id="edge11" class="edge">
<title>再設定の有効期限切れ:action0&#45;&gt;ログイン</title>
<path fill="none" stroke="#777777" d="M802.5977,-509.2333C697.468,-509.2333 682.3245,-568.116 578.5977,-585.2333 409.9464,-613.0647 343.8108,-667.5411 194,-585.2333 166.9125,-570.3511 145.2997,-546.0874 128.4595,-520.0917"/>
<polygon fill="#777777" stroke="#777777" points="131.4232,-518.2297 123.1587,-511.6003 125.4852,-521.9366 131.4232,-518.2297"/>
</g>
<!-- 再設定の有効期限切れ&#45;&gt;パスワード再発行メール送信 -->
<g id="edge12" class="edge">
<title>再設定の有効期限切れ:action1&#45;&gt;パスワード再発行メール送信</title>
<path fill="none" stroke="#777777" d="M802.5977,-482.2333C732.3889,-482.2333 656.3562,-472.8294 588.7177,-461.0679"/>
<polygon fill="#777777" stroke="#777777" points="589.2572,-457.6091 578.8008,-459.3163 588.0396,-464.5024 589.2572,-457.6091"/>
</g>
</g>
</svg>
