<?xml version="1.0" encoding="UTF-8" standalone="no"?>
<!DOCTYPE svg PUBLIC "-//W3C//DTD SVG 1.1//EN"
 "http://www.w3.org/Graphics/SVG/1.1/DTD/svg11.dtd">
<!-- Generated by graphviz version 2.40.1 (20161225.0304)
 -->
<!-- Title: D Pages: 1 -->
<svg width="743pt" height="573pt"
 viewBox="14.40 14.40 728.30 558.20" xmlns="http://www.w3.org/2000/svg" xmlns:xlink="http://www.w3.org/1999/xlink">
<g id="graph0" class="graph" transform="scale(1 1) rotate(0) translate(18.4 554.2)">
<title>D</title>
<polygon fill="#ffffff" stroke="transparent" points="-4,4 -4,-539.8 709.8962,-539.8 709.8962,4 -4,4"/>
<!-- ファイル(リスト) -->
<g id="node1" class="node">
<title>ファイル(リスト)</title>
<polygon fill="none" stroke="#000000" points="48,-174.1 48,-535.3 184,-535.3 184,-174.1 48,-174.1"/>
<text text-anchor="start" x="55" y="-518.4" font-family="Osaka-Mono,ＭＳ ゴシック" font-size="11.00" fill="#000000">ファイル(リスト)</text>
<polyline fill="none" stroke="#000000" points="48,-508.1 184,-508.1 "/>
<text text-anchor="start" x="55" y="-491.2" font-family="Osaka-Mono,ＭＳ ゴシック" font-size="11.00" fill="#000000">ファイル検索</text>
<text text-anchor="start" x="55" y="-478" font-family="Osaka-Mono,ＭＳ ゴシック" font-size="11.00" fill="#000000">リスト</text>
<text text-anchor="start" x="55" y="-464.8" font-family="Osaka-Mono,ＭＳ ゴシック" font-size="11.00" fill="#000000">項目</text>
<text text-anchor="start" x="55" y="-451.6" font-family="Osaka-Mono,ＭＳ ゴシック" font-size="11.00" fill="#000000">└ No</text>
<text text-anchor="start" x="55" y="-438.4" font-family="Osaka-Mono,ＭＳ ゴシック" font-size="11.00" fill="#000000">└ ファイル名</text>
<text text-anchor="start" x="55" y="-425.2" font-family="Osaka-Mono,ＭＳ ゴシック" font-size="11.00" fill="#000000">└ 形式</text>
<text text-anchor="start" x="55" y="-412" font-family="Osaka-Mono,ＭＳ ゴシック" font-size="11.00" fill="#000000">└ サイズ</text>
<text text-anchor="start" x="55" y="-398.8" font-family="Osaka-Mono,ＭＳ ゴシック" font-size="11.00" fill="#000000">└ アップロード日時</text>
<text text-anchor="start" x="55" y="-385.6" font-family="Osaka-Mono,ＭＳ ゴシック" font-size="11.00" fill="#000000">└ 更新者</text>
<text text-anchor="start" x="55" y="-372.4" font-family="Osaka-Mono,ＭＳ ゴシック" font-size="11.00" fill="#000000">└ 顧客名</text>
<text text-anchor="start" x="55" y="-359.2" font-family="Osaka-Mono,ＭＳ ゴシック" font-size="11.00" fill="#000000">└ 案件名</text>
<text text-anchor="start" x="55" y="-346" font-family="Osaka-Mono,ＭＳ ゴシック" font-size="11.00" fill="#000000">└ Button ダウンロード</text>
<text text-anchor="start" x="55" y="-332.8" font-family="Osaka-Mono,ＭＳ ゴシック" font-size="11.00" fill="#000000">└ Button 削除</text>
<text text-anchor="start" x="55" y="-319.6" font-family="Osaka-Mono,ＭＳ ゴシック" font-size="11.00" fill="#000000">└ 備考</text>
<text text-anchor="start" x="55" y="-306.4" font-family="Osaka-Mono,ＭＳ ゴシック" font-size="11.00" fill="#000000">Button 新規登録</text>
<text text-anchor="start" x="55" y="-293.2" font-family="Osaka-Mono,ＭＳ ゴシック" font-size="11.00" fill="#000000">Button 戻る</text>
<polyline fill="none" stroke="#000000" points="48,-282.9 184,-282.9 "/>
<text text-anchor="start" x="55" y="-266" font-family="Osaka-Mono,ＭＳ ゴシック" font-size="11.00" fill="#000000">ファイル検索</text>
<polyline fill="none" stroke="#000000" points="48,-255.7 184,-255.7 "/>
<text text-anchor="start" x="55" y="-238.8" font-family="Osaka-Mono,ＭＳ ゴシック" font-size="11.00" fill="#000000">Click:Row(Active)</text>
<polyline fill="none" stroke="#000000" points="48,-228.5 184,-228.5 "/>
<text text-anchor="start" x="55" y="-211.6" font-family="Osaka-Mono,ＭＳ ゴシック" font-size="11.00" fill="#000000">DbClick:Row(Active)</text>
<polyline fill="none" stroke="#000000" points="48,-201.3 184,-201.3 "/>
<text text-anchor="start" x="55" y="-184.4" font-family="Osaka-Mono,ＭＳ ゴシック" font-size="11.00" fill="#000000">Click:新規登録</text>
</g>
<!-- ファイル(リスト)&#45;&gt;ファイル(リスト) -->
<g id="edge2" class="edge">
<title>ファイル(リスト):action1&#45;&gt;ファイル(リスト)</title>
<path fill="none" stroke="#777777" d="M47.7949,-236.7547C21.6653,-242.9309 0,-260.6199 0,-298.2 0,-330.9358 16.4397,-348.5782 37.9495,-356.665"/>
<polygon fill="#777777" stroke="#777777" points="37.2097,-360.0978 47.7949,-359.6453 39.2379,-353.3981 37.2097,-360.0978"/>
</g>
<!-- ファイル検索 -->
<g id="node2" class="node">
<title>ファイル検索</title>
<polygon fill="none" stroke="#000000" points="240.8962,-320.5 240.8962,-440.9 415.8962,-440.9 415.8962,-320.5 240.8962,-320.5"/>
<text text-anchor="start" x="247.8962" y="-424" font-family="Osaka-Mono,ＭＳ ゴシック" font-size="11.00" fill="#000000">ファイル検索</text>
<polyline fill="none" stroke="#000000" points="240.8962,-413.7 415.8962,-413.7 "/>
<text text-anchor="start" x="247.8962" y="-396.8" font-family="Osaka-Mono,ＭＳ ゴシック" font-size="11.00" fill="#000000">Input　顧客名</text>
<text text-anchor="start" x="247.8962" y="-383.6" font-family="Osaka-Mono,ＭＳ ゴシック" font-size="11.00" fill="#000000">Input　案件名</text>
<text text-anchor="start" x="247.8962" y="-370.4" font-family="Osaka-Mono,ＭＳ ゴシック" font-size="11.00" fill="#000000">Input　ファイル名</text>
<text text-anchor="start" x="247.8962" y="-357.2" font-family="Osaka-Mono,ＭＳ ゴシック" font-size="11.00" fill="#000000">Date　 アップロード日(最小値)</text>
<text text-anchor="start" x="247.8962" y="-344" font-family="Osaka-Mono,ＭＳ ゴシック" font-size="11.00" fill="#000000">Date　 アップロード日(最大値)</text>
<text text-anchor="start" x="247.8962" y="-330.8" font-family="Osaka-Mono,ＭＳ ゴシック" font-size="11.00" fill="#000000">Button 検索</text>
</g>
<!-- ファイル(リスト)&#45;&gt;ファイル検索 -->
<g id="edge1" class="edge">
<title>ファイル(リスト):action0&#45;&gt;ファイル検索</title>
<path fill="none" stroke="#777777" d="M184,-269.7C192.7441,-269.7 220.8908,-290.424 250.0402,-313.9626"/>
<polygon fill="#777777" stroke="#777777" points="247.8993,-316.7328 257.8656,-320.3277 252.3163,-311.3024 247.8993,-316.7328"/>
</g>
<!-- ファイル新規登録/編集 -->
<g id="node3" class="node">
<title>ファイル新規登録/編集</title>
<polygon fill="none" stroke="#000000" points="262.8962,-49.3 262.8962,-290.1 393.8962,-290.1 393.8962,-49.3 262.8962,-49.3"/>
<text text-anchor="start" x="269.8962" y="-273.2" font-family="Osaka-Mono,ＭＳ ゴシック" font-size="11.00" fill="#000000">ファイル新規登録/編集</text>
<polyline fill="none" stroke="#000000" points="262.8962,-262.9 393.8962,-262.9 "/>
<text text-anchor="start" x="269.8962" y="-246" font-family="Osaka-Mono,ＭＳ ゴシック" font-size="11.00" fill="#000000">Input　＊顧客名</text>
<text text-anchor="start" x="269.8962" y="-232.8" font-family="Osaka-Mono,ＭＳ ゴシック" font-size="11.00" fill="#000000">Button 顧客参照</text>
<text text-anchor="start" x="269.8962" y="-219.6" font-family="Osaka-Mono,ＭＳ ゴシック" font-size="11.00" fill="#000000">Button 地図から検索</text>
<text text-anchor="start" x="269.8962" y="-206.4" font-family="Osaka-Mono,ＭＳ ゴシック" font-size="11.00" fill="#000000">Input　案件名</text>
<text text-anchor="start" x="269.8962" y="-193.2" font-family="Osaka-Mono,ＭＳ ゴシック" font-size="11.00" fill="#000000">Button 案件参照</text>
<text text-anchor="start" x="269.8962" y="-180" font-family="Osaka-Mono,ＭＳ ゴシック" font-size="11.00" fill="#000000">Button 地図から検索</text>
<text text-anchor="start" x="269.8962" y="-166.8" font-family="Osaka-Mono,ＭＳ ゴシック" font-size="11.00" fill="#000000">Input　＊ファイル名</text>
<text text-anchor="start" x="269.8962" y="-153.6" font-family="Osaka-Mono,ＭＳ ゴシック" font-size="11.00" fill="#000000">Button ファイル選択</text>
<text text-anchor="start" x="269.8962" y="-140.4" font-family="Osaka-Mono,ＭＳ ゴシック" font-size="11.00" fill="#000000">Button ? &lt;注意書き&gt;</text>
<text text-anchor="start" x="269.8962" y="-127.2" font-family="Osaka-Mono,ＭＳ ゴシック" font-size="11.00" fill="#000000">Text 　コメント</text>
<text text-anchor="start" x="269.8962" y="-114" font-family="Osaka-Mono,ＭＳ ゴシック" font-size="11.00" fill="#000000">Button 登録 </text>
<polyline fill="none" stroke="#000000" points="262.8962,-103.7 393.8962,-103.7 "/>
<text text-anchor="start" x="269.8962" y="-86.8" font-family="Osaka-Mono,ＭＳ ゴシック" font-size="11.00" fill="#000000">Click:登録(Success)</text>
<polyline fill="none" stroke="#000000" points="262.8962,-76.5 393.8962,-76.5 "/>
<text text-anchor="start" x="269.8962" y="-59.6" font-family="Osaka-Mono,ＭＳ ゴシック" font-size="11.00" fill="#000000">Click:登録(Error)</text>
</g>
<!-- ファイル(リスト)&#45;&gt;ファイル新規登録/編集 -->
<g id="edge3" class="edge">
<title>ファイル(リスト):action2&#45;&gt;ファイル新規登録/編集</title>
<path fill="none" stroke="#777777" d="M184,-214.7C207.1019,-214.7 231.3796,-209.385 253.2963,-202.4082"/>
<polygon fill="#777777" stroke="#777777" points="254.4838,-205.7017 262.8596,-199.2136 252.2659,-199.0624 254.4838,-205.7017"/>
<text text-anchor="middle" x="212.4481" y="-215.4" font-family="Osaka-Mono,ＭＳ ゴシック" font-size="9.00" fill="#000000">編集</text>
</g>
<!-- ファイル(リスト)&#45;&gt;ファイル新規登録/編集 -->
<g id="edge4" class="edge">
<title>ファイル(リスト):action3&#45;&gt;ファイル新規登録/編集</title>
<path fill="none" stroke="#777777" d="M184,-187.7C206.4553,-187.7 230.725,-185.53 252.8421,-182.6968"/>
<polygon fill="#777777" stroke="#777777" points="253.3933,-186.1543 262.8382,-181.3539 252.4612,-179.2166 253.3933,-186.1543"/>
<text text-anchor="middle" x="212.4481" y="-189.4" font-family="Osaka-Mono,ＭＳ ゴシック" font-size="9.00" fill="#000000">新規</text>
</g>
<!-- ファイル新規登録/編集Success -->
<g id="node4" class="node">
<title>ファイル新規登録/編集Success</title>
<polygon fill="none" stroke="#000000" points="494.8962,-85.3 494.8962,-166.1 663.8962,-166.1 663.8962,-85.3 494.8962,-85.3"/>
<text text-anchor="start" x="501.8962" y="-149.2" font-family="Osaka-Mono,ＭＳ ゴシック" font-size="11.00" fill="#000000">ファイル新規登録/編集Success</text>
<polyline fill="none" stroke="#000000" points="494.8962,-138.9 663.8962,-138.9 "/>
<text text-anchor="start" x="501.8962" y="-122" font-family="Osaka-Mono,ＭＳ ゴシック" font-size="11.00" fill="#000000">復帰処理</text>
<text text-anchor="start" x="501.8962" y="-108.8" font-family="Osaka-Mono,ＭＳ ゴシック" font-size="11.00" fill="#000000">新規: 一覧取得</text>
<text text-anchor="start" x="501.8962" y="-95.6" font-family="Osaka-Mono,ＭＳ ゴシック" font-size="11.00" fill="#000000">編集: 一覧取得</text>
</g>
<!-- ファイル新規登録/編集&#45;&gt;ファイル新規登録/編集Success -->
<g id="edge5" class="edge">
<title>ファイル新規登録/編集:action0&#45;&gt;ファイル新規登録/編集Success</title>
<path fill="none" stroke="#777777" d="M394.3962,-89.7C424.1048,-89.7 456.011,-94.2284 484.819,-100.0731"/>
<polygon fill="#777777" stroke="#777777" points="484.3641,-103.554 494.8708,-102.19 485.8068,-96.7042 484.3641,-103.554"/>
</g>
<!-- ファイル新規登録/編集Error -->
<g id="node5" class="node">
<title>ファイル新規登録/編集Error</title>
<polygon fill="none" stroke="#000000" points="452.8962,-.5 452.8962,-54.9 705.8962,-54.9 705.8962,-.5 452.8962,-.5"/>
<text text-anchor="start" x="459.8962" y="-38" font-family="Osaka-Mono,ＭＳ ゴシック" font-size="11.00" fill="#000000">ファイル新規登録/編集Error</text>
<polyline fill="none" stroke="#000000" points="452.8962,-27.7 705.8962,-27.7 "/>
<text text-anchor="start" x="459.8962" y="-10.8" font-family="Osaka-Mono,ＭＳ ゴシック" font-size="11.00" fill="#000000">未・誤入力: 未入力/入力不備項目があります。</text>
</g>
<!-- ファイル新規登録/編集&#45;&gt;ファイル新規登録/編集Error -->
<g id="edge6" class="edge">
<title>ファイル新規登録/編集:action1&#45;&gt;ファイル新規登録/編集Error</title>
<path fill="none" stroke="#777777" d="M394.3962,-62.7C416.606,-62.7 440.0584,-60.2345 462.5291,-56.6122"/>
<polygon fill="#777777" stroke="#777777" points="463.1594,-60.0554 472.4332,-54.9324 461.9887,-53.154 463.1594,-60.0554"/>
</g>
</g>
</svg>
